<?xml version="1.0" standalone="yes"?><svg version="1.1" xmlns = 'http://www.w3.org/2000/svg'><defs><font id='web' horiz-adv-x="1000">
<font-face font-family="web" descent="-276" cap-height="1634" units-per-em="2048" bbox="-170,-432,1576,1958" x-height="1126" ascent="1645" />
<missing-glyph horiz-adv-x="295" d="" /><glyph horiz-adv-x="1280" d="M 476 -32 C 342 -32 239 5 166 80 C 92 154 56 248 56 360 C 56 506 108 636 214 750 C 319 863 449 920 604 920 C 668 920 734 908 802 886 C 870 863 924 840 964 816 C 972 872 976 928 976 984 C 976 1109 953 1207 908 1278 C 862 1348 800 1384 720 1384 C 634 1384 567 1374 518 1356 C 468 1337 418 1312 368 1280 L 324 1444 C 374 1473 430 1498 492 1518 C 553 1538 629 1548 720 1548 C 877 1548 992 1496 1064 1394 C 1136 1291 1172 1149 1172 968 C 1172 690 1104 454 968 260 C 832 65 668 -32 476 -32 Z M 488 128 C 602 128 698 174 774 268 C 850 361 906 500 944 684 C 922 705 882 726 824 748 C 765 769 706 780 648 780 C 520 780 424 738 360 654 C 296 570 264 476 264 372 C 264 300 282 241 318 196 C 354 150 410 128 488 128 Z" unicode="∂" />
<glyph horiz-adv-x="1536" d="M 76 0 L 652 1536 L 884 1536 L 1456 0 L 76 0 Z M 352 148 L 1164 148 L 752 1256 L 352 148 Z" unicode="∆" />
<glyph horiz-adv-x="707" d="M 662 467 C 661 458 660 445 660 428 C 659 411 658 393 658 374 C 658 354 657 335 656 316 C 655 297 654 282 653 270 C 643 178 617 108 574 60 C 530 12 466 -12 381 -12 C 338 -12 301 -6 270 6 C 238 18 212 35 190 58 C 168 80 151 108 139 140 C 126 172 117 208 113 248 C 110 265 108 289 106 321 C 104 353 103 388 103 426 C 102 464 101 505 101 547 C 101 589 100 628 100 666 L 18 666 L 18 770 L 94 770 L 94 811 L 94 852 L 18 852 L 18 956 L 98 956 C 98 994 99 1036 100 1082 C 100 1128 101 1172 103 1215 C 104 1258 106 1297 108 1332 C 110 1366 112 1391 115 1407 C 121 1443 131 1476 144 1505 C 157 1534 174 1559 195 1579 C 216 1599 242 1615 273 1626 C 303 1636 339 1642 381 1642 C 463 1642 525 1619 567 1573 C 609 1527 637 1462 649 1378 C 650 1365 651 1347 653 1325 C 654 1303 655 1280 656 1256 C 657 1232 658 1208 658 1186 C 658 1164 659 1147 659 1135 L 520 1135 C 520 1151 521 1169 521 1189 C 521 1209 520 1228 520 1247 C 520 1266 519 1283 519 1299 C 519 1314 518 1325 518 1331 C 514 1387 502 1432 480 1466 C 458 1499 425 1516 381 1516 C 358 1516 339 1512 323 1504 C 307 1496 293 1486 283 1472 C 273 1458 265 1442 259 1423 C 253 1403 250 1382 248 1360 C 242 1312 240 1254 240 1184 C 240 1114 240 1038 240 956 L 494 956 L 494 852 L 240 852 L 240 813 L 240 770 L 494 770 L 494 666 L 240 666 C 240 630 240 593 240 554 C 240 514 241 477 241 441 C 241 405 242 372 243 344 C 243 316 244 295 246 281 C 251 229 264 188 284 158 C 304 128 337 113 381 113 C 468 113 514 174 518 297 C 518 311 519 327 519 344 C 519 361 520 377 520 393 C 520 409 520 423 520 436 C 520 449 520 459 520 467 L 662 467 Z" unicode="€" />
<glyph horiz-adv-x="1536" d="M 332 0 L 332 1348 L 80 1348 L 80 1524 L 1456 1524 L 1456 1348 L 1212 1348 L 1212 0 L 1004 0 L 1004 1356 L 540 1356 L 540 0 L 332 0 Z" unicode="∏" />
<glyph horiz-adv-x="1152" d="M 1084 1524 L 1084 1344 L 332 1344 L 796 784 L 304 188 L 1080 188 L 1080 0 L 40 0 L 40 172 L 560 788 L 68 1380 L 68 1524 L 1084 1524 Z" unicode="∑" />
<glyph horiz-adv-x="610" d="M 584 739 L 25 739 L 25 874 L 584 874 L 584 739 Z" unicode="−" />
<glyph horiz-adv-x="561" d="M 535 639 L 27 639 L 27 788 L 535 788 L 535 639 Z" unicode="–" />
<glyph horiz-adv-x="948" d="M 848 639 L 100 639 L 100 788 L 848 788 L 848 639 Z" unicode="—" />
<glyph horiz-adv-x="219" d="M 385 1634 C 355 1527 325 1423 297 1321 C 285 1277 272 1232 259 1186 C 245 1139 232 1093 219 1047 C 206 1001 193 958 181 916 C 169 874 157 835 147 801 C 137 769 126 732 114 692 C 102 652 91 610 79 567 C 67 523 54 479 42 434 C 30 389 18 346 7 304 C -19 205 -46 104 -74 0 L -170 0 C -139 112 -109 221 -79 327 C -66 372 -53 419 -39 468 C -25 516 -12 564 1 611 C 15 658 28 703 41 747 C 53 791 65 830 76 866 C 85 897 95 932 107 971 C 118 1009 130 1049 142 1091 C 154 1133 165 1175 177 1219 C 189 1262 200 1304 212 1344 C 238 1438 264 1535 291 1634 L 385 1634 Z" unicode="∕" />
<glyph horiz-adv-x="270" d="M 227 1456 L 227 1208 L 49 1208 L 49 1470 L 162 1640 L 242 1604 L 180 1466 L 182 1456 L 227 1456 Z" unicode="‘" />
<glyph horiz-adv-x="270" d="M 49 1386 L 49 1636 L 225 1636 L 225 1372 L 113 1202 L 35 1241 L 94 1376 L 92 1386 L 49 1386 Z" unicode="’" />
<glyph horiz-adv-x="270" d="M 49 0 L 49 248 L 225 248 L 225 -14 L 113 -186 L 35 -147 L 94 -10 L 92 0 L 49 0 Z" unicode="‚" />
<glyph horiz-adv-x="510" d="M 461 1454 L 461 1208 L 289 1208 L 289 1468 L 401 1640 L 477 1604 L 416 1462 L 418 1454 L 461 1454 Z M 225 1454 L 225 1208 L 55 1208 L 55 1468 L 168 1640 L 244 1604 L 182 1462 L 184 1454 L 225 1454 Z" unicode="“" />
<glyph horiz-adv-x="510" d="M 291 1391 L 291 1636 L 463 1636 L 463 1374 L 348 1202 L 274 1241 L 334 1378 L 332 1391 L 291 1391 Z M 55 1391 L 55 1636 L 227 1636 L 227 1374 L 115 1202 L 39 1241 L 100 1378 L 98 1391 L 55 1391 Z" unicode="”" />
<glyph horiz-adv-x="510" d="M 291 0 L 291 246 L 463 246 L 463 -14 L 348 -188 L 274 -150 L 334 -10 L 332 0 L 291 0 Z M 55 0 L 55 246 L 227 246 L 227 -14 L 115 -188 L 39 -150 L 100 -10 L 98 0 L 55 0 Z" unicode="„" />
<glyph horiz-adv-x="295" d="" unicode=" " />
<glyph horiz-adv-x="334" d="M 244 1634 L 229 371 L 106 371 L 90 1634 L 244 1634 Z M 244 0 L 90 0 L 90 262 L 244 262 L 244 0 Z" unicode="!" />
<glyph horiz-adv-x="471" d="M 428 1634 L 424 1044 L 291 1044 L 285 1634 L 428 1634 Z M 182 1634 L 176 1044 L 47 1044 L 41 1634 L 182 1634 Z" unicode="&#x22;" />
<glyph horiz-adv-x="688" d="M 670 993 L 659 874 L 514 874 C 513 872 512 868 512 862 C 511 856 510 849 509 841 C 508 833 507 823 506 813 C 504 803 503 793 503 783 C 500 759 498 732 496 702 L 645 702 L 637 582 L 485 582 L 426 -12 L 330 -12 L 387 582 L 254 582 L 197 -12 L 100 -12 L 156 582 L 14 582 L 23 702 L 168 702 C 170 732 172 759 175 783 C 175 793 176 803 178 813 C 179 823 180 833 181 841 C 182 849 183 856 184 862 C 184 868 185 872 186 874 L 37 874 L 45 993 L 199 993 C 199 995 200 1005 202 1021 C 204 1037 206 1058 209 1084 C 211 1110 214 1138 217 1170 C 220 1201 223 1233 227 1266 C 234 1342 242 1428 252 1524 L 350 1524 L 297 993 L 430 993 C 430 995 431 1005 433 1021 C 435 1037 437 1058 439 1084 C 441 1110 444 1138 447 1170 C 449 1201 452 1233 456 1266 C 463 1342 471 1428 479 1524 L 580 1524 C 570 1428 561 1342 554 1266 C 550 1233 547 1201 544 1170 C 541 1138 538 1110 536 1084 C 533 1058 531 1037 529 1021 C 527 1005 526 995 526 993 L 670 993 Z M 418 874 L 285 874 L 266 702 L 397 702 C 400 732 403 759 406 783 C 407 793 408 803 410 813 C 411 823 412 833 413 841 C 414 849 415 856 416 862 C 416 868 417 872 418 874 Z" unicode="#" />
<glyph horiz-adv-x="651" d="M 283 16 C 206 24 147 50 105 94 C 63 137 39 197 33 274 C 32 282 31 292 31 305 C 31 318 30 332 30 347 C 30 361 29 377 29 393 C 29 409 29 424 29 438 L 170 438 C 170 428 170 416 170 402 C 170 388 170 375 170 361 C 170 347 170 333 170 321 C 170 309 171 299 172 291 C 180 211 217 166 283 154 L 283 791 C 237 835 199 876 168 914 C 136 951 111 989 91 1027 C 71 1065 57 1107 48 1151 C 39 1195 35 1245 35 1303 C 35 1345 39 1385 48 1421 C 56 1457 70 1488 90 1514 C 110 1540 135 1562 167 1579 C 198 1595 237 1606 283 1610 L 283 1651 L 373 1651 L 373 1610 C 412 1605 446 1595 474 1580 C 502 1565 525 1545 544 1521 C 562 1496 576 1467 586 1434 C 596 1400 602 1363 606 1323 C 608 1303 609 1280 610 1252 C 611 1224 612 1194 612 1163 L 469 1163 C 470 1197 470 1227 470 1254 C 469 1281 468 1302 467 1317 C 463 1356 455 1388 441 1412 C 427 1436 405 1452 373 1460 L 373 897 C 415 855 451 818 482 784 C 513 750 539 714 560 676 C 580 638 596 595 606 549 C 616 503 621 447 621 383 C 621 321 615 269 603 225 C 591 181 575 144 553 115 C 531 86 505 64 475 48 C 445 32 411 22 373 18 L 373 -84 L 283 -84 L 283 16 Z M 283 1464 C 243 1456 214 1439 196 1412 C 178 1385 170 1344 170 1290 C 170 1258 172 1229 176 1204 C 180 1178 187 1154 196 1132 C 205 1110 217 1088 231 1067 C 245 1045 263 1023 283 999 L 283 1464 Z M 373 158 C 408 168 435 188 453 220 C 471 251 481 298 481 360 C 481 394 479 425 477 453 C 475 481 470 508 462 534 C 454 560 443 585 429 610 C 415 634 396 660 373 688 L 373 158 Z" unicode="$" />
<glyph horiz-adv-x="1024" d="M 479 1090 C 479 1047 474 1009 465 975 C 455 941 441 912 423 888 C 404 864 381 846 353 834 C 325 821 292 815 256 815 C 217 815 184 821 157 835 C 129 848 107 867 89 891 C 71 915 59 943 51 977 C 43 1011 39 1048 39 1090 L 39 1378 C 39 1418 43 1454 52 1488 C 60 1521 73 1550 91 1574 C 109 1598 131 1617 159 1631 C 187 1644 220 1651 258 1651 C 299 1651 334 1643 362 1629 C 390 1614 413 1594 431 1570 C 448 1545 460 1516 468 1483 C 475 1449 479 1414 479 1378 L 479 1090 Z M 821 1569 L 268 0 L 178 0 L 731 1569 L 821 1569 Z M 985 260 C 985 172 967 105 931 57 C 895 9 838 -14 760 -14 C 721 -14 688 -7 661 5 C 633 18 611 37 593 61 C 575 85 563 113 555 147 C 547 181 543 218 543 260 L 543 547 C 543 586 547 622 556 656 C 564 690 578 719 596 743 C 614 767 637 786 665 800 C 693 814 726 821 764 821 C 804 821 839 813 867 798 C 895 783 918 763 936 738 C 953 713 965 684 973 651 C 981 617 985 583 985 547 L 985 260 Z M 367 1090 L 367 1397 C 367 1438 357 1470 337 1494 C 317 1518 291 1530 258 1530 C 187 1530 152 1485 152 1397 L 152 1094 C 152 1039 161 999 179 973 C 197 947 224 934 258 934 C 330 934 367 986 367 1090 Z M 872 262 L 872 565 C 872 606 862 639 843 663 C 824 687 798 700 764 700 C 728 700 700 688 682 665 C 664 641 655 608 655 565 L 655 262 C 655 210 664 170 683 144 C 701 117 728 104 764 104 C 802 104 829 116 846 142 C 863 168 872 208 872 262 Z" unicode="%" />
<glyph horiz-adv-x="825" d="M 358 850 C 384 790 414 723 448 651 C 482 578 519 503 561 426 C 571 468 580 517 588 573 C 596 629 600 690 602 754 L 737 754 C 737 647 729 554 714 475 C 698 395 679 327 657 270 C 681 226 706 182 733 137 C 759 91 786 46 813 0 L 641 0 C 629 21 618 42 607 63 C 595 83 584 103 573 123 C 558 99 541 78 522 61 C 502 44 482 30 460 19 C 438 8 416 0 393 -4 C 369 -9 346 -12 324 -12 C 260 -12 209 -3 170 15 C 130 33 100 59 78 93 C 56 127 42 169 34 219 C 26 269 23 325 23 389 C 23 447 27 498 36 542 C 45 586 57 627 73 664 C 88 701 106 736 128 768 C 149 800 172 834 197 868 C 177 912 161 952 149 988 C 137 1024 127 1059 120 1093 C 112 1127 107 1162 104 1198 C 101 1234 100 1275 100 1321 C 100 1430 118 1511 156 1563 C 193 1615 254 1642 338 1642 C 412 1642 466 1617 501 1567 C 535 1517 553 1445 553 1350 C 553 1294 547 1243 537 1197 C 526 1151 512 1108 494 1068 C 476 1028 455 991 432 956 C 408 920 384 885 358 850 Z M 295 985 C 311 1007 326 1031 341 1057 C 356 1082 370 1109 382 1138 C 394 1167 403 1198 411 1232 C 418 1265 422 1301 422 1341 C 422 1400 414 1441 398 1464 C 382 1487 360 1499 334 1499 C 312 1499 295 1495 282 1487 C 269 1479 259 1468 252 1453 C 244 1437 239 1418 237 1396 C 234 1374 233 1348 233 1319 C 233 1285 234 1255 236 1228 C 238 1200 242 1174 247 1149 C 252 1123 258 1097 266 1071 C 274 1045 283 1016 295 985 Z M 264 735 C 244 705 228 677 215 649 C 202 621 191 594 183 566 C 175 538 169 509 165 479 C 161 449 160 418 160 385 C 160 333 163 291 171 258 C 178 225 189 199 203 180 C 217 160 234 147 254 139 C 274 131 296 127 322 127 C 336 127 350 128 365 130 C 379 132 394 138 409 146 C 424 154 439 166 454 182 C 468 198 482 220 496 248 C 448 338 404 424 366 506 C 327 588 293 664 264 735 Z" unicode="&#x26;" />
<glyph horiz-adv-x="301" d="M 223 1634 L 215 1028 L 82 1028 L 76 1634 L 223 1634 Z" unicode="'" />
<glyph horiz-adv-x="360" d="M 352 -143 L 205 -143 C 185 -97 165 -42 145 22 C 125 87 106 158 90 236 C 74 313 60 395 50 482 C 40 569 35 658 35 748 C 35 836 40 925 52 1013 C 63 1101 77 1184 94 1262 C 111 1340 129 1411 149 1475 C 169 1539 187 1592 205 1634 L 352 1634 C 340 1603 327 1567 314 1527 C 301 1486 288 1442 276 1395 C 263 1347 251 1297 240 1244 C 228 1190 218 1136 210 1080 C 201 1024 194 968 189 911 C 184 854 182 798 182 743 C 182 659 187 574 197 490 C 207 406 221 325 237 248 C 253 170 271 98 291 31 C 311 -36 332 -94 352 -143 Z" unicode="(" />
<glyph horiz-adv-x="360" d="M 334 748 C 334 658 328 569 318 483 C 308 396 294 314 278 237 C 262 159 243 88 223 23 C 203 -41 183 -97 164 -143 L 16 -143 C 36 -94 56 -36 76 31 C 96 98 115 170 131 248 C 147 325 160 406 170 490 C 180 574 186 659 186 743 C 186 798 183 854 178 911 C 173 968 166 1024 158 1080 C 149 1136 139 1190 128 1244 C 116 1297 104 1347 92 1395 C 79 1442 66 1486 53 1527 C 40 1567 28 1603 16 1634 L 164 1634 C 180 1592 199 1539 219 1475 C 239 1411 257 1340 274 1262 C 291 1184 305 1101 317 1013 C 328 925 334 836 334 748 Z" unicode=")" />
<glyph horiz-adv-x="694" d="M 395 1405 L 586 1495 L 625 1391 L 420 1298 L 578 1128 L 496 1057 L 346 1231 L 197 1057 L 115 1130 L 270 1298 L 66 1391 L 102 1495 L 297 1405 L 295 1640 L 397 1640 L 395 1405 Z" unicode="*" />
<glyph horiz-adv-x="610" d="M 584 741 L 371 741 L 371 494 L 238 494 L 238 741 L 25 741 L 25 874 L 238 874 L 238 1116 L 373 1116 L 373 874 L 584 874 L 584 741 Z" unicode="+" />
<glyph horiz-adv-x="371" d="M 272 -4 L 164 -188 L 78 -162 L 150 -8 L 145 0 L 96 0 L 96 268 L 272 268 L 272 -4 Z" unicode="," />
<glyph horiz-adv-x="500" d="M 483 737 L 16 737 L 16 887 L 483 887 L 483 737 Z" unicode="-" />
<glyph horiz-adv-x="371" d="M 276 0 L 92 0 L 92 268 L 276 268 L 276 0 Z" unicode="." />
<glyph horiz-adv-x="340" d="M 352 1636 L 49 -328 L -45 -328 L 256 1636 L 352 1636 Z" unicode="/" />
<glyph horiz-adv-x="672" d="M 338 1645 C 383 1645 422 1637 456 1623 C 489 1609 517 1589 539 1564 C 561 1538 579 1509 591 1475 C 603 1441 610 1404 614 1366 C 617 1320 619 1272 621 1223 C 623 1174 624 1126 625 1078 C 626 1030 627 985 627 941 C 627 897 627 858 627 823 C 627 791 626 751 626 704 C 625 657 624 609 623 559 C 621 509 620 460 618 413 C 616 365 613 325 610 291 C 600 185 573 108 529 60 C 484 12 420 -12 338 -12 C 294 -12 256 -6 224 5 C 192 17 165 35 143 60 C 121 84 103 116 90 154 C 77 192 68 238 63 291 C 61 307 59 327 58 353 C 56 379 55 407 54 439 C 53 470 52 503 51 537 C 50 571 49 606 49 640 C 48 674 47 706 47 737 C 47 767 47 795 47 819 C 47 859 47 904 47 954 C 47 1004 47 1053 47 1103 C 47 1152 48 1199 50 1245 C 51 1291 53 1330 57 1364 C 60 1402 68 1439 80 1473 C 92 1507 110 1537 133 1563 C 155 1588 183 1608 217 1623 C 251 1637 291 1645 338 1645 Z M 477 823 C 477 870 476 920 476 974 C 476 1028 475 1079 475 1129 C 475 1179 474 1224 473 1264 C 472 1304 471 1335 471 1356 C 467 1403 455 1440 433 1467 C 411 1493 379 1507 336 1507 C 312 1507 293 1503 277 1496 C 261 1488 248 1478 238 1464 C 228 1450 220 1434 215 1416 C 209 1398 206 1378 205 1356 C 201 1310 199 1263 198 1214 C 196 1165 195 1117 195 1069 C 195 1021 195 976 195 933 C 195 889 195 851 195 819 C 195 787 195 748 196 701 C 196 653 197 604 198 552 C 199 500 201 450 203 400 C 205 350 207 306 211 270 C 215 224 226 187 246 161 C 266 134 296 121 338 121 C 380 121 410 133 428 159 C 446 184 457 220 461 268 C 469 377 474 477 475 568 C 476 659 477 744 477 823 Z" unicode="0" />
<glyph horiz-adv-x="469" d="M 385 0 L 236 0 L 236 1403 L 27 1382 L 27 1507 C 66 1513 100 1520 128 1528 C 156 1536 181 1545 201 1556 C 221 1567 237 1579 250 1592 C 263 1605 274 1620 283 1636 L 385 1636 L 385 0 Z" unicode="1" />
<glyph horiz-adv-x="641" d="M 604 0 L 33 0 L 33 143 C 51 196 74 249 102 303 C 129 356 158 410 188 464 C 218 518 249 574 279 630 C 309 686 336 744 360 803 C 384 861 405 922 421 984 C 437 1046 447 1111 449 1178 L 449 1348 C 449 1404 437 1444 414 1467 C 391 1489 359 1501 317 1501 C 275 1501 242 1489 220 1467 C 198 1445 186 1410 184 1362 L 184 1147 L 39 1147 L 39 1370 C 40 1409 47 1445 59 1479 C 71 1513 90 1542 114 1566 C 138 1590 168 1610 204 1624 C 240 1638 282 1645 330 1645 C 378 1645 419 1638 453 1624 C 486 1610 513 1592 534 1568 C 554 1544 569 1516 579 1484 C 589 1452 595 1417 598 1380 C 598 1374 599 1360 599 1340 C 599 1320 599 1298 599 1275 C 599 1251 599 1229 599 1207 C 599 1185 598 1171 598 1163 C 596 1097 586 1032 570 969 C 554 906 533 845 508 785 C 483 725 455 667 425 611 C 395 554 365 499 335 446 C 305 392 278 340 252 290 C 226 239 204 190 188 143 L 604 143 L 604 0 Z" unicode="2" />
<glyph horiz-adv-x="637" d="M 385 879 C 445 872 494 850 532 812 C 570 774 592 720 598 649 C 600 623 601 592 602 556 C 603 520 604 483 604 445 C 604 407 603 370 603 336 C 602 301 601 272 600 250 C 592 165 563 100 513 55 C 463 10 394 -12 307 -12 C 220 -12 155 7 111 47 C 67 87 42 142 35 213 C 31 243 29 273 28 304 C 26 334 25 362 24 387 C 23 412 23 433 23 450 C 23 467 23 477 23 481 L 168 481 C 168 478 168 467 168 448 C 168 428 169 405 170 379 C 170 353 171 325 173 297 C 174 269 176 245 178 225 C 181 188 194 162 216 146 C 238 130 267 123 305 123 C 349 123 383 134 407 156 C 431 178 444 210 446 252 C 449 303 451 359 453 421 C 454 482 453 549 449 623 C 445 675 430 714 404 740 C 378 766 336 782 279 788 C 273 788 265 789 253 790 C 241 791 228 792 216 793 C 201 793 185 794 168 795 L 168 938 L 213 938 C 225 938 236 938 248 938 C 259 938 267 939 272 940 C 300 942 322 946 340 954 C 358 962 372 972 384 986 C 395 999 404 1016 410 1036 C 416 1056 421 1079 426 1106 C 427 1116 428 1129 430 1145 C 431 1161 432 1178 432 1198 C 432 1217 433 1237 433 1257 C 433 1277 433 1297 433 1315 C 433 1333 432 1349 432 1363 C 431 1377 430 1388 430 1395 C 424 1435 412 1463 393 1479 C 373 1495 346 1503 311 1503 C 273 1503 244 1492 224 1471 C 204 1450 192 1421 190 1384 C 188 1370 187 1352 187 1330 C 187 1308 186 1286 186 1264 C 186 1242 186 1222 186 1205 C 186 1188 186 1178 186 1176 L 47 1176 C 47 1178 47 1185 47 1195 C 47 1205 47 1218 47 1232 C 47 1246 48 1262 48 1279 C 48 1296 49 1313 49 1329 C 49 1345 50 1359 51 1373 C 51 1386 52 1397 53 1405 C 56 1440 64 1472 77 1502 C 89 1531 107 1556 129 1578 C 151 1599 177 1615 208 1627 C 239 1639 275 1645 315 1645 C 359 1645 396 1639 428 1628 C 459 1616 485 1600 506 1579 C 526 1558 542 1533 552 1503 C 562 1473 569 1439 573 1403 C 574 1389 575 1369 576 1344 C 576 1319 576 1293 576 1266 C 576 1238 575 1212 575 1186 C 574 1160 573 1138 571 1122 C 567 1090 561 1060 553 1032 C 544 1004 532 979 517 957 C 502 935 484 918 462 904 C 440 890 414 882 385 879 Z" unicode="3" />
<glyph horiz-adv-x="674" d="M 666 399 L 539 399 L 539 0 L 397 0 L 397 399 L 18 399 L 18 549 L 365 1636 L 539 1636 L 539 532 L 666 532 L 666 399 Z M 397 532 L 397 1343 L 145 532 L 397 532 Z" unicode="4" />
<glyph horiz-adv-x="641" d="M 602 240 C 600 204 592 170 579 140 C 566 109 548 82 524 60 C 500 37 470 19 436 7 C 402 -5 363 -12 319 -12 C 229 -12 162 11 116 57 C 70 103 45 166 41 248 C 39 271 38 289 38 303 C 38 317 38 330 38 342 C 38 354 38 367 38 381 C 38 395 39 415 39 440 L 184 440 C 184 434 184 424 184 408 C 184 392 184 375 184 357 C 184 339 184 321 184 305 C 184 288 185 276 186 270 C 189 224 201 188 221 162 C 241 136 273 123 315 123 C 361 123 394 136 414 162 C 434 188 445 224 449 272 C 449 283 450 301 450 327 C 450 352 451 381 451 414 C 451 446 450 481 450 518 C 450 555 449 591 449 626 C 448 661 447 693 447 723 C 446 752 445 775 444 793 C 442 837 431 869 411 891 C 391 913 364 924 328 924 C 312 924 297 922 283 918 C 269 914 255 906 243 896 C 231 886 220 872 212 854 C 203 836 197 814 195 786 L 55 786 L 59 1634 L 571 1634 L 571 1489 L 193 1489 L 190 971 C 203 1001 225 1025 257 1042 C 288 1058 325 1067 369 1067 C 439 1067 494 1047 534 1007 C 574 967 596 912 602 840 C 603 818 604 792 605 761 C 606 729 607 695 607 659 C 607 622 608 584 608 544 C 608 504 607 466 607 429 C 607 391 606 356 605 324 C 604 291 603 263 602 240 Z" unicode="5" />
<glyph horiz-adv-x="659" d="M 604 211 C 598 179 588 150 576 123 C 563 96 546 73 525 53 C 504 33 478 17 448 5 C 418 -6 382 -12 340 -12 C 262 -12 201 7 156 46 C 110 84 81 146 68 231 C 64 253 61 279 59 310 C 57 340 55 373 54 409 C 52 444 51 480 51 518 C 50 555 49 592 49 628 C 49 664 49 699 49 732 C 49 764 49 793 49 819 C 49 857 49 901 49 952 C 49 1002 50 1053 51 1103 C 52 1153 53 1199 55 1241 C 56 1283 57 1314 59 1335 C 63 1383 71 1426 83 1464 C 95 1502 113 1534 135 1561 C 157 1588 184 1609 217 1623 C 249 1637 288 1645 334 1645 C 378 1645 417 1639 449 1627 C 481 1615 507 1598 528 1578 C 549 1557 565 1533 577 1505 C 589 1477 596 1447 600 1415 C 601 1403 602 1388 603 1372 C 603 1355 604 1338 604 1321 C 604 1303 604 1287 604 1272 C 604 1256 604 1245 604 1237 L 463 1237 C 463 1245 463 1254 463 1265 C 463 1276 463 1287 463 1299 C 463 1310 462 1320 462 1330 C 462 1340 461 1347 461 1352 C 459 1376 455 1397 451 1416 C 446 1434 439 1450 429 1463 C 419 1476 407 1486 392 1493 C 376 1499 357 1503 334 1503 C 286 1503 253 1487 234 1456 C 215 1424 204 1379 201 1321 C 199 1279 197 1234 196 1188 C 195 1142 194 1098 194 1058 C 193 1017 193 981 193 951 C 193 920 193 899 193 889 C 213 929 241 958 279 974 C 316 990 358 999 406 999 C 433 999 458 994 482 986 C 506 977 526 964 544 947 C 562 930 576 909 587 885 C 597 861 604 833 606 801 C 608 771 609 737 611 701 C 613 665 614 627 615 589 C 616 551 617 512 617 474 C 617 436 617 400 616 366 C 615 332 614 302 612 275 C 610 248 607 227 604 211 Z M 465 250 C 465 260 466 277 467 302 C 468 326 469 355 469 388 C 469 420 470 455 470 492 C 470 528 469 564 469 598 C 469 632 468 663 468 691 C 467 719 466 742 465 758 C 461 790 450 815 431 835 C 412 854 383 864 344 864 C 298 864 262 851 238 826 C 213 800 198 769 193 731 C 193 715 193 693 193 667 C 193 640 193 611 193 579 C 193 547 193 513 193 479 C 193 445 194 412 194 382 C 194 351 195 323 196 299 C 197 274 199 256 201 244 C 207 198 222 166 246 148 C 270 130 300 121 338 121 C 374 121 402 130 424 149 C 446 168 459 202 465 250 Z" unicode="6" />
<glyph horiz-adv-x="561" d="M 555 1499 L 240 0 L 94 0 L 414 1491 L 8 1491 L 8 1634 L 555 1634 L 555 1499 Z" unicode="7" />
<glyph horiz-adv-x="657" d="M 612 238 C 600 156 571 94 525 52 C 479 9 412 -12 326 -12 C 280 -12 240 -6 206 6 C 172 18 143 35 120 57 C 96 79 78 105 65 136 C 52 166 44 200 41 238 C 39 248 38 264 38 286 C 37 308 36 334 36 364 C 35 393 35 424 35 458 C 35 491 35 524 36 556 C 36 588 37 618 38 646 C 39 674 41 698 43 717 C 45 743 52 767 62 788 C 72 808 83 826 97 841 C 111 855 125 867 140 876 C 155 885 170 891 184 895 C 171 899 158 906 146 915 C 133 924 121 936 111 951 C 101 966 92 984 84 1006 C 76 1027 70 1053 68 1083 C 66 1104 64 1132 63 1166 C 61 1200 61 1234 61 1269 C 61 1304 61 1337 63 1367 C 64 1397 66 1418 68 1432 C 78 1497 103 1549 145 1587 C 186 1625 246 1645 326 1645 C 405 1645 466 1626 508 1589 C 550 1551 576 1500 586 1436 C 587 1426 588 1412 589 1394 C 590 1376 591 1355 591 1333 C 591 1310 592 1286 592 1262 C 592 1237 591 1213 591 1191 C 591 1168 590 1147 590 1128 C 589 1109 588 1095 588 1085 C 582 1035 568 993 545 960 C 521 927 495 906 465 897 C 500 889 531 869 559 837 C 587 805 604 764 612 713 C 614 697 615 677 617 651 C 618 625 619 596 620 565 C 620 533 621 501 621 467 C 621 433 620 401 620 371 C 619 341 618 314 617 290 C 615 266 614 249 612 238 Z M 442 1047 C 442 1069 443 1096 444 1130 C 445 1164 446 1198 446 1234 C 446 1269 445 1302 445 1334 C 445 1366 444 1391 442 1409 C 440 1439 427 1464 405 1482 C 383 1500 356 1509 324 1509 C 294 1509 269 1500 248 1483 C 227 1466 215 1442 211 1411 C 209 1393 207 1369 206 1337 C 205 1305 205 1272 205 1236 C 205 1200 205 1166 206 1132 C 206 1098 207 1070 209 1049 C 211 1019 223 996 245 980 C 267 964 294 956 326 956 C 340 956 353 958 367 962 C 381 966 393 971 404 979 C 415 987 424 996 431 1008 C 437 1019 441 1032 442 1047 Z M 461 233 C 462 248 463 269 465 295 C 467 321 468 349 469 380 C 470 411 471 443 471 477 C 471 511 471 543 471 574 C 471 604 470 632 469 657 C 468 681 467 700 465 713 C 459 749 443 776 418 794 C 393 812 362 821 326 821 C 290 821 259 812 233 794 C 206 776 190 748 186 711 C 184 697 183 677 182 652 C 181 626 180 598 180 567 C 180 535 180 503 180 469 C 180 435 180 402 181 372 C 181 342 182 315 183 291 C 184 267 186 250 188 240 C 193 204 207 174 231 152 C 255 130 286 119 326 119 C 364 119 395 129 419 150 C 443 170 457 198 461 233 Z" unicode="8" />
<glyph horiz-adv-x="659" d="M 602 268 C 592 174 564 104 518 58 C 471 11 403 -12 313 -12 C 242 -12 184 7 139 45 C 94 83 68 137 61 207 C 59 219 58 234 58 252 C 57 270 56 288 56 306 C 56 324 55 340 55 356 C 55 371 55 383 55 391 L 197 391 L 197 260 C 198 232 202 210 208 193 C 214 175 223 161 234 151 C 245 140 258 133 274 129 C 290 125 308 123 328 123 C 367 123 398 135 421 160 C 444 184 457 220 461 268 C 461 281 462 300 462 326 C 462 352 463 380 463 412 C 463 444 464 476 464 510 C 464 544 464 575 464 605 C 464 634 464 659 464 681 C 464 703 464 717 465 725 C 457 708 446 694 432 682 C 418 670 403 661 387 653 C 370 645 352 640 333 636 C 313 632 294 631 274 631 C 244 631 217 634 192 642 C 167 649 145 660 126 674 C 107 688 91 707 79 729 C 67 751 59 777 55 807 C 51 829 49 858 47 892 C 45 926 44 962 44 1001 C 43 1040 43 1080 44 1122 C 44 1163 45 1203 46 1241 C 47 1279 48 1313 50 1345 C 52 1377 54 1403 57 1423 C 61 1456 69 1486 83 1514 C 97 1541 115 1564 138 1584 C 161 1603 189 1618 221 1629 C 253 1639 288 1645 328 1645 C 400 1645 458 1627 501 1593 C 544 1559 575 1504 594 1430 C 597 1416 600 1395 602 1369 C 604 1342 606 1312 608 1278 C 609 1244 610 1208 610 1170 C 610 1131 611 1093 611 1055 C 611 1017 612 981 612 947 C 612 912 612 882 612 856 C 612 831 612 801 612 766 C 612 731 611 694 611 655 C 611 616 610 577 610 537 C 609 497 608 459 608 424 C 607 388 606 357 605 329 C 604 301 603 281 602 268 Z M 465 877 C 464 892 464 914 464 942 C 464 970 463 1002 463 1036 C 463 1070 462 1105 462 1141 C 462 1177 461 1211 461 1243 C 461 1275 460 1302 459 1326 C 458 1350 457 1366 457 1376 C 453 1421 439 1454 417 1475 C 395 1496 364 1507 326 1507 C 288 1507 257 1496 235 1475 C 213 1454 200 1423 197 1382 C 195 1372 194 1354 194 1328 C 193 1302 192 1271 192 1237 C 191 1203 190 1166 190 1128 C 190 1090 190 1054 190 1020 C 190 986 191 956 192 930 C 192 904 193 886 195 877 C 201 804 242 768 319 768 C 339 768 358 771 375 777 C 391 783 406 791 418 801 C 430 811 440 822 448 835 C 456 848 461 862 465 877 Z" unicode="9" />
<glyph horiz-adv-x="352" d="M 268 784 L 100 784 L 100 1040 L 268 1040 L 268 784 Z M 268 0 L 100 0 L 100 256 L 268 256 L 268 0 Z" unicode=":" />
<glyph horiz-adv-x="352" d="M 268 784 L 100 784 L 100 1040 L 268 1040 L 268 784 Z M 268 -2 L 160 -188 L 82 -154 L 150 -6 L 145 0 L 100 0 L 100 258 L 268 258 L 268 -2 Z" unicode=";" />
<glyph horiz-adv-x="748" d="M 696 606 L 696 461 L 41 713 L 41 860 L 696 1110 L 696 961 L 182 788 L 696 606 Z" unicode="&#x3C;" />
<glyph horiz-adv-x="606" d="M 578 874 L 31 874 L 31 1008 L 578 1008 L 578 874 Z M 578 598 L 31 598 L 31 733 L 578 733 L 578 598 Z" unicode="=" />
<glyph horiz-adv-x="748" d="M 43 461 L 43 606 L 557 786 L 43 961 L 43 1110 L 698 860 L 698 713 L 43 461 Z" unicode="&#x3E;" />
<glyph horiz-adv-x="608" d="M 567 1208 C 565 1162 557 1121 545 1083 C 532 1045 517 1008 499 972 C 481 936 462 898 442 860 C 422 821 403 778 387 732 C 370 685 356 632 346 574 C 335 515 330 447 332 371 L 209 371 C 206 456 209 530 218 592 C 227 654 239 710 254 758 C 269 806 286 848 304 886 C 322 923 340 959 356 995 C 372 1030 385 1066 397 1104 C 408 1141 414 1183 416 1231 C 416 1242 417 1254 417 1267 C 417 1279 418 1292 418 1305 C 418 1317 419 1329 419 1341 C 419 1353 418 1363 418 1372 C 416 1416 405 1449 387 1472 C 368 1495 336 1507 291 1507 C 253 1507 223 1495 202 1473 C 181 1450 170 1420 168 1382 C 167 1376 166 1366 166 1352 C 166 1337 166 1321 166 1305 C 166 1289 166 1273 166 1259 C 166 1245 166 1235 166 1231 L 29 1231 C 29 1247 29 1264 29 1283 C 29 1302 30 1320 31 1338 C 31 1356 32 1372 33 1386 C 33 1400 34 1411 35 1419 C 41 1491 66 1547 111 1586 C 155 1625 220 1645 305 1645 C 390 1645 454 1625 497 1586 C 539 1546 563 1485 567 1403 C 567 1389 568 1373 568 1356 C 568 1339 569 1322 569 1304 C 569 1286 568 1269 568 1252 C 568 1235 567 1220 567 1208 Z M 352 0 L 197 0 L 197 262 L 352 262 L 352 0 Z" unicode="?" />
<glyph horiz-adv-x="1348" d="M 1294 848 C 1286 774 1274 708 1258 650 C 1242 592 1221 542 1195 502 C 1169 461 1138 430 1102 409 C 1066 387 1026 377 981 377 C 931 377 893 391 866 420 C 839 449 825 486 823 532 C 795 480 758 442 713 417 C 668 391 617 379 559 379 C 519 379 483 386 452 401 C 420 415 395 437 375 467 C 355 497 341 534 333 579 C 325 624 324 677 330 739 C 336 807 349 869 369 925 C 389 981 414 1030 445 1070 C 475 1110 511 1141 553 1163 C 595 1185 642 1196 694 1196 C 741 1196 781 1183 815 1157 C 848 1131 871 1098 885 1059 L 911 1167 L 1020 1169 C 1018 1159 1015 1142 1011 1119 C 1007 1095 1001 1068 995 1038 C 989 1007 982 974 975 939 C 968 904 961 870 954 838 C 947 805 941 775 935 747 C 929 719 925 698 922 682 C 916 658 912 634 912 611 C 912 588 915 567 921 549 C 927 531 936 516 950 505 C 964 494 982 489 1004 489 C 1034 489 1060 498 1083 516 C 1106 534 1126 559 1143 591 C 1159 623 1173 662 1183 707 C 1193 751 1201 800 1206 854 C 1214 952 1212 1041 1198 1120 C 1184 1199 1158 1266 1121 1321 C 1084 1376 1036 1418 976 1448 C 916 1478 844 1493 762 1493 C 678 1493 600 1476 528 1443 C 456 1409 392 1362 338 1301 C 284 1240 239 1167 205 1081 C 171 995 149 899 141 795 C 129 659 133 544 153 450 C 172 356 203 279 245 220 C 287 161 339 118 401 92 C 462 66 529 53 602 53 C 646 53 688 56 727 64 C 765 71 801 81 834 94 C 867 106 898 121 926 139 C 954 156 981 175 1006 195 L 1049 127 C 1021 105 993 85 963 66 C 933 47 900 31 864 17 C 828 3 789 -8 746 -16 C 703 -24 655 -29 602 -29 C 514 -29 435 -13 363 18 C 291 49 231 98 182 164 C 133 230 97 314 74 417 C 51 520 45 644 55 788 C 63 908 87 1017 127 1114 C 167 1210 218 1292 282 1360 C 346 1427 419 1479 503 1515 C 586 1551 675 1569 770 1569 C 873 1569 960 1550 1031 1512 C 1102 1474 1159 1422 1201 1356 C 1243 1290 1271 1214 1286 1127 C 1300 1039 1303 946 1294 848 Z M 842 901 C 844 916 842 933 837 953 C 832 973 824 991 812 1009 C 800 1026 785 1041 767 1053 C 748 1065 726 1071 700 1071 C 670 1071 642 1065 616 1053 C 590 1041 566 1022 544 997 C 522 971 504 939 488 900 C 472 860 460 813 453 758 C 441 670 447 606 470 564 C 492 522 531 502 586 502 C 618 502 646 506 670 516 C 694 526 714 539 732 557 C 749 575 763 596 775 622 C 786 647 795 675 803 707 C 805 718 808 732 812 748 C 816 764 820 781 824 799 C 828 817 831 835 835 853 C 838 871 840 887 842 901 Z" unicode="@" />
<glyph horiz-adv-x="690" d="M 207 401 C 206 395 205 385 203 371 C 201 357 199 340 196 320 C 193 300 190 278 187 255 C 183 231 180 208 177 184 C 169 128 160 66 150 0 L 0 0 L 264 1634 L 461 1634 L 690 0 L 539 0 C 531 67 523 129 516 185 C 512 209 509 232 506 256 C 503 279 500 300 498 320 C 495 340 493 357 491 371 C 489 385 487 395 487 401 L 207 401 Z M 465 543 C 448 657 433 761 421 854 C 415 893 410 932 405 970 C 399 1008 395 1043 391 1074 C 387 1105 383 1131 381 1152 C 378 1173 377 1186 377 1190 C 377 1194 376 1201 376 1211 C 375 1221 374 1232 373 1246 C 372 1260 371 1275 370 1291 C 368 1307 367 1324 366 1340 C 363 1378 360 1420 356 1466 C 352 1420 348 1378 345 1341 C 343 1325 342 1309 340 1293 C 338 1277 337 1262 336 1248 C 335 1234 334 1223 333 1213 C 332 1203 332 1196 332 1192 C 331 1186 329 1172 326 1151 C 323 1129 319 1103 315 1072 C 310 1040 305 1005 299 967 C 293 929 287 890 281 851 C 267 759 251 656 233 543 L 465 543 Z" unicode="A" />
<glyph horiz-adv-x="752" d="M 416 0 L 80 0 L 80 1634 L 434 1634 C 476 1634 512 1627 542 1613 C 572 1599 597 1577 617 1546 C 636 1515 650 1474 660 1423 C 669 1372 674 1309 674 1235 C 674 1185 672 1137 670 1091 C 668 1045 661 1003 651 966 C 641 929 625 899 604 875 C 583 851 554 838 518 834 C 552 830 580 819 603 802 C 626 785 645 761 659 729 C 673 697 684 657 690 610 C 696 562 700 507 700 444 C 700 362 695 293 686 237 C 676 181 661 135 639 100 C 617 64 587 39 551 23 C 515 7 470 0 416 0 Z M 518 1202 C 518 1263 515 1313 510 1351 C 505 1389 497 1419 487 1441 C 476 1462 462 1476 445 1484 C 428 1491 407 1495 383 1495 L 229 1495 L 229 891 L 414 891 C 430 891 445 895 458 903 C 471 911 482 927 491 950 C 499 972 506 1004 511 1044 C 515 1084 518 1137 518 1202 Z M 543 463 C 543 525 539 576 533 614 C 527 652 518 682 506 703 C 494 724 480 738 463 745 C 446 752 427 756 406 756 L 229 756 L 229 139 L 403 139 C 431 139 454 142 472 150 C 490 157 504 172 514 195 C 524 218 532 251 536 294 C 540 336 543 393 543 463 Z" unicode="B" />
<glyph horiz-adv-x="731" d="M 700 541 C 699 488 697 438 694 390 C 691 342 686 298 678 256 C 670 214 658 177 644 143 C 630 109 611 81 588 57 C 564 33 536 14 503 1 C 469 -11 429 -18 383 -18 C 333 -18 291 -12 256 -1 C 220 10 190 29 166 55 C 141 81 121 116 106 159 C 91 201 79 254 71 317 C 63 379 57 453 55 537 C 52 621 51 717 51 827 C 51 963 53 1081 58 1183 C 62 1285 75 1369 96 1437 C 117 1505 149 1555 193 1589 C 237 1623 298 1640 377 1640 C 452 1640 511 1625 554 1597 C 596 1568 628 1529 649 1479 C 670 1429 683 1371 688 1304 C 693 1237 696 1166 696 1090 L 545 1090 C 545 1159 543 1219 539 1270 C 535 1321 527 1363 515 1397 C 503 1430 487 1455 465 1471 C 443 1487 415 1495 379 1495 C 353 1495 331 1491 313 1484 C 295 1477 279 1465 267 1447 C 254 1429 244 1404 236 1372 C 228 1340 221 1300 217 1251 C 213 1201 210 1142 209 1072 C 207 1002 207 921 207 827 C 207 724 207 635 209 561 C 211 487 214 424 218 372 C 222 320 229 277 237 245 C 245 213 256 188 269 170 C 282 152 298 140 317 134 C 336 128 359 125 385 125 C 425 125 456 136 477 159 C 498 181 513 212 523 250 C 533 288 539 332 541 382 C 543 432 545 485 549 541 L 700 541 Z" unicode="C" />
<glyph horiz-adv-x="731" d="M 647 166 C 638 142 627 120 613 100 C 599 80 582 62 562 47 C 542 32 518 20 490 12 C 462 4 429 0 391 0 L 80 0 L 80 1634 L 367 1634 C 440 1634 501 1619 549 1589 C 597 1559 629 1521 645 1473 C 653 1445 660 1414 666 1378 C 672 1342 676 1299 679 1250 C 682 1200 684 1143 686 1078 C 687 1012 688 937 688 852 C 688 766 687 687 686 614 C 685 540 683 474 680 416 C 677 358 673 307 668 265 C 662 223 655 190 647 166 Z M 510 233 C 513 242 516 259 519 284 C 522 308 525 338 527 372 C 529 406 530 444 532 485 C 533 526 534 568 535 611 C 535 653 536 695 536 737 C 536 778 537 816 537 852 C 537 910 536 966 535 1021 C 533 1076 532 1126 530 1172 C 528 1218 525 1257 522 1291 C 519 1324 516 1348 514 1364 C 504 1406 486 1437 460 1458 C 433 1478 401 1489 365 1489 L 231 1489 L 231 137 L 383 137 C 413 137 439 144 459 159 C 479 174 496 199 510 233 Z" unicode="D" />
<glyph horiz-adv-x="633" d="M 608 0 L 80 0 L 80 1634 L 606 1634 L 606 1491 L 229 1491 L 229 897 L 575 897 L 575 754 L 229 754 L 229 143 L 608 143 L 608 0 Z" unicode="E" />
<glyph horiz-adv-x="621" d="M 604 1491 L 231 1491 L 231 897 L 582 897 L 582 754 L 231 754 L 231 0 L 80 0 L 80 1634 L 604 1634 L 604 1491 Z" unicode="F" />
<glyph horiz-adv-x="717" d="M 670 0 L 561 0 L 555 86 C 540 58 515 34 481 16 C 447 -2 404 -12 352 -12 C 286 -12 233 2 193 31 C 153 59 123 106 102 172 C 81 237 67 322 61 428 C 54 534 51 663 51 817 C 51 957 53 1079 59 1183 C 65 1286 78 1371 100 1439 C 122 1507 154 1557 196 1590 C 238 1623 295 1640 367 1640 C 433 1640 486 1627 526 1601 C 565 1575 595 1539 615 1493 C 635 1447 647 1391 653 1327 C 659 1263 662 1192 662 1116 L 512 1116 C 512 1186 510 1245 508 1293 C 505 1341 499 1380 489 1410 C 479 1440 464 1461 445 1475 C 426 1488 401 1495 369 1495 C 332 1495 303 1484 282 1464 C 260 1444 244 1408 233 1356 C 222 1304 215 1235 212 1147 C 208 1059 207 949 207 815 C 207 677 208 563 212 473 C 215 383 222 312 234 260 C 245 208 261 171 283 151 C 305 131 334 121 371 121 C 417 121 451 133 475 159 C 498 185 512 220 516 266 C 516 273 517 290 517 316 C 517 342 518 372 518 406 C 518 440 518 477 518 515 C 518 553 518 588 518 620 C 518 652 518 678 518 700 C 518 721 518 732 518 733 L 332 733 L 332 874 L 668 874 L 668 381 C 668 333 668 286 668 241 C 668 195 668 155 669 119 C 669 77 669 38 670 0 Z" unicode="G" />
<glyph horiz-adv-x="758" d="M 676 0 L 526 0 L 526 752 L 231 752 L 231 0 L 80 0 L 80 1634 L 231 1634 L 231 897 L 526 897 L 526 1634 L 676 1634 L 676 0 Z" unicode="H" />
<glyph horiz-adv-x="315" d="M 236 0 L 80 0 L 80 1634 L 236 1634 L 236 0 Z" unicode="I" />
<glyph horiz-adv-x="500" d="M 428 279 C 428 228 421 185 407 149 C 393 113 374 83 351 61 C 327 38 300 21 269 11 C 237 1 204 -4 170 -4 C 134 -4 104 -3 80 -1 C 55 0 33 2 14 6 L 14 143 C 46 139 87 137 137 137 C 163 137 184 141 202 148 C 220 155 234 165 245 178 C 255 191 263 207 267 226 C 271 244 274 265 274 289 L 274 1634 L 428 1634 L 428 279 Z" unicode="J" />
<glyph horiz-adv-x="715" d="M 721 0 L 559 0 L 285 760 L 231 657 L 231 0 L 80 0 L 80 1634 L 231 1634 L 231 909 L 561 1634 L 713 1634 L 395 920 L 721 0 Z" unicode="K" />
<glyph horiz-adv-x="614" d="M 600 0 L 80 0 L 80 1634 L 233 1634 L 233 141 L 600 141 L 600 0 Z" unicode="L" />
<glyph horiz-adv-x="977" d="M 899 0 L 760 0 L 760 1178 L 555 0 L 416 0 L 219 1176 L 219 0 L 80 0 L 80 1634 L 276 1634 L 487 373 L 709 1634 L 899 1634 L 899 0 Z" unicode="M" />
<glyph horiz-adv-x="752" d="M 672 0 L 504 0 L 219 1155 L 219 0 L 80 0 L 80 1634 L 250 1634 L 532 440 L 532 1634 L 672 1634 L 672 0 Z" unicode="N" />
<glyph horiz-adv-x="754" d="M 379 1640 C 426 1640 466 1634 500 1622 C 534 1610 563 1592 588 1569 C 616 1541 638 1504 654 1459 C 670 1413 681 1359 689 1296 C 697 1233 702 1161 704 1081 C 706 1000 707 910 707 811 C 707 711 706 620 704 540 C 702 459 697 387 689 325 C 681 263 669 209 653 164 C 637 118 614 81 586 53 C 562 29 534 12 500 0 C 466 -12 426 -18 379 -18 C 331 -18 290 -12 256 0 C 222 12 193 29 170 53 C 142 81 120 117 104 163 C 88 208 76 262 68 325 C 60 387 55 459 53 540 C 51 620 51 711 51 811 C 51 911 52 1001 54 1083 C 56 1164 61 1236 69 1299 C 77 1362 90 1416 106 1461 C 122 1506 145 1543 174 1571 C 197 1593 225 1610 259 1622 C 293 1634 333 1640 379 1640 Z M 379 125 C 404 125 426 128 444 136 C 462 144 478 157 491 177 C 503 196 513 222 521 255 C 529 288 535 330 539 381 C 543 431 546 492 548 563 C 550 633 551 716 551 811 C 551 905 550 988 549 1058 C 547 1128 544 1189 540 1240 C 536 1290 530 1332 522 1365 C 514 1398 504 1424 491 1443 C 478 1462 462 1475 444 1483 C 426 1491 404 1495 379 1495 C 353 1495 330 1491 312 1483 C 294 1475 278 1462 266 1443 C 253 1424 243 1398 235 1365 C 227 1332 221 1290 217 1240 C 213 1189 210 1128 209 1058 C 207 988 207 905 207 811 C 207 716 207 633 209 563 C 210 492 213 431 217 381 C 221 330 226 288 234 255 C 242 222 252 196 265 177 C 277 157 293 144 312 136 C 330 128 353 125 379 125 Z" unicode="O" />
<glyph horiz-adv-x="707" d="M 668 1147 C 668 1097 666 1053 664 1014 C 662 975 658 940 653 910 C 648 879 642 852 634 829 C 626 806 617 786 606 770 C 584 737 557 712 523 696 C 489 680 449 670 401 666 C 392 665 378 664 360 664 C 341 664 322 664 303 664 L 231 664 L 231 0 L 80 0 L 80 1634 L 408 1634 C 458 1634 498 1625 529 1607 C 560 1589 586 1562 608 1528 C 626 1498 641 1451 652 1389 C 662 1326 668 1245 668 1147 Z M 514 1143 C 514 1215 511 1275 505 1321 C 499 1367 491 1398 483 1415 C 469 1444 452 1464 434 1474 C 415 1484 394 1489 371 1489 L 231 1489 L 231 805 L 362 805 C 380 805 396 808 410 812 C 423 816 434 821 444 828 C 454 835 462 843 469 853 C 475 862 481 872 487 883 C 496 902 503 932 507 973 C 511 1014 514 1071 514 1143 Z" unicode="P" />
<glyph horiz-adv-x="754" d="M 547 27 C 554 20 561 13 568 6 C 575 0 585 -8 598 -18 C 613 -31 627 -43 641 -53 C 655 -63 667 -70 678 -74 L 590 -195 C 576 -186 559 -174 538 -158 C 516 -142 494 -123 471 -102 C 454 -86 438 -70 422 -54 C 406 -38 395 -24 387 -14 L 379 -14 C 331 -14 290 -8 256 4 C 222 16 193 33 170 57 C 142 85 120 121 104 166 C 88 210 76 264 68 326 C 60 388 55 460 53 540 C 51 620 51 711 51 811 C 51 911 52 1001 54 1083 C 56 1164 61 1236 69 1299 C 77 1362 90 1416 106 1461 C 122 1506 145 1543 174 1571 C 197 1593 225 1610 259 1622 C 293 1634 333 1640 379 1640 C 426 1640 466 1634 500 1622 C 534 1610 563 1592 588 1569 C 616 1541 638 1504 654 1459 C 670 1413 681 1359 689 1296 C 697 1233 702 1161 704 1081 C 706 1000 707 910 707 811 C 707 711 706 621 704 541 C 702 461 697 389 689 327 C 681 265 669 211 653 167 C 637 122 614 85 586 57 C 579 51 573 45 567 40 C 561 35 554 31 547 27 Z M 379 123 C 404 123 426 126 444 134 C 462 142 478 155 491 175 C 503 195 513 221 521 254 C 529 287 535 329 539 380 C 543 431 546 492 548 563 C 550 633 551 716 551 811 C 551 905 550 988 549 1058 C 547 1128 544 1189 540 1240 C 536 1290 530 1332 522 1365 C 514 1398 504 1424 491 1443 C 478 1462 462 1475 444 1483 C 426 1491 404 1495 379 1495 C 353 1495 330 1491 312 1483 C 294 1475 278 1462 266 1443 C 253 1424 243 1398 235 1365 C 227 1332 221 1290 217 1240 C 213 1189 210 1128 209 1058 C 207 988 207 905 207 811 C 207 716 207 633 209 563 C 210 492 213 431 217 380 C 221 329 226 287 234 254 C 242 221 252 195 265 175 C 277 155 293 142 312 134 C 330 126 353 123 379 123 Z" unicode="Q" />
<glyph horiz-adv-x="723" d="M 655 1188 C 655 1122 652 1066 647 1022 C 642 978 634 941 623 911 C 617 898 611 885 604 873 C 596 860 588 848 579 838 C 570 828 561 819 551 812 C 541 804 532 799 522 797 L 707 0 L 545 0 L 379 756 L 227 754 L 227 0 L 80 0 L 80 1634 L 399 1634 C 465 1634 516 1618 552 1588 C 588 1557 614 1514 631 1460 C 639 1434 645 1399 649 1353 C 653 1307 655 1252 655 1188 Z M 500 1167 C 500 1186 499 1207 499 1230 C 498 1253 497 1275 496 1296 C 495 1317 494 1336 493 1352 C 491 1368 490 1378 489 1384 C 483 1416 472 1442 454 1462 C 436 1482 411 1493 381 1493 L 229 1493 L 229 893 C 229 893 237 893 253 893 C 269 893 286 893 306 893 C 326 893 344 893 362 893 C 379 893 389 894 393 895 C 416 897 435 904 449 916 C 463 928 473 943 479 961 C 483 969 486 982 489 999 C 491 1016 493 1034 495 1054 C 497 1074 498 1094 499 1114 C 499 1134 500 1151 500 1167 Z" unicode="R" />
<glyph horiz-adv-x="680" d="M 643 334 C 643 216 615 128 561 71 C 507 14 430 -14 332 -14 C 286 -14 246 -8 211 3 C 176 15 146 31 122 52 C 97 72 78 97 64 126 C 50 155 41 187 39 221 C 37 241 36 263 35 287 C 34 311 33 333 33 355 C 33 376 33 394 33 410 C 33 425 33 434 33 438 L 178 438 C 178 432 178 423 178 410 C 178 397 178 382 178 365 C 178 347 179 329 180 309 C 181 289 182 270 184 252 C 188 204 204 171 231 151 C 258 131 294 121 338 121 C 388 121 426 136 452 167 C 478 197 492 248 492 319 C 492 381 485 436 473 484 C 460 532 443 575 423 614 C 402 652 378 688 352 720 C 325 752 298 783 270 813 C 240 845 211 877 182 910 C 153 943 127 980 105 1020 C 82 1060 64 1105 50 1155 C 36 1205 29 1263 29 1329 C 29 1427 54 1505 105 1561 C 156 1617 232 1645 334 1645 C 382 1645 424 1637 460 1622 C 495 1606 525 1586 549 1560 C 573 1534 591 1503 604 1469 C 616 1434 624 1398 627 1360 C 627 1344 628 1327 629 1308 C 630 1288 631 1270 631 1252 C 631 1234 632 1218 632 1205 C 632 1192 633 1185 633 1184 L 483 1184 C 483 1184 483 1190 483 1202 C 483 1214 482 1228 482 1244 C 482 1260 481 1277 481 1295 C 480 1313 479 1330 479 1346 C 477 1369 474 1390 468 1410 C 462 1429 454 1445 443 1459 C 431 1473 417 1483 399 1491 C 381 1499 360 1503 334 1503 C 279 1503 240 1488 217 1459 C 193 1429 182 1383 182 1321 C 182 1276 187 1236 197 1200 C 207 1164 221 1130 239 1099 C 257 1068 277 1039 300 1011 C 323 983 347 956 373 930 C 405 895 437 859 469 822 C 501 784 529 742 555 696 C 581 650 602 597 618 539 C 634 480 643 412 643 334 Z" unicode="S" />
<glyph horiz-adv-x="618" d="M 614 1491 L 385 1491 L 385 0 L 231 0 L 231 1491 L 4 1491 L 4 1634 L 614 1634 L 614 1491 Z" unicode="T" />
<glyph horiz-adv-x="739" d="M 668 291 C 668 195 643 121 594 67 C 544 13 471 -14 373 -14 C 329 -14 289 -8 252 3 C 215 15 183 33 156 58 C 128 83 107 115 91 154 C 75 193 68 240 68 295 L 68 1634 L 217 1634 L 217 309 C 217 245 230 199 256 171 C 282 143 320 129 369 129 C 418 129 455 143 479 172 C 503 200 516 246 516 309 L 516 1634 L 668 1634 L 668 291 Z" unicode="U" />
<glyph horiz-adv-x="707" d="M 702 1634 L 442 0 L 260 0 L 0 1634 L 156 1634 L 354 262 L 551 1634 L 702 1634 Z" unicode="V" />
<glyph horiz-adv-x="1073" d="M 1071 1634 L 860 0 L 696 0 C 666 222 639 427 616 614 C 606 693 596 772 586 852 C 576 931 568 1004 561 1072 C 553 1140 547 1199 542 1249 C 537 1299 535 1334 535 1356 C 535 1334 532 1299 528 1249 C 523 1199 517 1140 509 1072 C 501 1004 493 931 483 852 C 473 772 463 693 453 614 C 429 427 401 222 371 0 L 207 0 L 0 1634 L 154 1634 C 180 1404 205 1194 227 1004 C 233 950 239 895 245 841 C 251 786 256 733 262 682 C 268 631 273 582 278 536 C 282 490 286 448 290 410 C 293 372 296 340 298 313 C 300 285 301 265 301 252 C 301 265 302 285 304 313 C 306 340 308 372 312 410 C 316 448 320 490 325 536 C 329 582 334 631 340 682 C 346 733 352 786 358 841 C 364 895 371 950 378 1004 C 400 1194 425 1404 455 1634 L 618 1634 C 646 1404 672 1193 695 1003 C 704 921 713 840 723 759 C 732 678 740 603 748 535 C 755 466 761 407 765 357 C 769 307 772 272 772 252 C 772 272 774 307 778 357 C 782 407 788 466 796 535 C 803 603 811 678 820 759 C 829 840 839 921 849 1003 C 871 1193 896 1404 926 1634 L 1071 1634 Z" unicode="W" />
<glyph horiz-adv-x="698" d="M 346 618 L 152 0 L 2 0 L 274 842 L 27 1634 L 182 1634 L 356 1075 L 532 1634 L 682 1634 C 634 1488 591 1357 555 1243 C 539 1193 523 1145 508 1099 C 492 1052 479 1010 467 973 C 455 936 446 906 439 884 C 431 861 428 850 428 850 L 694 0 L 539 0 L 346 618 Z" unicode="X" />
<glyph horiz-adv-x="729" d="M 729 1634 L 432 596 L 432 0 L 279 0 L 279 592 L 0 1634 L 158 1634 C 195 1489 228 1357 258 1239 C 270 1188 283 1138 295 1088 C 307 1038 317 993 327 952 C 337 911 345 876 351 848 C 357 819 360 801 360 793 C 360 801 363 820 369 848 C 375 876 383 911 393 952 C 403 993 414 1038 427 1088 C 439 1138 452 1188 466 1239 C 497 1357 533 1489 573 1634 L 729 1634 Z" unicode="Y" />
<glyph horiz-adv-x="621" d="M 610 0 L 18 0 L 18 131 L 436 1491 L 43 1491 L 43 1634 L 598 1634 L 598 1513 L 174 141 L 610 141 L 610 0 Z" unicode="Z" />
<glyph horiz-adv-x="369" d="M 342 -334 L 55 -334 L 55 1634 L 342 1634 L 342 1511 L 197 1511 L 197 -219 L 342 -219 L 342 -334 Z" unicode="[" />
<glyph horiz-adv-x="340" d="M -4 1636 L 90 1636 L 393 -328 L 299 -328 L -4 1636 Z" unicode="\" />
<glyph horiz-adv-x="373" d="M 29 -334 L 29 -219 L 174 -219 L 174 1513 L 29 1513 L 29 1634 L 313 1634 L 313 -334 L 29 -334 Z" unicode="]" />
<glyph horiz-adv-x="760" d="M 377 1513 L 121 1180 L 31 1274 L 305 1632 L 453 1632 L 729 1274 L 637 1180 L 377 1513 Z" unicode="^" />
<glyph horiz-adv-x="547" d="M 547 -252 L 0 -252 L 0 -115 L 547 -115 L 547 -252 Z" unicode="_" />
<glyph horiz-adv-x="586" d="M 420 1198 L 289 1198 L 145 1446 L 293 1446 L 420 1198 Z" unicode="`" />
<glyph horiz-adv-x="596" d="M 561 0 L 432 0 C 430 0 429 0 427 2 C 425 3 424 6 422 12 C 420 17 419 25 418 36 C 417 47 416 62 416 82 C 398 52 373 29 341 14 C 309 0 272 -8 231 -8 C 204 -8 179 -3 156 4 C 132 12 112 25 94 41 C 76 57 61 78 50 104 C 39 129 33 159 33 193 C 31 219 30 249 30 282 C 30 314 31 345 33 375 C 37 447 58 506 96 554 C 134 602 192 635 268 655 C 293 661 318 667 343 671 C 367 675 390 678 412 680 L 412 907 C 410 975 377 1010 313 1010 C 285 1010 261 1003 242 991 C 222 978 210 956 205 924 C 201 898 198 872 198 844 C 197 816 197 783 197 743 L 66 743 C 64 787 65 826 67 862 C 69 897 74 931 80 965 C 90 1018 114 1060 153 1092 C 192 1123 247 1139 317 1139 C 357 1139 391 1133 420 1123 C 448 1113 472 1098 491 1080 C 509 1062 523 1040 532 1014 C 541 988 546 959 547 928 C 547 900 547 866 547 828 C 547 789 546 749 546 709 C 546 669 545 630 545 592 C 545 554 545 522 545 496 C 544 468 543 437 543 404 C 543 371 543 339 543 307 C 543 275 543 245 543 217 C 543 189 543 167 543 150 C 543 134 543 119 544 104 C 545 88 547 74 549 60 C 551 46 553 33 555 23 C 557 12 559 4 561 0 Z M 414 561 C 400 559 387 557 373 557 C 359 556 346 554 332 551 C 306 545 283 538 261 529 C 239 520 224 511 215 502 C 203 490 193 472 185 447 C 177 422 172 393 170 360 C 169 352 169 342 169 328 C 169 314 169 299 169 284 C 169 268 170 254 170 240 C 170 226 171 215 172 207 C 175 171 186 147 205 134 C 223 121 247 115 276 115 C 302 115 326 121 349 134 C 371 147 389 173 401 211 C 405 221 407 235 409 252 C 410 269 411 288 411 308 C 411 328 411 350 411 372 C 411 394 411 415 412 436 C 412 443 413 452 413 464 C 413 476 414 488 414 500 C 414 512 414 524 414 535 C 414 546 414 555 414 561 Z" unicode="a" />
<glyph horiz-adv-x="627" d="M 369 1139 C 391 1139 412 1136 432 1131 C 452 1125 470 1117 486 1105 C 502 1093 517 1077 529 1057 C 541 1037 551 1013 559 985 C 569 943 576 889 580 824 C 584 759 586 679 586 584 C 586 470 583 377 577 303 C 571 229 561 171 547 127 C 537 100 526 78 513 61 C 500 44 485 31 469 21 C 452 11 434 5 414 1 C 394 -2 372 -4 350 -4 C 334 -4 319 -2 303 0 C 287 2 272 7 258 13 C 244 19 231 26 219 35 C 207 44 198 55 190 68 L 176 0 L 63 0 L 63 1636 L 197 1636 L 197 1030 C 201 1045 209 1059 220 1073 C 231 1086 244 1097 260 1107 C 275 1117 292 1124 311 1130 C 329 1136 349 1139 369 1139 Z M 326 1010 C 286 1010 256 998 236 974 C 216 950 205 921 203 887 C 201 861 199 835 198 810 C 197 784 197 759 197 734 C 197 708 197 682 197 656 C 197 629 197 601 197 571 C 197 513 197 464 197 425 C 197 386 198 353 199 327 C 199 300 200 277 201 259 C 202 241 203 223 205 207 C 207 194 211 182 217 170 C 222 158 229 147 238 138 C 247 129 258 122 271 117 C 284 111 299 109 317 109 C 337 109 354 111 368 115 C 382 119 394 128 404 140 C 414 152 421 169 427 191 C 432 213 436 241 439 276 C 442 311 444 353 445 403 C 445 453 446 512 446 580 C 446 667 445 738 444 794 C 442 850 438 894 430 926 C 422 958 410 980 394 992 C 378 1004 355 1010 326 1010 Z" unicode="b" />
<glyph horiz-adv-x="586" d="M 549 723 L 416 723 C 416 765 415 804 415 839 C 414 874 410 904 404 929 C 398 954 387 973 373 987 C 358 1001 337 1008 309 1008 C 280 1008 257 998 240 979 C 223 959 210 931 201 894 C 192 856 186 810 184 754 C 181 698 180 635 180 563 C 180 497 181 440 183 392 C 185 344 188 303 192 270 C 196 237 202 210 208 190 C 214 170 222 154 232 143 C 241 131 251 124 263 120 C 275 116 288 115 303 115 C 331 115 353 122 369 137 C 385 152 396 172 403 198 C 410 223 414 252 416 286 C 417 320 418 355 418 393 L 549 393 C 551 255 533 153 493 87 C 453 21 389 -12 301 -12 C 257 -12 220 -5 189 8 C 158 21 132 46 111 84 C 99 104 88 129 80 159 C 71 188 64 222 59 261 C 53 300 49 344 47 394 C 44 444 43 500 43 563 C 43 672 47 765 56 843 C 65 920 83 982 109 1030 C 129 1067 156 1095 188 1113 C 220 1131 261 1141 309 1141 C 353 1141 390 1133 420 1119 C 450 1105 475 1083 494 1054 C 513 1025 527 989 536 946 C 544 903 549 853 549 795 L 549 723 Z" unicode="c" />
<glyph horiz-adv-x="618" d="M 272 1137 C 307 1137 338 1130 366 1116 C 394 1102 414 1081 428 1053 L 428 1636 L 563 1636 L 563 123 C 563 109 563 95 564 81 C 564 67 565 54 567 42 C 568 28 569 14 571 0 L 455 0 L 434 74 C 418 46 398 26 372 12 C 346 -1 314 -8 274 -8 C 254 -8 234 -6 216 -3 C 198 0 181 6 165 15 C 149 24 135 37 122 53 C 109 69 98 91 88 117 C 73 157 62 212 55 282 C 48 351 45 440 45 549 C 45 669 48 770 55 851 C 61 932 77 996 102 1042 C 134 1105 191 1137 272 1137 Z M 305 1006 C 275 1006 252 998 236 984 C 219 970 206 945 198 910 C 190 875 185 828 183 770 C 181 711 180 637 180 549 C 180 459 181 385 184 328 C 187 270 193 225 202 193 C 210 161 223 139 239 127 C 255 115 276 109 303 109 C 336 109 361 118 379 137 C 396 156 409 183 418 217 C 423 265 426 316 428 372 C 429 428 430 487 430 549 C 430 607 429 655 429 695 C 428 735 427 769 426 797 C 425 825 424 848 422 868 C 420 887 418 906 416 924 C 409 947 396 966 378 982 C 359 998 335 1006 305 1006 Z" unicode="d" />
<glyph horiz-adv-x="596" d="M 555 340 C 555 277 549 223 539 179 C 529 135 513 98 493 70 C 473 42 447 21 416 8 C 385 -5 349 -12 309 -12 C 283 -12 260 -10 238 -7 C 216 -3 197 2 179 11 C 161 19 146 31 132 46 C 118 60 106 79 96 102 C 76 144 63 201 55 274 C 47 346 43 439 43 551 C 43 671 48 771 58 851 C 68 930 87 992 113 1038 C 133 1074 159 1100 190 1116 C 221 1132 259 1141 305 1141 C 355 1141 396 1132 429 1115 C 462 1098 488 1072 507 1038 C 526 1004 539 961 547 910 C 555 858 559 799 559 731 L 559 502 L 178 502 C 178 430 179 369 182 319 C 184 269 190 228 199 198 C 208 167 221 145 238 131 C 254 117 277 111 305 111 C 330 111 350 115 366 123 C 382 131 394 145 402 163 C 410 181 416 205 419 234 C 422 263 424 298 424 340 L 555 340 Z M 424 623 L 424 766 C 424 804 422 839 420 870 C 417 900 411 926 403 947 C 395 968 382 984 366 995 C 350 1006 328 1012 301 1012 C 278 1012 259 1007 243 999 C 227 991 215 973 205 946 C 195 919 188 880 184 829 C 180 777 178 709 178 623 L 424 623 Z" unicode="e" />
<glyph horiz-adv-x="387" d="M 381 999 L 246 999 L 246 0 L 109 0 L 109 999 L 10 999 L 10 1126 L 109 1126 L 109 1452 C 109 1510 124 1557 156 1592 C 188 1627 237 1645 303 1645 C 326 1645 344 1644 358 1643 C 371 1641 383 1640 395 1638 L 395 1509 C 385 1510 374 1511 361 1512 C 347 1512 333 1513 319 1513 C 293 1513 275 1505 263 1491 C 251 1476 246 1457 246 1434 L 246 1126 L 381 1126 L 381 999 Z" unicode="f" />
<glyph horiz-adv-x="612" d="M 297 1145 C 347 1145 386 1138 415 1126 C 443 1114 461 1102 469 1090 C 490 1106 514 1117 542 1123 C 570 1129 599 1131 629 1130 L 629 1024 C 623 1024 614 1024 603 1024 C 591 1024 580 1023 568 1023 C 556 1023 545 1022 535 1022 C 525 1021 520 1020 518 1020 C 526 1005 533 983 538 954 C 542 924 545 893 547 860 C 547 847 548 827 548 800 C 548 772 548 743 548 713 C 548 683 547 653 547 625 C 546 596 545 574 545 559 C 541 517 533 482 520 454 C 507 425 490 401 469 383 C 448 364 424 350 396 342 C 368 334 337 330 303 330 C 274 330 249 333 229 340 C 208 347 190 354 176 362 C 164 358 154 351 146 341 C 137 331 133 318 133 303 C 133 291 136 280 142 272 C 148 263 159 256 174 250 C 189 244 209 238 234 234 C 259 229 290 225 328 221 C 382 215 428 205 466 193 C 503 180 533 164 556 144 C 579 124 596 100 606 72 C 616 44 621 13 621 -23 C 621 -103 594 -166 540 -210 C 486 -254 409 -276 307 -276 C 205 -276 128 -257 78 -219 C 27 -181 2 -126 2 -55 C 2 -27 5 -2 13 19 C 21 40 31 59 43 75 C 55 91 68 104 82 115 C 96 126 110 135 123 143 C 103 145 87 151 73 160 C 59 168 48 179 40 191 C 31 203 25 216 21 231 C 17 245 16 260 16 276 C 16 292 18 307 24 321 C 29 335 36 347 46 359 C 55 370 66 380 78 388 C 90 396 103 402 117 406 C 97 419 81 440 69 468 C 57 496 50 528 49 563 C 48 571 48 585 48 604 C 48 623 47 645 47 669 C 47 693 47 719 47 745 C 47 771 47 795 47 819 C 47 843 47 863 47 881 C 47 899 47 911 47 918 C 47 948 53 976 63 1004 C 73 1031 88 1055 108 1076 C 128 1097 154 1114 185 1126 C 216 1138 253 1145 297 1145 Z M 299 1020 C 259 1020 230 1009 212 987 C 193 965 183 933 182 889 L 182 569 C 183 533 193 504 211 483 C 229 461 257 451 297 451 C 317 451 335 453 349 459 C 363 464 374 472 383 482 C 391 492 398 504 403 519 C 407 533 410 550 412 569 C 412 582 413 599 414 619 C 415 639 416 661 416 684 C 416 707 416 731 416 755 C 416 779 416 801 416 823 C 416 844 415 863 414 879 C 413 895 412 907 412 915 C 407 949 396 975 379 993 C 361 1011 335 1020 299 1020 Z M 305 -170 C 373 -170 421 -158 450 -136 C 479 -114 494 -80 494 -35 C 494 7 479 38 451 58 C 423 78 377 94 315 104 C 295 107 277 110 259 112 C 241 114 227 115 217 117 C 188 101 165 82 149 60 C 133 38 125 7 125 -33 C 125 -77 139 -110 167 -134 C 195 -158 241 -170 305 -170 Z" unicode="g" />
<glyph horiz-adv-x="608" d="M 555 0 L 416 0 C 415 0 415 1 415 5 C 415 9 414 19 414 37 C 414 55 414 82 414 119 C 414 156 414 208 414 276 C 414 343 414 428 414 530 C 414 632 414 758 414 907 C 414 921 412 935 409 947 C 405 959 400 969 393 978 C 385 986 375 993 363 998 C 351 1003 335 1006 317 1006 C 284 1006 256 993 234 969 C 212 944 201 906 201 854 L 201 0 L 63 0 L 63 1636 L 199 1636 L 199 1032 C 208 1067 229 1094 261 1112 C 293 1130 331 1139 375 1139 C 400 1139 423 1135 445 1127 C 467 1119 486 1106 502 1090 C 518 1073 530 1052 539 1026 C 548 1000 553 970 553 934 C 553 780 553 651 553 546 C 553 440 553 353 553 284 C 553 214 553 160 553 122 C 553 84 553 56 553 38 C 553 20 554 9 554 5 C 554 1 555 0 555 0 Z" unicode="h" />
<glyph horiz-adv-x="272" d="M 213 1200 L 59 1200 L 59 1397 L 213 1397 L 213 1200 Z M 217 0 L 76 0 C 74 0 71 6 69 20 C 67 33 66 54 66 82 L 66 1126 L 207 1126 L 207 94 C 207 63 208 40 210 24 C 212 8 215 0 217 0 Z" unicode="i" />
<glyph horiz-adv-x="276" d="M 215 1200 L 63 1200 L 63 1397 L 215 1397 L 215 1200 Z M 209 -170 C 209 -201 204 -229 195 -253 C 185 -277 172 -297 155 -313 C 138 -329 118 -341 95 -349 C 72 -357 47 -362 20 -362 C 13 -362 5 -361 -2 -361 C -10 -361 -19 -360 -28 -359 C -36 -358 -44 -357 -51 -357 C -58 -356 -64 -355 -68 -354 L -68 -233 L -20 -233 C 8 -233 30 -226 46 -214 C 62 -201 70 -179 70 -147 L 70 1126 L 209 1126 L 209 -170 Z" unicode="j" />
<glyph horiz-adv-x="582" d="M 584 0 L 444 0 L 274 553 L 201 428 L 201 0 L 63 0 L 63 1636 L 201 1636 L 201 657 L 434 1126 L 575 1126 L 367 705 L 584 0 Z" unicode="k" />
<glyph horiz-adv-x="258" d="M 205 0 L 70 0 C 66 3 64 10 63 22 C 61 34 61 48 61 66 L 61 1540 C 61 1548 60 1558 60 1568 C 60 1578 59 1587 59 1596 C 59 1605 58 1613 57 1620 C 56 1627 55 1632 55 1636 L 197 1636 C 197 1634 197 1627 199 1613 C 200 1599 201 1584 201 1569 L 201 88 C 201 61 201 41 202 27 C 202 13 203 4 205 0 Z" unicode="l" />
<glyph horiz-adv-x="913" d="M 721 0 C 720 0 720 1 720 4 C 720 7 719 17 719 35 C 719 52 719 79 719 116 C 719 152 719 204 719 271 C 719 338 719 423 719 526 C 719 629 719 755 719 905 C 719 919 717 932 715 945 C 713 957 709 968 703 978 C 697 988 688 995 677 1001 C 665 1007 651 1010 633 1010 C 616 1010 601 1006 588 999 C 575 991 564 982 555 970 C 546 958 539 945 535 930 C 530 915 528 900 528 885 L 528 0 L 397 0 C 397 0 396 0 396 2 C 396 3 396 7 396 15 C 396 23 395 34 395 50 C 395 66 395 88 395 117 C 395 145 395 182 395 226 C 395 270 395 325 395 389 C 395 453 395 528 395 614 C 395 700 395 799 395 913 C 395 942 388 965 375 983 C 362 1001 340 1010 309 1010 C 291 1010 276 1006 263 999 C 249 992 238 983 229 971 C 219 959 212 946 208 930 C 203 914 201 898 201 881 L 201 0 L 63 0 L 63 1126 L 197 1126 L 197 1024 C 207 1059 227 1087 257 1109 C 287 1130 323 1141 365 1141 C 407 1141 440 1130 465 1109 C 490 1087 506 1060 514 1026 C 525 1066 546 1096 578 1114 C 609 1132 644 1141 682 1141 C 714 1141 740 1136 762 1126 C 784 1116 801 1102 815 1084 C 828 1066 837 1044 843 1020 C 849 995 852 968 852 940 C 852 785 852 654 852 548 C 852 441 852 353 852 283 C 852 213 852 160 852 122 C 852 84 853 55 853 37 C 853 19 854 8 854 5 C 854 1 855 0 856 0 L 721 0 Z" unicode="m" />
<glyph horiz-adv-x="608" d="M 555 0 L 418 0 C 417 0 416 1 416 5 C 416 8 415 18 415 36 C 415 53 414 80 414 117 C 414 154 414 206 414 273 C 414 340 414 425 414 528 C 414 630 414 756 414 905 C 414 940 406 966 392 983 C 377 999 353 1008 319 1008 C 302 1008 286 1005 272 999 C 258 993 245 983 235 969 C 224 955 216 938 210 917 C 204 895 201 870 201 840 L 201 0 L 63 0 L 63 1126 L 195 1126 L 195 1016 C 200 1038 209 1057 221 1073 C 233 1089 248 1101 264 1111 C 280 1121 297 1128 316 1132 C 334 1136 353 1139 373 1139 C 405 1139 432 1134 455 1124 C 477 1114 496 1101 510 1083 C 524 1065 535 1043 541 1018 C 547 992 551 964 551 934 C 551 780 551 650 551 544 C 551 438 551 350 551 281 C 551 211 551 158 551 120 C 551 82 552 55 552 37 C 552 19 553 8 553 5 C 553 1 554 0 555 0 Z" unicode="n" />
<glyph horiz-adv-x="616" d="M 575 563 C 575 451 570 357 562 281 C 553 205 536 144 512 98 C 491 60 464 32 432 14 C 400 -3 359 -12 309 -12 C 259 -12 218 -3 186 14 C 153 32 126 59 106 96 C 81 142 64 203 56 280 C 47 356 43 451 43 563 C 43 679 48 777 58 856 C 68 934 87 996 115 1042 C 135 1076 162 1101 194 1117 C 226 1133 265 1141 311 1141 C 359 1141 400 1133 432 1118 C 464 1102 490 1078 510 1044 C 535 998 552 936 561 858 C 570 780 575 681 575 563 Z M 438 561 C 438 653 437 728 435 786 C 433 844 427 889 419 923 C 410 956 397 979 380 991 C 362 1003 339 1010 309 1010 C 283 1010 262 1004 246 993 C 229 981 216 959 206 927 C 196 894 190 848 186 790 C 182 731 180 655 180 561 C 180 477 181 407 183 351 C 185 294 190 248 199 213 C 207 178 220 153 238 138 C 255 122 279 115 309 115 C 338 115 361 122 378 138 C 395 154 408 179 417 214 C 426 249 432 295 434 352 C 436 408 438 478 438 561 Z" unicode="o" />
<glyph horiz-adv-x="627" d="M 586 584 C 586 470 582 377 574 303 C 566 229 555 171 539 127 C 529 102 517 81 505 65 C 492 49 478 36 463 26 C 447 16 430 8 412 4 C 393 0 373 -2 352 -2 C 317 -2 286 4 258 16 C 230 28 210 43 199 63 L 199 -334 L 63 -334 L 63 1126 L 195 1126 L 195 1026 C 208 1062 230 1089 261 1109 C 291 1129 327 1139 369 1139 C 411 1139 447 1130 475 1113 C 503 1096 525 1067 542 1025 C 558 983 570 926 576 854 C 582 782 586 692 586 584 Z M 446 578 C 446 666 445 739 443 795 C 441 851 436 894 428 926 C 420 958 407 979 391 991 C 375 1002 352 1008 324 1008 C 296 1008 274 1001 258 988 C 241 974 228 951 219 919 C 210 886 204 842 201 787 C 198 731 197 662 197 578 C 197 511 197 453 198 405 C 199 357 201 316 205 282 C 208 248 212 221 218 200 C 224 179 231 163 241 151 C 250 139 261 131 275 127 C 289 123 305 121 324 121 C 341 121 356 123 369 128 C 382 132 393 141 402 153 C 411 165 418 182 424 204 C 430 225 434 253 438 287 C 441 321 443 361 444 409 C 445 457 446 513 446 578 Z" unicode="p" />
<glyph horiz-adv-x="623" d="M 571 -334 L 432 -334 L 426 -324 L 426 84 C 414 58 397 37 373 19 C 349 1 319 -8 281 -8 C 259 -8 239 -6 220 -2 C 200 1 182 8 166 18 C 150 28 135 41 122 59 C 109 76 98 98 88 125 C 72 167 61 223 55 293 C 48 363 45 453 45 561 C 45 681 49 781 59 860 C 68 938 85 1000 111 1044 C 129 1076 152 1099 180 1114 C 208 1129 241 1137 279 1137 C 315 1137 346 1130 371 1116 C 396 1102 416 1081 432 1051 L 432 1130 L 563 1130 L 563 -166 C 563 -188 563 -209 564 -229 C 564 -249 565 -266 566 -281 C 567 -296 568 -308 569 -318 C 570 -328 571 -333 571 -334 Z M 430 573 C 430 609 429 645 429 681 C 429 716 428 749 427 779 C 426 809 425 836 424 860 C 422 883 420 901 418 913 C 412 946 400 970 382 985 C 364 1000 340 1008 311 1008 C 285 1008 263 1001 246 987 C 229 973 216 949 206 915 C 196 881 190 835 186 778 C 182 721 180 649 180 563 C 180 475 181 403 183 345 C 185 287 190 242 198 208 C 206 174 217 150 233 136 C 249 122 271 115 299 115 C 333 115 359 123 378 141 C 396 159 409 183 416 213 C 420 231 423 254 425 280 C 427 306 428 334 429 366 C 429 397 430 430 430 466 C 430 501 430 537 430 573 Z" unicode="q" />
<glyph horiz-adv-x="449" d="M 449 1133 L 449 991 C 438 994 423 997 404 1000 C 384 1002 365 1004 346 1004 C 302 1004 266 985 240 949 C 214 913 201 859 201 788 L 201 0 L 63 0 L 63 1126 L 201 1126 L 201 1008 C 203 1028 210 1046 220 1062 C 230 1078 243 1091 258 1103 C 273 1114 290 1123 309 1129 C 328 1135 348 1139 369 1139 C 386 1139 402 1138 416 1137 C 430 1135 441 1134 449 1133 Z" unicode="r" />
<glyph horiz-adv-x="559" d="M 528 291 C 528 188 506 112 462 62 C 418 12 358 -12 281 -12 C 199 -12 138 6 97 44 C 55 81 33 137 29 213 C 27 234 27 254 27 274 C 27 293 27 314 27 338 L 158 338 C 158 334 158 328 158 320 C 158 312 158 302 158 290 C 158 278 158 266 158 252 C 158 238 159 225 160 213 C 162 179 172 153 192 134 C 211 115 239 106 276 106 C 316 106 345 119 365 147 C 385 174 395 217 395 276 C 395 308 391 337 383 361 C 375 385 365 407 353 425 C 340 443 325 460 308 474 C 290 488 272 502 254 516 C 228 534 202 553 176 572 C 150 591 126 614 105 642 C 83 669 66 702 53 741 C 39 780 33 829 33 887 C 33 923 38 956 48 987 C 58 1017 73 1044 93 1067 C 113 1090 138 1108 168 1121 C 198 1134 234 1141 276 1141 C 312 1141 344 1136 370 1127 C 396 1118 419 1106 437 1090 C 455 1074 470 1055 481 1033 C 491 1011 499 987 504 961 C 505 953 506 940 507 922 C 508 904 509 885 509 866 C 509 847 510 829 510 813 C 510 797 510 786 510 780 L 379 780 C 379 782 379 790 379 804 C 379 818 379 833 379 849 C 379 865 378 880 378 894 C 378 908 377 916 377 920 C 375 931 373 942 369 954 C 365 965 358 975 350 985 C 342 994 331 1001 318 1007 C 304 1013 288 1016 270 1016 C 232 1016 205 1003 189 979 C 173 955 166 922 166 881 C 166 844 170 813 180 787 C 189 761 201 739 217 720 C 233 700 250 683 270 668 C 290 653 310 639 332 625 C 350 612 370 597 393 580 C 415 562 437 541 457 515 C 477 489 493 457 507 421 C 521 384 528 341 528 291 Z" unicode="s" />
<glyph horiz-adv-x="401" d="M 377 1001 L 231 1001 C 231 965 231 925 231 881 C 231 836 230 789 230 740 C 230 690 230 640 230 590 C 230 539 229 490 229 443 C 229 396 229 352 229 312 C 229 272 229 237 229 209 C 229 189 230 174 234 163 C 238 151 243 143 250 137 C 257 131 265 127 275 125 C 284 123 295 123 307 123 C 317 123 329 123 342 124 C 354 124 365 125 375 127 L 375 4 C 358 0 339 -1 319 -3 C 299 -5 277 -6 254 -6 C 232 -6 212 -3 192 3 C 172 9 155 19 140 33 C 125 47 113 65 104 89 C 94 113 90 142 90 178 L 90 1001 L 4 1001 L 4 1126 L 90 1126 C 90 1126 90 1129 90 1135 C 90 1140 90 1147 90 1155 C 90 1163 91 1173 91 1184 C 91 1194 92 1205 92 1217 L 94 1305 L 229 1311 L 229 1126 L 377 1126 L 377 1001 Z" unicode="t" />
<glyph horiz-adv-x="612" d="M 555 0 L 420 0 L 416 70 C 407 54 397 42 385 32 C 373 22 359 14 345 8 C 331 2 316 -2 300 -4 C 284 -6 267 -8 250 -8 C 222 -8 196 -3 172 4 C 148 12 128 25 112 43 C 95 60 82 82 73 110 C 63 138 59 171 59 211 L 59 1126 L 199 1126 L 199 225 C 199 150 231 113 297 113 C 333 113 361 125 381 150 C 401 175 412 212 412 260 L 412 1126 L 551 1126 L 551 139 C 551 101 551 70 552 46 C 552 22 553 7 555 0 Z" unicode="u" />
<glyph horiz-adv-x="590" d="M 586 1126 L 377 0 L 215 0 L 4 1126 L 143 1126 L 299 182 L 453 1126 L 586 1126 Z" unicode="v" />
<glyph horiz-adv-x="932" d="M 932 1126 L 748 0 L 588 0 C 570 107 554 207 539 301 C 532 341 525 381 519 421 C 513 461 507 499 501 535 C 495 571 489 603 485 631 C 481 659 477 682 475 698 C 474 711 473 728 473 750 C 472 772 471 793 470 814 C 468 838 467 863 467 889 C 466 862 465 837 465 813 C 464 792 463 771 462 750 C 461 728 460 711 459 698 C 457 682 454 659 450 631 C 446 602 441 570 436 534 C 431 498 426 460 420 420 C 414 380 408 340 402 301 C 388 208 372 108 356 0 L 188 0 L 4 1126 L 145 1126 L 276 170 L 393 1126 L 541 1126 L 670 170 L 791 1126 L 932 1126 Z" unicode="w" />
<glyph horiz-adv-x="563" d="M 285 727 L 418 1126 L 555 1126 L 360 588 L 559 0 L 420 0 L 276 436 L 139 0 L 2 0 L 203 580 L 14 1126 L 158 1126 L 285 727 Z" unicode="x" />
<glyph horiz-adv-x="588" d="M 584 1126 L 283 -334 L 141 -334 L 223 55 L 4 1126 L 145 1126 C 145 1124 147 1112 151 1088 C 155 1064 161 1032 168 994 C 175 955 183 911 192 863 C 200 815 209 765 219 715 C 228 664 237 614 246 566 C 254 517 262 473 269 435 C 276 397 282 366 286 342 C 290 318 293 306 293 305 C 293 306 295 318 300 342 C 304 366 310 397 317 435 C 324 473 332 517 341 566 C 350 614 359 664 369 715 C 379 765 388 815 397 863 C 406 911 414 955 421 994 C 428 1032 434 1064 439 1088 C 443 1112 446 1124 446 1126 L 584 1126 Z" unicode="y" />
<glyph horiz-adv-x="508" d="M 489 0 L 20 0 L 20 131 L 342 999 L 27 999 L 27 1126 L 483 1126 L 483 989 L 158 127 L 489 127 L 489 0 Z" unicode="z" />
<glyph horiz-adv-x="524" d="M 489 -332 L 373 -332 C 331 -332 297 -324 271 -310 C 244 -296 223 -276 207 -252 C 191 -228 179 -200 173 -168 C 167 -136 164 -104 164 -70 C 164 -31 166 9 170 53 C 174 97 178 141 182 187 C 186 233 191 278 195 324 C 199 369 201 413 201 457 C 201 486 198 514 194 541 C 189 567 181 591 169 611 C 157 631 140 648 119 660 C 98 672 71 678 39 678 L 39 811 C 72 811 99 817 121 829 C 142 841 159 856 171 876 C 183 896 191 919 196 945 C 200 971 203 998 203 1026 C 203 1054 201 1083 197 1111 C 193 1139 188 1169 183 1199 C 178 1229 174 1260 170 1292 C 166 1324 164 1359 164 1397 C 164 1427 167 1456 174 1484 C 181 1512 193 1537 209 1559 C 225 1581 246 1598 272 1612 C 298 1625 331 1632 371 1632 L 489 1632 L 489 1503 C 453 1503 422 1502 398 1498 C 373 1494 353 1486 339 1474 C 324 1462 313 1445 307 1423 C 301 1401 298 1374 299 1341 C 299 1323 301 1301 305 1273 C 309 1245 313 1215 318 1183 C 322 1151 326 1119 330 1087 C 334 1055 336 1026 336 1001 C 336 972 334 943 330 915 C 326 886 318 860 307 836 C 295 812 280 791 260 775 C 240 759 215 749 184 745 C 216 741 242 731 262 714 C 282 696 297 675 308 650 C 319 624 326 596 330 566 C 334 536 336 507 336 479 C 336 437 334 394 330 352 C 326 310 321 267 317 223 C 312 179 308 134 304 88 C 300 42 297 -5 297 -55 C 296 -85 299 -109 305 -128 C 311 -147 322 -162 337 -173 C 352 -183 372 -191 397 -195 C 422 -199 453 -200 489 -199 L 489 -332 Z" unicode="{" />
<glyph horiz-adv-x="346" d="M 233 -410 L 115 -410 L 115 1638 L 233 1638 L 233 -410 Z" unicode="|" />
<glyph horiz-adv-x="524" d="M 29 -332 L 29 -199 C 65 -200 96 -199 121 -195 C 146 -191 166 -183 181 -173 C 196 -162 207 -147 213 -128 C 219 -109 223 -85 223 -55 C 222 -5 219 42 215 88 C 211 134 206 179 201 223 C 196 267 192 310 188 352 C 184 394 182 437 182 479 C 182 507 184 536 188 566 C 192 596 199 624 210 650 C 221 675 236 696 256 714 C 276 731 302 741 334 745 C 303 749 278 759 258 775 C 238 791 223 812 212 836 C 200 860 192 886 188 915 C 184 943 182 972 182 1001 C 182 1026 184 1055 188 1087 C 192 1119 197 1151 202 1183 C 207 1215 212 1245 216 1273 C 220 1301 223 1323 223 1341 C 223 1374 220 1401 214 1423 C 208 1445 197 1462 182 1474 C 166 1486 146 1494 121 1498 C 96 1502 65 1503 29 1503 L 29 1632 L 147 1632 C 185 1632 218 1625 245 1612 C 271 1598 293 1581 310 1559 C 326 1537 338 1512 345 1484 C 352 1456 356 1427 356 1397 C 356 1359 354 1324 350 1292 C 346 1260 341 1229 336 1199 C 331 1169 327 1139 323 1111 C 319 1083 317 1054 317 1026 C 317 998 319 971 323 945 C 327 919 336 896 348 876 C 360 856 376 841 397 829 C 418 817 445 811 479 811 L 479 678 C 446 678 419 672 399 660 C 378 648 362 631 350 611 C 338 591 329 567 325 541 C 321 514 319 486 319 457 C 319 413 321 369 325 324 C 329 278 333 233 337 187 C 341 141 346 97 350 53 C 354 9 356 -31 356 -70 C 356 -104 352 -136 346 -168 C 340 -200 329 -228 313 -252 C 297 -276 275 -296 248 -310 C 220 -324 186 -332 145 -332 L 29 -332 Z" unicode="}" />
<glyph horiz-adv-x="625" d="M 293 729 C 283 739 275 749 267 759 C 259 769 252 777 244 785 C 236 792 228 798 219 802 C 210 806 200 809 188 809 C 174 809 162 805 153 798 C 143 791 135 782 129 770 C 123 758 118 745 114 731 C 110 716 108 701 106 686 L 4 721 C 14 795 36 851 68 890 C 100 928 140 948 188 948 C 204 948 218 946 232 944 C 245 941 258 936 270 930 C 282 923 293 914 305 903 C 317 892 329 878 342 862 C 355 844 369 828 385 813 C 400 798 419 791 442 791 C 467 791 486 801 500 821 C 513 841 522 869 526 905 L 629 862 C 619 798 599 747 567 710 C 535 673 494 655 442 655 C 413 655 387 660 364 671 C 341 681 317 701 293 729 Z" unicode="~" />
<glyph horiz-adv-x="420" d="M 281 719 L 383 719 L 383 598 L 281 598 L 281 -16 L 211 -190 L 143 -16 L 143 598 L 37 598 L 37 719 L 143 719 L 143 995 L 37 995 L 37 1116 L 143 1116 C 143 1127 142 1143 142 1163 C 142 1183 141 1207 141 1233 C 141 1259 141 1286 141 1316 C 141 1345 141 1374 141 1404 L 141 1624 L 283 1624 L 283 1404 C 283 1374 283 1345 283 1316 C 283 1287 282 1260 282 1234 C 282 1208 281 1184 281 1164 C 281 1143 281 1127 281 1116 L 383 1116 L 383 995 L 281 995 L 281 719 Z" unicode="‡" />
<glyph horiz-adv-x="848" d="M 809 973 C 807 901 798 838 780 784 C 762 730 737 686 705 651 C 672 616 632 590 585 573 C 538 555 485 547 426 547 C 366 547 313 555 265 573 C 217 590 176 616 143 651 C 109 686 83 730 65 784 C 47 838 37 901 37 973 C 37 987 37 1004 37 1024 C 37 1044 37 1066 37 1090 C 37 1114 37 1139 37 1165 C 37 1191 38 1217 39 1243 C 39 1314 49 1375 69 1425 C 88 1475 115 1516 149 1548 C 183 1580 223 1603 270 1618 C 316 1632 368 1640 424 1640 C 478 1640 529 1632 576 1618 C 622 1604 663 1581 697 1549 C 731 1517 757 1476 777 1426 C 797 1375 807 1313 809 1241 C 809 1223 810 1203 810 1182 C 810 1160 810 1138 810 1115 C 810 1092 809 1068 809 1044 C 809 1020 809 996 809 973 Z M 745 1004 L 745 1251 C 743 1306 735 1354 719 1394 C 703 1434 682 1467 654 1493 C 626 1519 592 1538 553 1550 C 514 1562 471 1569 424 1569 C 376 1569 333 1563 294 1551 C 255 1539 221 1520 193 1494 C 165 1468 143 1436 127 1396 C 111 1356 102 1308 102 1253 C 101 1231 101 1208 101 1184 C 101 1160 101 1136 101 1114 C 101 1091 101 1070 101 1051 C 101 1031 102 1016 102 1004 C 102 934 111 874 127 824 C 143 774 165 734 193 703 C 221 672 255 649 294 635 C 333 621 376 614 424 614 C 476 614 521 621 561 635 C 600 649 633 671 660 702 C 687 733 708 773 722 823 C 736 873 743 933 745 1004 Z M 354 1001 L 354 754 L 250 754 L 250 1386 L 465 1386 C 502 1386 530 1381 550 1373 C 569 1365 585 1354 598 1341 C 606 1333 613 1322 619 1310 C 625 1297 629 1284 633 1270 C 636 1256 638 1242 640 1229 C 642 1216 643 1206 643 1198 C 643 1186 642 1173 641 1160 C 640 1146 638 1133 636 1120 C 633 1106 629 1094 625 1082 C 621 1070 616 1059 610 1051 C 598 1035 582 1023 560 1014 C 538 1005 517 1001 496 1001 L 354 1001 Z M 522 1114 C 528 1122 533 1133 535 1148 C 537 1162 539 1176 539 1190 C 539 1201 537 1213 533 1227 C 529 1241 525 1252 520 1262 C 512 1274 504 1282 495 1287 C 485 1291 472 1294 455 1294 L 354 1294 L 354 1090 L 465 1090 C 481 1090 493 1091 501 1095 C 509 1098 516 1104 522 1114 Z" unicode="℗" />
<glyph horiz-adv-x="369" d="M 276 668 L 90 668 L 90 936 L 276 936 L 276 668 Z" unicode="∙" />
<glyph horiz-adv-x="1536" d="M 1072 396 C 973 396 896 424 840 480 C 813 509 789 545 768 588 C 744 553 717 522 688 496 C 616 429 533 396 440 396 C 336 396 252 433 190 508 C 127 582 96 682 96 808 C 96 925 133 1022 208 1100 C 282 1177 369 1216 468 1216 C 566 1216 645 1188 704 1132 C 733 1108 758 1073 780 1028 C 804 1068 830 1101 860 1128 C 924 1186 1004 1216 1100 1216 C 1198 1216 1280 1181 1346 1112 C 1411 1042 1444 945 1444 820 C 1444 700 1409 599 1340 518 C 1270 436 1181 396 1072 396 Z M 612 984 C 574 1026 528 1048 472 1048 C 408 1048 356 1026 316 982 C 276 938 256 874 256 792 C 256 709 271 648 302 610 C 332 571 381 552 448 552 C 509 552 562 576 608 624 C 645 664 676 725 700 808 C 676 890 646 949 612 984 Z M 920 608 C 962 573 1013 556 1072 556 C 1128 556 1176 579 1218 626 C 1259 672 1280 736 1280 816 C 1280 882 1264 940 1234 988 C 1203 1036 1152 1060 1080 1060 C 1008 1060 954 1029 920 968 C 893 920 869 865 848 804 C 856 702 880 637 920 608 Z" unicode="∞" />
<glyph horiz-adv-x="815" d="M 791 1636 L 440 -18 L 231 -18 L 29 659 L 166 659 L 328 117 L 641 1636 L 791 1636 Z" unicode="√" />
<glyph horiz-adv-x="147" d="" unicode=" " />
<glyph horiz-adv-x="334" d="M 92 1634 L 244 1634 L 244 1374 L 92 1374 L 92 1634 Z M 92 -2 L 106 1266 L 229 1266 L 246 -2 L 92 -2 Z" unicode="¡" />
<glyph horiz-adv-x="604" d="M 362 1362 C 422 1356 469 1336 502 1302 C 535 1268 555 1228 563 1180 C 564 1166 565 1149 567 1127 C 569 1105 570 1083 572 1061 C 574 1038 575 1017 576 998 C 577 979 578 966 578 958 L 444 958 C 444 966 443 976 443 988 C 443 1000 442 1013 442 1027 C 442 1041 441 1054 441 1068 C 441 1082 440 1094 440 1106 C 436 1179 410 1223 362 1237 L 362 354 C 382 360 399 372 411 390 C 423 407 432 431 438 463 C 438 469 439 480 440 496 C 441 512 442 528 443 546 C 444 563 445 580 445 596 C 445 612 446 623 446 631 L 578 631 C 578 621 577 606 576 587 C 575 568 574 548 572 527 C 570 505 567 484 565 464 C 562 444 559 428 557 416 C 530 310 465 252 362 240 L 362 84 L 270 84 L 270 240 C 220 247 179 264 145 291 C 111 317 89 358 78 412 C 74 432 70 455 67 479 C 63 503 61 531 59 562 C 57 593 55 628 54 667 C 53 706 53 751 53 801 C 53 840 53 875 54 906 C 55 937 57 967 59 995 C 61 1023 63 1051 67 1079 C 71 1107 76 1137 82 1171 C 91 1223 111 1266 143 1298 C 174 1330 216 1351 270 1360 L 270 1501 L 362 1501 L 362 1362 Z M 270 1233 C 254 1225 242 1212 232 1195 C 222 1177 215 1154 211 1124 C 208 1102 206 1079 204 1057 C 202 1035 201 1011 200 986 C 199 960 198 932 198 902 C 197 871 197 837 197 799 C 197 779 197 754 198 724 C 198 694 199 663 201 631 C 202 599 203 569 205 539 C 207 509 209 485 211 467 C 214 436 221 412 231 395 C 241 378 254 366 270 360 L 270 1233 Z" unicode="¢" />
<glyph horiz-adv-x="631" d="M 162 788 C 152 820 141 852 131 885 C 120 917 110 951 102 986 C 93 1020 85 1056 79 1094 C 73 1131 69 1170 68 1210 C 67 1222 66 1237 66 1254 C 66 1270 66 1287 66 1305 C 66 1322 66 1339 66 1355 C 66 1371 67 1384 68 1395 C 70 1431 76 1464 86 1495 C 96 1525 111 1552 132 1574 C 152 1596 178 1614 210 1626 C 242 1638 280 1645 326 1645 C 375 1645 416 1638 449 1625 C 481 1612 508 1594 528 1572 C 548 1549 562 1522 571 1492 C 579 1462 584 1429 586 1395 C 586 1390 586 1379 586 1362 C 586 1344 586 1324 586 1300 C 586 1276 587 1250 587 1223 C 587 1195 587 1170 587 1146 C 587 1122 588 1101 588 1083 C 588 1065 588 1055 588 1051 L 449 1051 L 449 1378 C 446 1427 435 1461 416 1481 C 397 1501 368 1511 328 1511 C 307 1511 290 1508 276 1502 C 262 1495 250 1485 242 1473 C 233 1461 226 1446 222 1429 C 217 1412 214 1394 213 1374 C 212 1368 212 1357 212 1342 C 212 1326 212 1310 212 1293 C 212 1275 212 1258 212 1242 C 212 1225 213 1212 213 1204 C 213 1165 216 1128 222 1092 C 228 1056 235 1020 243 986 C 251 952 261 918 271 886 C 281 853 292 820 303 788 L 549 788 L 549 664 L 334 664 C 342 630 348 598 353 568 C 357 537 360 509 360 483 C 358 432 353 387 343 348 C 333 309 320 275 304 247 C 288 218 270 194 251 176 C 231 158 212 144 193 135 L 600 135 L 600 0 L 39 0 L 39 143 C 64 157 88 174 110 196 C 132 218 151 243 167 272 C 183 301 196 333 206 368 C 216 403 221 441 223 483 C 224 504 222 530 217 562 C 211 594 205 628 197 664 L 61 664 L 61 788 L 162 788 Z" unicode="£" />
<glyph horiz-adv-x="735" d="M 287 418 L 45 418 L 45 522 L 287 522 L 287 606 L 0 1634 L 150 1634 C 188 1489 223 1357 255 1238 C 268 1187 281 1137 294 1087 C 306 1037 318 991 328 949 C 338 907 346 872 352 843 C 358 814 362 795 362 786 C 362 796 365 815 372 845 C 378 874 387 909 398 951 C 408 993 420 1038 434 1088 C 448 1138 462 1188 476 1239 C 508 1357 546 1489 588 1634 L 737 1634 L 432 612 L 432 522 L 682 522 L 682 418 L 432 418 L 432 336 L 682 336 L 682 231 L 432 231 L 432 0 L 287 0 L 287 231 L 45 231 L 45 336 L 287 336 L 287 418 Z" unicode="¥" />
<glyph horiz-adv-x="346" d="M 233 733 L 113 733 L 113 1638 L 233 1638 L 233 733 Z M 233 -410 L 113 -410 L 113 455 L 233 455 L 233 -410 Z" unicode="¦" />
<glyph horiz-adv-x="547" d="M 43 930 C 45 960 50 985 58 1007 C 65 1028 73 1046 83 1061 C 93 1075 103 1087 115 1096 C 126 1105 137 1112 147 1118 C 117 1139 95 1165 81 1196 C 67 1227 60 1265 59 1309 L 59 1440 C 62 1506 82 1555 119 1589 C 156 1623 207 1640 272 1640 C 303 1640 331 1636 357 1629 C 383 1621 405 1609 423 1593 C 441 1577 456 1556 467 1530 C 478 1504 485 1472 487 1434 C 487 1431 488 1423 488 1409 C 488 1395 489 1381 489 1365 C 489 1349 489 1334 489 1320 C 489 1306 489 1298 489 1296 L 381 1296 L 381 1423 C 379 1459 371 1486 357 1506 C 342 1526 317 1536 281 1536 C 245 1536 219 1527 201 1511 C 183 1495 174 1466 172 1425 L 172 1315 C 172 1295 175 1279 179 1265 C 183 1251 189 1238 197 1228 C 205 1217 216 1207 229 1198 C 241 1188 256 1179 274 1169 C 278 1166 285 1162 295 1157 C 305 1152 315 1146 327 1140 C 338 1133 349 1126 361 1120 C 373 1113 383 1107 391 1102 C 429 1076 457 1047 473 1014 C 489 981 500 947 504 913 C 504 903 505 891 506 877 C 507 862 508 846 508 830 C 508 813 507 797 507 781 C 506 765 504 753 502 743 C 498 715 491 692 483 673 C 475 653 466 637 456 624 C 446 610 435 599 423 591 C 411 583 400 576 389 571 C 428 546 459 516 481 481 C 503 445 516 402 518 350 L 518 201 C 514 128 494 73 457 37 C 419 0 363 -18 287 -18 C 251 -18 219 -14 191 -6 C 163 1 138 13 118 31 C 97 48 81 70 69 98 C 57 126 49 160 47 201 C 46 203 45 210 45 224 C 45 237 45 252 45 268 C 45 284 45 298 45 312 C 45 326 45 334 45 338 L 170 338 L 170 209 C 172 171 181 141 198 121 C 215 100 245 90 287 90 C 327 90 355 99 372 119 C 388 139 397 171 399 215 C 399 217 400 225 400 238 C 400 250 400 264 400 278 C 400 292 399 306 399 318 C 399 330 399 338 399 342 C 397 362 394 379 390 394 C 385 409 378 423 369 435 C 360 447 349 458 336 468 C 323 478 308 489 291 500 C 285 502 277 507 266 515 C 254 522 242 530 228 538 C 214 546 199 555 185 564 C 170 573 157 581 145 588 C 112 613 87 641 71 673 C 54 705 44 740 41 778 C 39 788 38 799 38 813 C 38 827 38 841 38 855 C 38 869 38 883 39 897 C 40 910 41 921 43 930 Z M 154 772 C 158 758 165 745 174 734 C 183 722 194 711 208 701 C 221 690 237 679 255 668 C 273 657 295 645 319 631 C 328 631 337 636 346 644 C 354 652 362 663 369 676 C 376 689 382 704 387 721 C 392 737 395 755 397 774 C 397 782 398 792 398 806 C 398 820 398 834 398 848 C 398 862 397 876 395 888 C 393 900 391 909 389 915 C 383 930 376 943 366 955 C 356 967 345 978 332 988 C 318 998 303 1007 286 1017 C 269 1026 251 1036 231 1047 C 221 1046 212 1042 203 1035 C 193 1028 185 1019 177 1007 C 169 995 162 981 157 965 C 151 949 148 933 147 915 C 145 905 144 894 144 881 C 143 868 143 855 143 841 C 143 827 144 814 146 802 C 148 790 150 780 154 772 Z" unicode="§" />
<glyph horiz-adv-x="586" d="M 477 1198 L 348 1198 L 348 1397 L 477 1397 L 477 1198 Z M 236 1198 L 109 1198 L 109 1397 L 236 1397 L 236 1198 Z" unicode="¨" />
<glyph horiz-adv-x="848" d="M 809 973 C 807 901 798 838 780 784 C 762 730 737 686 705 651 C 672 616 632 590 585 573 C 538 555 485 547 426 547 C 366 547 313 555 265 573 C 217 590 176 616 143 651 C 109 686 83 730 65 784 C 47 838 37 901 37 973 C 37 987 37 1004 37 1024 C 37 1044 37 1066 37 1090 C 37 1114 37 1139 37 1165 C 37 1191 38 1217 39 1243 C 39 1314 49 1375 69 1425 C 88 1475 115 1516 149 1548 C 183 1580 223 1603 270 1618 C 316 1632 368 1640 424 1640 C 478 1640 529 1632 576 1618 C 622 1604 663 1581 697 1549 C 731 1517 757 1476 777 1426 C 797 1375 807 1313 809 1241 C 809 1223 810 1203 810 1182 C 810 1160 810 1138 810 1115 C 810 1092 809 1068 809 1044 C 809 1020 809 996 809 973 Z M 745 1004 L 745 1251 C 743 1306 735 1354 719 1394 C 703 1434 682 1467 654 1493 C 626 1519 592 1538 553 1550 C 514 1562 471 1569 424 1569 C 376 1569 333 1563 294 1551 C 255 1539 221 1520 193 1494 C 165 1468 143 1436 127 1396 C 111 1356 102 1308 102 1253 C 101 1231 101 1208 101 1184 C 101 1160 101 1136 101 1114 C 101 1091 101 1070 101 1051 C 101 1031 102 1016 102 1004 C 102 933 110 873 126 823 C 141 773 163 733 191 702 C 219 671 252 649 292 635 C 332 621 376 614 424 614 C 476 614 521 620 561 634 C 600 648 633 670 660 701 C 687 732 708 772 722 822 C 736 871 743 932 745 1004 Z M 602 1004 C 601 998 600 989 600 977 C 600 965 600 952 600 939 C 600 926 599 914 599 903 C 599 891 598 883 598 879 C 594 831 576 795 544 771 C 512 747 471 735 422 735 C 368 735 326 747 297 772 C 268 797 252 833 248 879 C 246 895 245 910 245 924 C 245 938 244 953 244 968 C 244 982 244 997 244 1013 C 244 1029 244 1046 244 1065 C 244 1083 244 1102 244 1122 C 244 1142 245 1161 245 1179 C 245 1197 246 1213 246 1228 C 246 1242 247 1254 248 1262 C 250 1287 257 1309 267 1328 C 277 1346 291 1362 307 1374 C 323 1386 342 1396 363 1402 C 384 1408 406 1411 430 1411 C 482 1411 523 1397 551 1369 C 579 1341 594 1303 598 1255 C 599 1241 600 1224 601 1205 C 601 1186 602 1166 602 1145 L 508 1145 C 508 1163 508 1183 508 1204 C 508 1224 507 1241 506 1253 C 502 1274 495 1290 483 1302 C 471 1313 453 1319 430 1319 C 374 1319 344 1291 338 1237 C 337 1229 336 1218 336 1204 C 336 1190 336 1174 336 1158 C 336 1142 336 1125 336 1109 C 336 1092 336 1077 336 1065 C 336 1052 336 1038 336 1022 C 336 1006 337 991 337 977 C 337 963 338 950 338 938 C 338 926 339 917 340 911 C 342 877 350 852 364 838 C 378 824 399 817 426 817 C 450 817 470 823 484 835 C 498 847 506 870 508 905 C 508 915 509 925 509 935 C 509 945 510 955 510 964 C 510 973 510 981 510 988 C 510 995 510 1000 510 1004 L 602 1004 Z" unicode="©" />
<glyph horiz-adv-x="588" d="M 532 584 L 401 584 C 399 596 398 607 397 619 C 395 628 394 637 394 647 C 393 657 393 664 393 670 C 377 640 354 617 324 601 C 294 585 259 578 219 578 C 193 578 168 581 145 588 C 122 594 102 607 85 627 C 67 646 54 673 44 707 C 34 741 29 786 29 842 C 29 902 34 954 44 999 C 54 1043 73 1081 100 1111 C 127 1141 164 1165 211 1182 C 257 1199 317 1211 389 1217 C 389 1226 389 1239 389 1257 C 389 1274 390 1292 390 1312 C 390 1332 390 1351 390 1369 C 390 1387 391 1403 391 1415 C 389 1482 359 1516 301 1516 C 277 1516 257 1511 243 1502 C 228 1493 217 1479 209 1461 C 201 1442 196 1419 194 1391 C 191 1363 190 1330 190 1292 L 61 1292 C 59 1344 61 1391 67 1434 C 73 1477 85 1514 103 1544 C 121 1574 145 1598 177 1615 C 208 1631 248 1640 297 1640 C 337 1640 372 1635 401 1625 C 429 1615 452 1602 470 1584 C 488 1566 501 1544 509 1519 C 517 1493 521 1465 522 1434 C 522 1406 522 1374 522 1340 C 522 1305 521 1270 521 1234 C 521 1198 520 1162 520 1128 C 520 1094 520 1064 520 1038 C 519 1010 519 982 519 954 C 519 926 520 898 520 871 C 520 844 521 819 521 795 C 521 771 522 750 522 733 C 522 718 522 703 522 687 C 522 671 523 657 524 643 C 524 629 525 617 527 607 C 528 596 530 588 532 584 Z M 553 408 L 33 408 L 33 524 L 553 524 L 553 408 Z M 389 1104 C 345 1104 309 1100 279 1092 C 249 1084 225 1070 207 1051 C 197 1039 189 1028 183 1018 C 177 1008 173 996 171 982 C 168 968 166 951 166 932 C 166 912 166 888 166 858 C 166 797 172 754 185 730 C 198 706 220 694 252 694 C 287 694 315 703 336 721 C 357 739 371 765 377 797 C 382 821 385 848 386 877 C 386 905 387 939 389 977 L 389 1104 Z" unicode="ª" />
<glyph horiz-adv-x="645" d="M 610 268 L 322 657 L 322 766 L 610 1157 L 610 954 L 440 713 L 610 473 L 610 268 Z M 324 268 L 35 657 L 35 766 L 324 1157 L 324 954 L 154 713 L 324 473 L 324 268 Z" unicode="«" />
<glyph horiz-adv-x="1536" d="M 1116 352 L 1116 728 L 212 728 L 212 920 L 1296 920 L 1296 352 L 1116 352 Z" unicode="¬" />
<glyph horiz-adv-x="500" d="M 483 737 L 16 737 L 16 887 L 483 887 L 483 737 Z" unicode="­" />
<glyph horiz-adv-x="848" d="M 809 973 C 807 901 798 838 780 784 C 762 730 737 686 705 651 C 672 616 632 590 585 573 C 538 555 485 547 426 547 C 366 547 313 555 265 573 C 217 590 176 616 143 651 C 109 686 83 730 65 784 C 47 838 37 901 37 973 C 37 987 37 1004 37 1024 C 37 1044 37 1066 37 1090 C 37 1114 37 1139 37 1165 C 37 1191 38 1217 39 1243 C 39 1314 49 1375 69 1425 C 88 1475 115 1516 149 1548 C 183 1580 223 1603 270 1618 C 316 1632 368 1640 424 1640 C 478 1640 529 1632 576 1618 C 622 1604 663 1581 697 1549 C 731 1517 757 1476 777 1426 C 797 1375 807 1313 809 1241 C 809 1223 810 1203 810 1182 C 810 1160 810 1138 810 1115 C 810 1092 809 1068 809 1044 C 809 1020 809 996 809 973 Z M 745 1004 L 745 1251 C 743 1306 735 1354 719 1394 C 703 1434 682 1467 654 1493 C 626 1519 592 1538 553 1550 C 514 1562 471 1569 424 1569 C 376 1569 333 1563 294 1551 C 255 1539 221 1520 193 1494 C 165 1468 143 1436 127 1396 C 111 1356 102 1308 102 1253 C 101 1231 101 1208 101 1184 C 101 1160 101 1136 101 1114 C 101 1091 101 1070 101 1051 C 101 1031 102 1016 102 1004 C 102 934 111 874 127 824 C 143 774 165 734 193 703 C 221 672 255 649 294 635 C 333 621 376 614 424 614 C 476 614 521 621 561 635 C 600 649 633 671 660 702 C 687 733 708 773 722 823 C 736 873 743 933 745 1004 Z M 618 754 L 510 754 L 420 1020 L 340 1020 L 340 754 L 236 754 L 236 1386 L 428 1386 C 465 1386 498 1379 528 1367 C 558 1355 578 1339 590 1321 C 601 1302 608 1282 612 1262 C 616 1241 618 1223 618 1208 C 618 1200 617 1191 616 1180 C 614 1169 612 1158 610 1146 C 608 1134 605 1123 602 1112 C 598 1101 594 1092 590 1085 C 580 1069 569 1058 556 1050 C 543 1042 531 1037 520 1034 L 618 754 Z M 514 1192 C 514 1209 511 1226 505 1244 C 499 1262 488 1276 471 1286 C 457 1293 440 1297 420 1298 C 400 1299 373 1300 340 1300 L 340 1100 C 366 1100 391 1100 413 1100 C 435 1100 452 1102 463 1106 C 481 1112 494 1121 502 1135 C 510 1148 514 1167 514 1192 Z" unicode="®" />
<glyph horiz-adv-x="586" d="M 487 1225 L 96 1225 L 96 1333 L 487 1333 L 487 1225 Z" unicode="¯" />
<glyph horiz-adv-x="414" d="M 207 1536 C 233 1536 257 1531 280 1521 C 302 1511 322 1497 339 1479 C 355 1461 368 1441 378 1418 C 388 1394 393 1369 393 1343 C 393 1315 388 1290 378 1267 C 368 1243 355 1223 339 1206 C 322 1189 302 1176 280 1166 C 257 1156 233 1151 207 1151 C 181 1151 157 1156 135 1166 C 113 1176 93 1189 77 1206 C 60 1223 47 1243 37 1267 C 27 1290 23 1315 23 1343 C 23 1369 27 1394 37 1418 C 47 1441 60 1461 77 1479 C 93 1497 113 1511 135 1521 C 157 1531 181 1536 207 1536 Z M 207 1436 C 194 1436 182 1433 171 1429 C 159 1424 149 1417 141 1409 C 133 1400 126 1390 122 1379 C 117 1367 115 1355 115 1343 C 115 1329 117 1317 122 1306 C 126 1294 133 1285 141 1277 C 149 1269 159 1262 171 1258 C 182 1253 194 1251 207 1251 C 233 1251 255 1259 273 1277 C 290 1294 299 1316 299 1343 C 299 1369 290 1391 273 1409 C 255 1427 233 1436 207 1436 Z" unicode="°" />
<glyph horiz-adv-x="1536" d="M 672 352 L 672 764 L 200 764 L 200 936 L 672 936 L 672 1352 L 864 1352 L 864 936 L 1340 936 L 1340 764 L 864 764 L 864 352 L 672 352 Z M 204 24 L 204 216 L 1336 216 L 1336 24 L 204 24 Z" unicode="±" />
<glyph horiz-adv-x="543" d="M 475 795 L 61 795 L 61 877 C 71 913 86 946 106 977 C 125 1007 146 1036 169 1064 C 191 1092 214 1119 238 1145 C 261 1171 282 1197 301 1223 C 319 1249 335 1277 347 1305 C 359 1333 365 1363 365 1395 L 365 1444 C 365 1484 356 1512 340 1527 C 323 1542 298 1550 266 1550 C 238 1550 217 1543 204 1529 C 190 1515 182 1492 178 1458 C 176 1446 175 1430 175 1411 C 174 1391 174 1373 174 1356 L 68 1356 C 68 1369 68 1386 68 1406 C 68 1426 68 1442 70 1456 C 74 1513 93 1558 127 1591 C 160 1623 211 1640 279 1640 C 314 1640 344 1635 368 1626 C 392 1617 412 1605 428 1589 C 443 1573 454 1554 461 1532 C 468 1510 472 1486 473 1460 L 473 1378 C 472 1346 466 1317 456 1290 C 446 1262 432 1236 415 1210 C 398 1184 379 1159 359 1135 C 338 1110 317 1085 297 1059 C 277 1033 258 1007 240 979 C 222 951 208 921 197 889 L 475 889 L 475 795 Z" unicode="²" />
<glyph horiz-adv-x="541" d="M 301 1212 C 341 1210 374 1205 398 1197 C 422 1189 441 1178 455 1165 C 469 1152 478 1138 483 1122 C 487 1106 490 1090 492 1075 C 494 1040 494 1003 492 965 C 490 929 483 900 472 877 C 460 853 445 834 426 820 C 407 805 385 795 359 789 C 333 783 305 780 274 780 C 243 780 215 783 190 789 C 164 795 142 804 124 817 C 105 829 90 845 80 865 C 69 885 63 908 63 936 C 62 948 61 960 61 973 C 61 985 61 997 61 1007 C 61 1017 61 1026 61 1033 C 61 1039 61 1043 61 1044 L 170 1044 L 170 934 C 170 907 179 889 197 879 C 215 869 242 864 276 864 C 296 864 312 866 325 870 C 338 874 348 881 356 889 C 364 897 369 906 373 918 C 376 929 378 942 379 956 L 379 1055 C 378 1070 376 1084 373 1096 C 370 1108 364 1118 355 1126 C 345 1134 332 1141 315 1147 C 298 1152 276 1155 248 1157 C 247 1157 242 1157 234 1157 C 226 1157 217 1158 207 1159 C 195 1159 182 1160 168 1161 L 168 1251 L 206 1253 C 215 1253 224 1254 232 1254 C 240 1254 245 1255 246 1255 C 268 1259 287 1263 303 1268 C 318 1273 330 1280 340 1290 C 349 1299 355 1311 359 1327 C 363 1342 365 1362 365 1386 C 365 1410 365 1428 366 1441 C 366 1453 366 1466 365 1479 C 363 1504 355 1522 341 1534 C 327 1546 305 1552 276 1552 C 216 1552 186 1528 184 1481 C 184 1471 184 1460 184 1448 C 184 1436 185 1426 185 1416 C 185 1406 185 1397 185 1391 C 185 1384 186 1380 186 1380 L 78 1380 C 78 1380 78 1384 78 1392 C 78 1399 79 1408 80 1419 C 80 1430 81 1442 82 1455 C 82 1467 83 1479 84 1489 C 86 1535 103 1572 136 1600 C 168 1628 216 1642 279 1642 C 317 1642 348 1637 373 1629 C 397 1621 417 1609 432 1595 C 446 1581 457 1564 463 1545 C 469 1525 472 1505 473 1483 L 473 1395 C 472 1365 469 1340 464 1319 C 459 1297 450 1279 437 1265 C 424 1250 407 1238 385 1230 C 363 1222 335 1216 301 1212 Z" unicode="³" />
<glyph horiz-adv-x="586" d="M 190 1198 L 313 1446 L 463 1446 L 315 1198 L 190 1198 Z" unicode="´" />
<glyph horiz-adv-x="1408" d="M 252 -424 C 214 -424 186 -413 168 -392 C 149 -370 140 -333 140 -280 C 140 -226 141 -168 144 -106 C 146 -43 150 25 156 100 C 161 166 165 218 168 256 C 170 293 172 317 172 328 C 174 341 176 350 176 356 L 176 1176 L 368 1176 L 368 320 C 368 258 395 210 450 176 C 504 141 564 124 628 124 C 716 124 792 146 858 190 C 923 234 973 297 1008 380 L 1008 1176 L 1200 1176 L 1200 308 L 1220 0 L 1056 0 L 1020 176 C 974 104 913 50 836 14 C 758 -22 670 -40 572 -40 C 537 -40 494 -31 444 -14 C 393 3 353 28 324 60 C 324 1 333 -56 352 -112 C 370 -168 380 -218 380 -264 C 380 -370 337 -424 252 -424 Z" unicode="µ" />
<glyph horiz-adv-x="600" d="M 557 1634 L 557 -209 L 487 -209 L 487 1518 L 440 1518 L 440 -209 L 367 -209 L 367 539 C 353 518 334 501 310 488 C 285 475 256 469 223 469 C 115 469 55 526 41 641 C 35 687 31 743 29 809 C 27 875 27 954 27 1047 C 27 1115 27 1171 27 1214 C 27 1257 28 1293 29 1322 C 30 1351 32 1376 34 1397 C 36 1418 39 1441 43 1466 C 51 1520 71 1563 103 1595 C 135 1626 175 1642 225 1642 C 240 1642 255 1640 270 1637 C 285 1633 299 1629 312 1623 C 325 1617 337 1609 347 1600 C 357 1591 365 1581 371 1569 L 397 1634 L 557 1634 Z M 369 1071 L 369 1411 C 369 1427 366 1442 361 1454 C 356 1466 350 1476 342 1484 C 334 1492 324 1497 314 1501 C 304 1505 293 1507 283 1507 C 268 1507 255 1505 245 1501 C 235 1497 226 1491 219 1483 C 211 1474 205 1462 201 1448 C 196 1433 192 1415 190 1393 C 187 1367 185 1338 183 1306 C 181 1274 180 1242 179 1211 C 178 1179 177 1150 177 1123 C 176 1095 176 1073 176 1057 C 176 1037 176 1010 176 976 C 176 942 177 906 178 868 C 179 830 180 794 182 759 C 183 724 185 697 188 678 C 191 650 201 629 217 616 C 233 602 253 596 276 596 C 304 596 325 604 340 622 C 355 639 364 663 367 694 C 367 702 368 718 368 744 C 368 769 369 799 369 835 C 369 871 369 909 369 950 C 369 991 369 1031 369 1071 Z" unicode="¶" />
<glyph horiz-adv-x="369" d="M 276 668 L 90 668 L 90 936 L 276 936 L 276 668 Z" unicode="·" />
<glyph horiz-adv-x="586" d="M 362 -199 C 362 -171 350 -153 328 -143 C 305 -133 274 -129 236 -129 L 236 0 L 330 0 L 330 -61 C 375 -61 411 -75 438 -103 C 465 -131 479 -169 479 -215 C 479 -240 473 -264 461 -286 C 449 -308 430 -326 405 -341 C 380 -356 349 -367 311 -373 C 273 -379 229 -378 178 -371 L 178 -283 C 243 -293 290 -289 319 -273 C 347 -256 362 -231 362 -199 Z" unicode="¸" />
<glyph horiz-adv-x="475" d="M 313 795 L 205 795 L 205 1460 L 33 1446 L 33 1530 C 57 1530 81 1533 103 1539 C 125 1545 146 1552 164 1562 C 182 1572 197 1583 210 1596 C 222 1608 232 1622 238 1636 L 313 1636 L 313 795 Z" unicode="¹" />
<glyph horiz-adv-x="590" d="M 547 1116 C 547 1084 546 1051 545 1018 C 543 985 541 953 539 922 C 537 891 534 862 530 834 C 526 806 522 782 518 762 C 506 703 481 657 443 624 C 405 591 355 575 293 575 C 259 575 230 579 205 589 C 179 598 157 611 139 627 C 120 643 105 662 93 684 C 81 706 73 730 68 756 C 64 776 60 800 57 828 C 53 856 50 886 48 918 C 46 950 44 983 43 1017 C 41 1051 41 1084 41 1116 C 41 1146 41 1176 42 1208 C 42 1240 44 1270 46 1300 C 48 1330 50 1358 54 1385 C 57 1411 61 1435 66 1456 C 72 1483 81 1508 93 1531 C 105 1553 120 1573 139 1590 C 158 1606 180 1619 206 1628 C 232 1637 261 1642 295 1642 C 363 1642 415 1625 452 1592 C 489 1558 514 1512 526 1452 C 530 1433 533 1411 536 1385 C 539 1359 541 1332 543 1302 C 544 1272 545 1242 546 1210 C 546 1178 547 1146 547 1116 Z M 567 408 L 33 408 L 33 524 L 567 524 L 567 408 Z M 412 1114 C 412 1142 411 1170 411 1200 C 410 1230 409 1258 408 1286 C 406 1314 405 1339 403 1363 C 401 1386 398 1405 395 1421 C 389 1455 377 1478 361 1492 C 344 1506 321 1513 293 1513 C 237 1513 202 1483 190 1423 C 186 1405 183 1384 181 1360 C 179 1336 177 1310 176 1283 C 175 1255 174 1227 174 1198 C 174 1169 174 1141 174 1114 C 174 1085 174 1055 175 1023 C 176 991 178 961 180 931 C 182 901 184 873 187 847 C 189 821 193 799 197 782 C 202 753 213 732 230 718 C 246 704 267 698 293 698 C 319 698 341 705 358 719 C 374 733 385 755 391 784 C 393 800 396 822 399 848 C 401 874 404 901 406 931 C 408 961 409 991 410 1023 C 411 1055 412 1085 412 1114 Z" unicode="º" />
<glyph horiz-adv-x="645" d="M 324 274 L 324 479 L 494 719 L 324 963 L 324 1165 L 612 774 L 612 666 L 324 274 Z M 35 274 L 35 479 L 207 719 L 35 963 L 35 1165 L 326 774 L 326 666 L 35 274 Z" unicode="»" />
<glyph horiz-adv-x="961" d="M 295 795 L 186 795 L 186 1460 L 12 1446 L 12 1530 C 64 1531 108 1542 145 1562 C 182 1582 207 1607 221 1636 L 295 1636 L 295 795 Z M 715 1634 C 687 1536 659 1437 632 1339 C 620 1297 607 1252 594 1206 C 581 1160 568 1113 555 1066 C 542 1019 529 973 516 927 C 503 881 491 837 479 797 C 468 758 457 717 445 674 C 433 630 420 586 408 542 C 395 498 382 453 370 409 C 358 365 346 323 336 283 C 309 188 283 94 258 0 L 176 0 C 204 100 233 202 262 304 C 274 347 286 392 300 440 C 314 488 327 536 341 585 C 355 633 368 681 382 729 C 395 776 408 821 420 864 C 430 901 441 941 453 983 C 465 1025 477 1067 489 1110 C 501 1153 513 1196 525 1239 C 537 1281 548 1322 559 1361 C 584 1451 609 1542 635 1634 L 715 1634 Z M 926 240 L 836 240 L 836 0 L 729 0 L 729 240 L 451 240 L 451 334 L 713 838 L 836 838 L 836 332 L 926 332 L 926 240 Z M 729 332 L 729 688 L 553 332 L 729 332 Z" unicode="¼" />
<glyph horiz-adv-x="954" d="M 293 795 L 184 795 L 184 1460 L 10 1446 L 10 1530 C 60 1531 104 1542 142 1562 C 180 1582 205 1607 219 1636 L 293 1636 L 293 795 Z M 682 1634 C 654 1536 627 1437 599 1339 C 587 1297 574 1252 561 1206 C 547 1160 534 1113 521 1066 C 507 1019 494 973 481 927 C 468 881 456 837 444 797 C 433 758 422 717 410 674 C 398 630 385 586 373 542 C 360 498 347 453 335 409 C 323 365 311 323 301 283 C 274 188 248 94 223 0 L 143 0 C 172 100 201 202 230 304 C 242 347 254 392 268 440 C 282 488 295 536 309 585 C 323 633 336 681 349 729 C 362 776 375 821 387 864 C 397 901 408 941 420 983 C 432 1025 444 1067 456 1110 C 468 1153 480 1196 492 1239 C 504 1281 515 1322 526 1361 C 551 1451 576 1542 602 1634 L 682 1634 Z M 913 0 L 502 0 L 502 82 C 512 118 527 151 546 182 C 565 213 586 242 608 270 C 630 298 653 324 676 350 C 699 376 720 402 739 428 C 757 454 773 482 785 510 C 797 538 803 568 803 600 L 803 649 C 803 690 795 718 779 733 C 763 748 739 756 705 756 C 677 756 656 749 644 735 C 631 721 622 698 618 664 C 616 651 615 635 615 616 C 614 596 614 578 614 561 L 508 561 C 508 567 508 575 508 584 C 508 593 508 602 508 611 C 508 620 508 629 508 638 C 508 647 509 655 510 662 C 514 718 533 763 566 796 C 599 829 649 846 717 846 C 752 846 782 841 806 832 C 830 823 850 811 866 795 C 882 779 893 760 900 738 C 907 716 911 692 913 666 C 913 662 912 656 912 649 C 912 641 912 633 912 625 C 912 617 911 609 911 601 C 911 593 911 588 911 584 C 910 552 904 523 894 495 C 883 467 869 441 853 415 C 836 389 817 364 797 340 C 776 315 755 290 735 264 C 714 238 695 211 677 183 C 659 155 645 124 635 92 L 913 92 L 913 0 Z" unicode="½" />
<glyph horiz-adv-x="1030" d="M 260 1212 C 300 1210 332 1205 356 1197 C 380 1189 399 1178 413 1165 C 427 1152 436 1138 441 1122 C 446 1106 449 1090 451 1075 C 453 1040 453 1003 451 965 C 449 929 442 900 431 877 C 419 853 404 834 386 820 C 367 805 345 795 319 789 C 293 783 265 780 233 780 C 203 780 175 783 150 789 C 124 795 102 804 84 817 C 65 829 50 845 40 865 C 29 885 23 908 23 936 C 22 948 21 960 21 973 C 21 985 20 997 20 1007 C 20 1017 20 1026 20 1033 C 20 1039 20 1043 20 1044 L 129 1044 L 129 934 C 129 907 138 889 157 879 C 175 869 202 864 236 864 C 256 864 272 866 285 870 C 297 874 307 881 315 889 C 323 897 328 906 332 918 C 335 929 337 942 338 956 L 338 1055 C 337 1070 335 1084 332 1096 C 329 1108 323 1118 314 1126 C 304 1134 291 1141 274 1147 C 257 1152 235 1155 207 1157 C 206 1157 201 1157 193 1157 C 185 1157 176 1158 167 1159 L 129 1161 L 129 1251 C 142 1251 154 1252 166 1253 C 175 1253 184 1254 192 1254 C 200 1254 204 1255 205 1255 C 227 1259 246 1263 262 1268 C 277 1273 289 1280 299 1290 C 308 1299 315 1311 319 1327 C 323 1342 325 1362 326 1386 L 326 1479 C 324 1504 316 1522 301 1534 C 286 1546 264 1552 236 1552 C 177 1552 147 1528 145 1481 C 144 1471 143 1460 143 1448 C 143 1436 143 1426 143 1416 C 143 1406 143 1397 143 1391 C 143 1384 143 1380 143 1380 L 37 1380 C 37 1380 37 1384 37 1392 C 37 1399 38 1408 38 1419 C 38 1430 39 1442 39 1455 C 39 1467 40 1479 41 1489 C 44 1535 62 1572 95 1600 C 127 1628 175 1642 238 1642 C 276 1642 307 1637 332 1629 C 356 1621 376 1609 391 1595 C 405 1581 416 1564 422 1545 C 428 1525 431 1505 432 1483 L 432 1395 C 432 1365 429 1340 424 1319 C 419 1297 410 1279 398 1265 C 385 1250 367 1238 345 1230 C 323 1222 294 1216 260 1212 Z M 803 1634 C 774 1536 746 1437 718 1339 C 706 1297 693 1252 680 1206 C 667 1160 654 1113 641 1066 C 627 1019 614 973 601 927 C 588 881 576 837 565 797 C 554 758 543 717 531 674 C 519 630 506 586 494 542 C 481 498 468 453 456 409 C 444 365 432 323 422 283 C 395 188 369 94 344 0 L 264 0 C 293 100 322 202 351 304 C 363 347 375 392 389 440 C 403 488 416 536 430 585 C 444 633 457 681 470 729 C 483 776 496 821 508 864 C 518 901 529 941 541 983 C 553 1025 565 1067 577 1110 C 589 1153 601 1196 613 1239 C 625 1281 636 1322 648 1361 C 674 1451 699 1542 725 1634 L 803 1634 Z M 1008 240 L 918 240 L 918 0 L 813 0 L 813 240 L 535 240 L 535 334 L 795 838 L 918 838 L 918 332 L 1008 332 L 1008 240 Z M 813 332 L 813 690 L 635 332 L 813 332 Z" unicode="¾" />
<glyph horiz-adv-x="608" d="M 258 1634 L 414 1634 L 414 1372 L 258 1372 L 258 1634 Z M 43 426 C 44 471 51 512 64 550 C 76 588 92 625 110 661 C 128 697 147 735 167 774 C 187 812 206 855 223 902 C 239 949 253 1002 263 1061 C 273 1119 278 1187 276 1264 L 401 1264 C 403 1178 400 1104 392 1042 C 383 979 371 924 356 876 C 340 828 323 785 305 747 C 287 709 269 673 253 637 C 237 601 223 565 211 528 C 199 490 193 448 193 401 C 192 390 191 378 191 365 C 191 352 191 339 191 326 C 191 313 191 301 192 289 C 192 277 193 266 195 258 C 196 214 205 180 223 157 C 241 134 271 123 315 123 C 355 123 385 134 406 157 C 426 179 438 210 440 248 C 440 253 441 263 441 278 C 441 293 442 309 442 326 C 442 342 442 358 442 373 C 442 387 442 397 442 403 L 580 403 C 580 387 579 369 579 350 C 579 331 578 313 578 295 C 578 277 577 261 577 247 C 576 233 575 222 575 215 C 569 143 543 87 498 48 C 452 9 387 -10 303 -10 C 217 -10 154 9 113 49 C 71 88 48 149 43 231 C 41 245 41 260 41 278 C 41 295 41 312 41 330 C 41 348 41 365 41 382 C 41 398 42 413 43 426 Z" unicode="¿" />
<glyph horiz-adv-x="690" d="M 207 401 C 206 395 205 385 203 371 C 201 357 199 340 196 320 C 193 300 190 278 187 255 C 183 231 180 208 177 184 C 169 128 160 66 150 0 L 0 0 L 264 1634 L 461 1634 L 690 0 L 539 0 C 531 67 523 129 516 185 C 512 209 509 232 506 256 C 503 279 500 300 498 320 C 495 340 493 357 491 371 C 489 385 487 395 487 401 L 207 401 Z M 465 543 C 448 657 433 761 421 854 C 415 893 410 932 405 970 C 399 1008 395 1043 391 1074 C 387 1105 383 1131 381 1152 C 378 1173 377 1186 377 1190 C 377 1194 376 1201 376 1211 C 375 1221 374 1232 373 1246 C 372 1260 371 1275 370 1291 C 368 1307 367 1324 366 1340 C 363 1378 360 1420 356 1466 C 352 1420 348 1378 345 1341 C 343 1325 342 1309 340 1293 C 338 1277 337 1262 336 1248 C 335 1234 334 1223 333 1213 C 332 1203 332 1196 332 1192 C 331 1186 329 1172 326 1151 C 323 1129 319 1103 315 1072 C 310 1040 305 1005 299 967 C 293 929 287 890 281 851 C 267 759 251 656 233 543 L 465 543 Z M 444 1704 L 313 1704 L 170 1952 L 317 1952 L 444 1704 Z" unicode="À" />
<glyph horiz-adv-x="690" d="M 207 401 C 206 395 205 385 203 371 C 201 357 199 340 196 320 C 193 300 190 278 187 255 C 183 231 180 208 177 184 C 169 128 160 66 150 0 L 0 0 L 264 1634 L 461 1634 L 690 0 L 539 0 C 531 67 523 129 516 185 C 512 209 509 232 506 256 C 503 279 500 300 498 320 C 495 340 493 357 491 371 C 489 385 487 395 487 401 L 207 401 Z M 465 543 C 448 657 433 761 421 854 C 415 893 410 932 405 970 C 399 1008 395 1043 391 1074 C 387 1105 383 1131 381 1152 C 378 1173 377 1186 377 1190 C 377 1194 376 1201 376 1211 C 375 1221 374 1232 373 1246 C 372 1260 371 1275 370 1291 C 368 1307 367 1324 366 1340 C 363 1378 360 1420 356 1466 C 352 1420 348 1378 345 1341 C 343 1325 342 1309 340 1293 C 338 1277 337 1262 336 1248 C 335 1234 334 1223 333 1213 C 332 1203 332 1196 332 1192 C 331 1186 329 1172 326 1151 C 323 1129 319 1103 315 1072 C 310 1040 305 1005 299 967 C 293 929 287 890 281 851 C 267 759 251 656 233 543 L 465 543 Z M 287 1704 L 410 1952 L 559 1952 L 412 1704 L 287 1704 Z" unicode="Á" />
<glyph horiz-adv-x="690" d="M 207 401 C 206 395 205 385 203 371 C 201 357 199 340 196 320 C 193 300 190 278 187 255 C 183 231 180 208 177 184 C 169 128 160 66 150 0 L 0 0 L 264 1634 L 461 1634 L 690 0 L 539 0 C 531 67 523 129 516 185 C 512 209 509 232 506 256 C 503 279 500 300 498 320 C 495 340 493 357 491 371 C 489 385 487 395 487 401 L 207 401 Z M 465 543 C 448 657 433 761 421 854 C 415 893 410 932 405 970 C 399 1008 395 1043 391 1074 C 387 1105 383 1131 381 1152 C 378 1173 377 1186 377 1190 C 377 1194 376 1201 376 1211 C 375 1221 374 1232 373 1246 C 372 1260 371 1275 370 1291 C 368 1307 367 1324 366 1340 C 363 1378 360 1420 356 1466 C 352 1420 348 1378 345 1341 C 343 1325 342 1309 340 1293 C 338 1277 337 1262 336 1248 C 335 1234 334 1223 333 1213 C 332 1203 332 1196 332 1192 C 331 1186 329 1172 326 1151 C 323 1129 319 1103 315 1072 C 310 1040 305 1005 299 967 C 293 929 287 890 281 851 C 267 759 251 656 233 543 L 465 543 Z M 567 1706 L 446 1706 L 356 1864 L 268 1706 L 150 1706 L 281 1954 L 438 1954 L 567 1706 Z" unicode="Â" />
<glyph horiz-adv-x="690" d="M 207 401 C 206 395 205 385 203 371 C 201 357 199 340 196 320 C 193 300 190 278 187 255 C 183 231 180 208 177 184 C 169 128 160 66 150 0 L 0 0 L 264 1634 L 461 1634 L 690 0 L 539 0 C 531 67 523 129 516 185 C 512 209 509 232 506 256 C 503 279 500 300 498 320 C 495 340 493 357 491 371 C 489 385 487 395 487 401 L 207 401 Z M 465 543 C 448 657 433 761 421 854 C 415 893 410 932 405 970 C 399 1008 395 1043 391 1074 C 387 1105 383 1131 381 1152 C 378 1173 377 1186 377 1190 C 377 1194 376 1201 376 1211 C 375 1221 374 1232 373 1246 C 372 1260 371 1275 370 1291 C 368 1307 367 1324 366 1340 C 363 1378 360 1420 356 1466 C 352 1420 348 1378 345 1341 C 343 1325 342 1309 340 1293 C 338 1277 337 1262 336 1248 C 335 1234 334 1223 333 1213 C 332 1203 332 1196 332 1192 C 331 1186 329 1172 326 1151 C 323 1129 319 1103 315 1072 C 310 1040 305 1005 299 967 C 293 929 287 890 281 851 C 267 759 251 656 233 543 L 465 543 Z M 350 1745 C 336 1758 324 1770 313 1780 C 301 1790 290 1796 279 1796 C 264 1796 252 1789 243 1776 C 234 1763 229 1742 227 1712 L 127 1720 C 129 1748 133 1774 141 1798 C 148 1822 157 1842 169 1859 C 181 1876 195 1889 211 1899 C 227 1908 244 1913 264 1913 C 285 1913 305 1909 325 1903 C 345 1897 363 1883 381 1862 C 391 1849 399 1839 407 1833 C 415 1826 424 1823 436 1823 C 452 1823 464 1829 472 1842 C 480 1855 485 1877 489 1909 L 588 1898 C 584 1838 570 1791 546 1757 C 522 1723 489 1706 449 1706 C 429 1706 412 1708 397 1712 C 382 1716 366 1727 350 1745 Z" unicode="Ã" />
<glyph horiz-adv-x="690" d="M 207 401 C 206 395 205 385 203 371 C 201 357 199 340 196 320 C 193 300 190 278 187 255 C 183 231 180 208 177 184 C 169 128 160 66 150 0 L 0 0 L 264 1634 L 461 1634 L 690 0 L 539 0 C 531 67 523 129 516 185 C 512 209 509 232 506 256 C 503 279 500 300 498 320 C 495 340 493 357 491 371 C 489 385 487 395 487 401 L 207 401 Z M 465 543 C 448 657 433 761 421 854 C 415 893 410 932 405 970 C 399 1008 395 1043 391 1074 C 387 1105 383 1131 381 1152 C 378 1173 377 1186 377 1190 C 377 1194 376 1201 376 1211 C 375 1221 374 1232 373 1246 C 372 1260 371 1275 370 1291 C 368 1307 367 1324 366 1340 C 363 1378 360 1420 356 1466 C 352 1420 348 1378 345 1341 C 343 1325 342 1309 340 1293 C 338 1277 337 1262 336 1248 C 335 1234 334 1223 333 1213 C 332 1203 332 1196 332 1192 C 331 1186 329 1172 326 1151 C 323 1129 319 1103 315 1072 C 310 1040 305 1005 299 967 C 293 929 287 890 281 851 C 267 759 251 656 233 543 L 465 543 Z M 543 1704 L 414 1704 L 414 1903 L 543 1903 L 543 1704 Z M 301 1704 L 174 1704 L 174 1903 L 301 1903 L 301 1704 Z" unicode="Ä" />
<glyph horiz-adv-x="690" d="M 260 1612 C 248 1626 238 1642 230 1660 C 222 1678 219 1697 219 1718 C 219 1738 222 1758 230 1776 C 237 1794 247 1810 260 1824 C 273 1838 288 1848 305 1856 C 322 1864 340 1868 360 1868 C 380 1868 398 1864 416 1856 C 434 1848 449 1838 463 1824 C 476 1810 486 1794 494 1776 C 502 1758 506 1738 506 1718 C 506 1697 502 1678 494 1660 C 486 1642 476 1627 463 1614 L 690 0 L 539 0 C 531 67 523 129 516 185 C 512 209 509 232 506 256 C 503 279 500 300 498 320 C 495 340 493 357 491 371 C 489 385 487 395 487 401 L 207 401 C 206 395 205 385 203 371 C 201 357 199 340 196 320 C 193 300 190 278 187 255 C 183 231 180 208 177 184 C 169 128 160 66 150 0 L 0 0 L 260 1612 Z M 360 1788 C 342 1788 327 1781 315 1767 C 303 1753 297 1736 297 1718 C 297 1700 303 1685 315 1671 C 327 1657 342 1651 360 1651 C 378 1651 394 1657 407 1671 C 419 1685 426 1700 426 1718 C 426 1736 419 1753 407 1767 C 394 1781 378 1788 360 1788 Z M 465 543 C 448 657 433 761 421 854 C 415 893 410 932 405 970 C 399 1008 395 1043 391 1074 C 387 1105 383 1131 381 1152 C 378 1173 377 1186 377 1190 C 377 1194 376 1201 376 1211 C 375 1221 374 1232 373 1246 C 372 1260 371 1275 370 1291 C 368 1307 367 1324 366 1340 C 363 1378 360 1420 356 1466 C 352 1420 348 1378 345 1341 C 343 1325 342 1309 340 1293 C 338 1277 337 1262 336 1248 C 335 1234 334 1223 333 1213 C 332 1203 332 1196 332 1192 C 331 1186 329 1172 326 1151 C 323 1129 319 1103 315 1072 C 310 1040 305 1005 299 967 C 293 929 287 890 281 851 C 267 759 251 656 233 543 L 465 543 Z" unicode="Å" />
<glyph horiz-adv-x="928" d="M 918 1634 L 918 1491 L 557 1491 L 557 897 L 883 897 L 883 754 L 557 754 L 557 143 L 915 143 L 915 0 L 412 0 L 412 389 L 219 389 L 150 0 L -2 0 L 326 1634 L 918 1634 Z M 410 1450 L 394 1340 C 392 1326 390 1312 388 1299 C 386 1285 384 1273 383 1263 C 381 1252 380 1243 379 1236 C 377 1229 377 1225 377 1225 L 244 524 L 410 524 L 410 1450 Z" unicode="Æ" />
<glyph horiz-adv-x="731" d="M 332 -16 C 270 -10 220 7 183 38 C 146 69 118 117 98 183 C 78 249 66 334 60 439 C 54 544 51 673 51 827 C 51 963 53 1081 58 1183 C 62 1285 75 1369 96 1437 C 117 1505 149 1555 193 1589 C 237 1623 298 1640 377 1640 C 452 1640 511 1625 554 1597 C 596 1568 628 1529 649 1479 C 670 1429 683 1371 688 1304 C 693 1237 696 1166 696 1090 L 545 1090 C 545 1159 543 1219 539 1270 C 535 1321 527 1363 515 1397 C 503 1430 487 1455 465 1471 C 443 1487 415 1495 379 1495 C 353 1495 331 1491 313 1484 C 295 1477 279 1465 267 1447 C 254 1429 244 1404 236 1372 C 228 1340 221 1300 217 1251 C 213 1201 210 1142 209 1072 C 207 1002 207 921 207 827 C 207 724 207 635 209 561 C 211 487 214 424 218 372 C 222 320 229 277 237 245 C 245 213 256 188 269 170 C 282 152 298 140 317 134 C 336 128 359 125 385 125 C 425 125 456 136 477 159 C 498 181 513 212 523 250 C 533 288 539 332 541 382 C 543 432 545 485 549 541 L 700 541 C 698 467 695 397 689 332 C 683 266 670 209 651 160 C 632 110 605 70 569 39 C 533 8 486 -10 426 -16 L 426 -61 C 471 -61 507 -75 534 -103 C 561 -131 575 -169 575 -215 C 575 -240 569 -264 557 -286 C 545 -308 526 -326 501 -341 C 476 -356 445 -367 407 -373 C 369 -379 325 -378 274 -371 L 274 -283 C 340 -293 387 -289 416 -273 C 444 -256 459 -231 459 -199 C 459 -171 447 -153 425 -143 C 402 -133 371 -129 332 -129 L 332 -16 Z" unicode="Ç" />
<glyph horiz-adv-x="633" d="M 608 0 L 80 0 L 80 1634 L 606 1634 L 606 1491 L 229 1491 L 229 897 L 575 897 L 575 754 L 229 754 L 229 143 L 608 143 L 608 0 Z M 449 1704 L 317 1704 L 174 1952 L 322 1952 L 449 1704 Z" unicode="È" />
<glyph horiz-adv-x="633" d="M 608 0 L 80 0 L 80 1634 L 606 1634 L 606 1491 L 229 1491 L 229 897 L 575 897 L 575 754 L 229 754 L 229 143 L 608 143 L 608 0 Z M 246 1704 L 369 1952 L 518 1952 L 371 1704 L 246 1704 Z" unicode="É" />
<glyph horiz-adv-x="633" d="M 608 0 L 80 0 L 80 1634 L 606 1634 L 606 1491 L 229 1491 L 229 897 L 575 897 L 575 754 L 229 754 L 229 143 L 608 143 L 608 0 Z M 555 1706 L 434 1706 L 344 1864 L 256 1706 L 137 1706 L 268 1954 L 426 1954 L 555 1706 Z" unicode="Ê" />
<glyph horiz-adv-x="633" d="M 608 0 L 80 0 L 80 1634 L 606 1634 L 606 1491 L 229 1491 L 229 897 L 575 897 L 575 754 L 229 754 L 229 143 L 608 143 L 608 0 Z M 528 1704 L 399 1704 L 399 1903 L 528 1903 L 528 1704 Z M 287 1704 L 160 1704 L 160 1903 L 287 1903 L 287 1704 Z" unicode="Ë" />
<glyph horiz-adv-x="315" d="M 236 0 L 80 0 L 80 1634 L 236 1634 L 236 0 Z M 238 1704 L 106 1704 L -37 1952 L 111 1952 L 238 1704 Z" unicode="Ì" />
<glyph horiz-adv-x="315" d="M 236 0 L 80 0 L 80 1634 L 236 1634 L 236 0 Z M 80 1704 L 203 1952 L 352 1952 L 205 1704 L 80 1704 Z" unicode="Í" />
<glyph horiz-adv-x="315" d="M 236 0 L 80 0 L 80 1634 L 236 1634 L 236 0 Z M 367 1706 L 246 1706 L 156 1864 L 68 1706 L -51 1706 L 80 1954 L 238 1954 L 367 1706 Z" unicode="Î" />
<glyph horiz-adv-x="315" d="M 236 0 L 80 0 L 80 1634 L 236 1634 L 236 0 Z M 342 1704 L 213 1704 L 213 1903 L 342 1903 L 342 1704 Z M 100 1704 L -27 1704 L -27 1903 L 100 1903 L 100 1704 Z" unicode="Ï" />
<glyph horiz-adv-x="731" d="M 82 741 L 18 741 L 18 901 L 82 901 L 82 1634 L 379 1634 C 453 1634 511 1619 553 1591 C 595 1563 625 1522 643 1468 C 649 1454 654 1433 659 1407 C 663 1380 667 1349 670 1314 C 673 1278 676 1240 678 1200 C 680 1160 681 1119 683 1078 C 684 1036 685 996 685 957 C 685 918 686 883 686 852 C 686 814 685 774 685 730 C 685 686 684 642 683 596 C 682 550 681 505 679 461 C 677 417 675 375 672 337 C 669 298 665 264 661 234 C 656 204 651 182 645 166 C 637 143 627 122 615 102 C 603 82 587 64 568 49 C 549 34 526 22 499 13 C 472 4 439 0 401 0 L 82 0 L 82 741 Z M 231 901 L 377 901 L 377 741 L 231 741 L 231 135 L 393 135 C 425 135 452 142 474 157 C 496 172 512 197 520 231 C 522 242 525 263 527 294 C 529 324 531 360 533 401 C 534 441 535 485 536 531 C 537 577 538 621 539 663 C 539 705 540 742 540 776 C 540 810 541 835 541 852 C 541 868 540 890 540 919 C 539 947 538 979 537 1014 C 536 1048 535 1084 534 1121 C 532 1158 531 1193 529 1225 C 527 1257 526 1286 524 1311 C 522 1336 520 1354 518 1364 C 510 1406 494 1437 470 1457 C 446 1477 416 1487 379 1487 L 231 1487 L 231 901 Z" unicode="Ð" />
<glyph horiz-adv-x="752" d="M 672 0 L 504 0 L 219 1155 L 219 0 L 80 0 L 80 1634 L 250 1634 L 532 440 L 532 1634 L 672 1634 L 672 0 Z M 391 1745 C 377 1758 365 1770 353 1780 C 341 1790 330 1796 319 1796 C 305 1796 293 1789 284 1776 C 275 1763 270 1742 268 1712 L 168 1720 C 170 1748 174 1774 182 1798 C 189 1822 198 1842 210 1859 C 222 1876 236 1889 252 1899 C 268 1908 285 1913 305 1913 C 326 1913 346 1909 366 1903 C 386 1897 404 1883 422 1862 C 432 1849 440 1839 448 1833 C 456 1826 465 1823 477 1823 C 493 1823 505 1829 513 1842 C 521 1855 526 1877 530 1909 L 629 1898 C 625 1838 611 1791 587 1757 C 563 1723 530 1706 489 1706 C 469 1706 452 1708 438 1712 C 423 1716 407 1727 391 1745 Z" unicode="Ñ" />
<glyph horiz-adv-x="754" d="M 379 1640 C 426 1640 466 1634 500 1622 C 534 1610 563 1592 588 1569 C 616 1541 638 1504 654 1459 C 670 1413 681 1359 689 1296 C 697 1233 702 1161 704 1081 C 706 1000 707 910 707 811 C 707 711 706 620 704 540 C 702 459 697 387 689 325 C 681 263 669 209 653 164 C 637 118 614 81 586 53 C 562 29 534 12 500 0 C 466 -12 426 -18 379 -18 C 331 -18 290 -12 256 0 C 222 12 193 29 170 53 C 142 81 120 117 104 163 C 88 208 76 262 68 325 C 60 387 55 459 53 540 C 51 620 51 711 51 811 C 51 911 52 1001 54 1083 C 56 1164 61 1236 69 1299 C 77 1362 90 1416 106 1461 C 122 1506 145 1543 174 1571 C 197 1593 225 1610 259 1622 C 293 1634 333 1640 379 1640 Z M 379 125 C 404 125 426 128 444 136 C 462 144 478 157 491 177 C 503 196 513 222 521 255 C 529 288 535 330 539 381 C 543 431 546 492 548 563 C 550 633 551 716 551 811 C 551 905 550 988 549 1058 C 547 1128 544 1189 540 1240 C 536 1290 530 1332 522 1365 C 514 1398 504 1424 491 1443 C 478 1462 462 1475 444 1483 C 426 1491 404 1495 379 1495 C 353 1495 330 1491 312 1483 C 294 1475 278 1462 266 1443 C 253 1424 243 1398 235 1365 C 227 1332 221 1290 217 1240 C 213 1189 210 1128 209 1058 C 207 988 207 905 207 811 C 207 716 207 633 209 563 C 210 492 213 431 217 381 C 221 330 226 288 234 255 C 242 222 252 196 265 177 C 277 157 293 144 312 136 C 330 128 353 125 379 125 Z M 455 1704 L 324 1704 L 180 1952 L 328 1952 L 455 1704 Z" unicode="Ò" />
<glyph horiz-adv-x="754" d="M 379 1640 C 426 1640 466 1634 500 1622 C 534 1610 563 1592 588 1569 C 616 1541 638 1504 654 1459 C 670 1413 681 1359 689 1296 C 697 1233 702 1161 704 1081 C 706 1000 707 910 707 811 C 707 711 706 620 704 540 C 702 459 697 387 689 325 C 681 263 669 209 653 164 C 637 118 614 81 586 53 C 562 29 534 12 500 0 C 466 -12 426 -18 379 -18 C 331 -18 290 -12 256 0 C 222 12 193 29 170 53 C 142 81 120 117 104 163 C 88 208 76 262 68 325 C 60 387 55 459 53 540 C 51 620 51 711 51 811 C 51 911 52 1001 54 1083 C 56 1164 61 1236 69 1299 C 77 1362 90 1416 106 1461 C 122 1506 145 1543 174 1571 C 197 1593 225 1610 259 1622 C 293 1634 333 1640 379 1640 Z M 379 125 C 404 125 426 128 444 136 C 462 144 478 157 491 177 C 503 196 513 222 521 255 C 529 288 535 330 539 381 C 543 431 546 492 548 563 C 550 633 551 716 551 811 C 551 905 550 988 549 1058 C 547 1128 544 1189 540 1240 C 536 1290 530 1332 522 1365 C 514 1398 504 1424 491 1443 C 478 1462 462 1475 444 1483 C 426 1491 404 1495 379 1495 C 353 1495 330 1491 312 1483 C 294 1475 278 1462 266 1443 C 253 1424 243 1398 235 1365 C 227 1332 221 1290 217 1240 C 213 1189 210 1128 209 1058 C 207 988 207 905 207 811 C 207 716 207 633 209 563 C 210 492 213 431 217 381 C 221 330 226 288 234 255 C 242 222 252 196 265 177 C 277 157 293 144 312 136 C 330 128 353 125 379 125 Z M 301 1704 L 424 1952 L 573 1952 L 426 1704 L 301 1704 Z" unicode="Ó" />
<glyph horiz-adv-x="754" d="M 379 1640 C 426 1640 466 1634 500 1622 C 534 1610 563 1592 588 1569 C 616 1541 638 1504 654 1459 C 670 1413 681 1359 689 1296 C 697 1233 702 1161 704 1081 C 706 1000 707 910 707 811 C 707 711 706 620 704 540 C 702 459 697 387 689 325 C 681 263 669 209 653 164 C 637 118 614 81 586 53 C 562 29 534 12 500 0 C 466 -12 426 -18 379 -18 C 331 -18 290 -12 256 0 C 222 12 193 29 170 53 C 142 81 120 117 104 163 C 88 208 76 262 68 325 C 60 387 55 459 53 540 C 51 620 51 711 51 811 C 51 911 52 1001 54 1083 C 56 1164 61 1236 69 1299 C 77 1362 90 1416 106 1461 C 122 1506 145 1543 174 1571 C 197 1593 225 1610 259 1622 C 293 1634 333 1640 379 1640 Z M 379 125 C 404 125 426 128 444 136 C 462 144 478 157 491 177 C 503 196 513 222 521 255 C 529 288 535 330 539 381 C 543 431 546 492 548 563 C 550 633 551 716 551 811 C 551 905 550 988 549 1058 C 547 1128 544 1189 540 1240 C 536 1290 530 1332 522 1365 C 514 1398 504 1424 491 1443 C 478 1462 462 1475 444 1483 C 426 1491 404 1495 379 1495 C 353 1495 330 1491 312 1483 C 294 1475 278 1462 266 1443 C 253 1424 243 1398 235 1365 C 227 1332 221 1290 217 1240 C 213 1189 210 1128 209 1058 C 207 988 207 905 207 811 C 207 716 207 633 209 563 C 210 492 213 431 217 381 C 221 330 226 288 234 255 C 242 222 252 196 265 177 C 277 157 293 144 312 136 C 330 128 353 125 379 125 Z M 586 1706 L 465 1706 L 375 1864 L 287 1706 L 168 1706 L 299 1954 L 457 1954 L 586 1706 Z" unicode="Ô" />
<glyph horiz-adv-x="754" d="M 379 1640 C 426 1640 466 1634 500 1622 C 534 1610 563 1592 588 1569 C 616 1541 638 1504 654 1459 C 670 1413 681 1359 689 1296 C 697 1233 702 1161 704 1081 C 706 1000 707 910 707 811 C 707 711 706 620 704 540 C 702 459 697 387 689 325 C 681 263 669 209 653 164 C 637 118 614 81 586 53 C 562 29 534 12 500 0 C 466 -12 426 -18 379 -18 C 331 -18 290 -12 256 0 C 222 12 193 29 170 53 C 142 81 120 117 104 163 C 88 208 76 262 68 325 C 60 387 55 459 53 540 C 51 620 51 711 51 811 C 51 911 52 1001 54 1083 C 56 1164 61 1236 69 1299 C 77 1362 90 1416 106 1461 C 122 1506 145 1543 174 1571 C 197 1593 225 1610 259 1622 C 293 1634 333 1640 379 1640 Z M 379 125 C 404 125 426 128 444 136 C 462 144 478 157 491 177 C 503 196 513 222 521 255 C 529 288 535 330 539 381 C 543 431 546 492 548 563 C 550 633 551 716 551 811 C 551 905 550 988 549 1058 C 547 1128 544 1189 540 1240 C 536 1290 530 1332 522 1365 C 514 1398 504 1424 491 1443 C 478 1462 462 1475 444 1483 C 426 1491 404 1495 379 1495 C 353 1495 330 1491 312 1483 C 294 1475 278 1462 266 1443 C 253 1424 243 1398 235 1365 C 227 1332 221 1290 217 1240 C 213 1189 210 1128 209 1058 C 207 988 207 905 207 811 C 207 716 207 633 209 563 C 210 492 213 431 217 381 C 221 330 226 288 234 255 C 242 222 252 196 265 177 C 277 157 293 144 312 136 C 330 128 353 125 379 125 Z M 371 1745 C 357 1758 345 1770 333 1780 C 321 1790 310 1796 299 1796 C 284 1796 272 1789 264 1776 C 255 1763 250 1742 248 1712 L 147 1720 C 149 1748 153 1774 161 1798 C 168 1822 178 1842 190 1859 C 202 1876 216 1889 232 1899 C 248 1908 265 1913 285 1913 C 306 1913 326 1909 346 1903 C 365 1897 383 1883 401 1862 C 411 1849 420 1839 428 1833 C 436 1826 445 1823 457 1823 C 473 1823 485 1829 493 1842 C 501 1855 506 1877 510 1909 L 608 1898 C 604 1838 590 1791 566 1757 C 542 1723 510 1706 469 1706 C 449 1706 432 1708 417 1712 C 402 1716 387 1727 371 1745 Z" unicode="Õ" />
<glyph horiz-adv-x="754" d="M 379 1640 C 426 1640 466 1634 500 1622 C 534 1610 563 1592 588 1569 C 616 1541 638 1504 654 1459 C 670 1413 681 1359 689 1296 C 697 1233 702 1161 704 1081 C 706 1000 707 910 707 811 C 707 711 706 620 704 540 C 702 459 697 387 689 325 C 681 263 669 209 653 164 C 637 118 614 81 586 53 C 562 29 534 12 500 0 C 466 -12 426 -18 379 -18 C 331 -18 290 -12 256 0 C 222 12 193 29 170 53 C 142 81 120 117 104 163 C 88 208 76 262 68 325 C 60 387 55 459 53 540 C 51 620 51 711 51 811 C 51 911 52 1001 54 1083 C 56 1164 61 1236 69 1299 C 77 1362 90 1416 106 1461 C 122 1506 145 1543 174 1571 C 197 1593 225 1610 259 1622 C 293 1634 333 1640 379 1640 Z M 379 125 C 404 125 426 128 444 136 C 462 144 478 157 491 177 C 503 196 513 222 521 255 C 529 288 535 330 539 381 C 543 431 546 492 548 563 C 550 633 551 716 551 811 C 551 905 550 988 549 1058 C 547 1128 544 1189 540 1240 C 536 1290 530 1332 522 1365 C 514 1398 504 1424 491 1443 C 478 1462 462 1475 444 1483 C 426 1491 404 1495 379 1495 C 353 1495 330 1491 312 1483 C 294 1475 278 1462 266 1443 C 253 1424 243 1398 235 1365 C 227 1332 221 1290 217 1240 C 213 1189 210 1128 209 1058 C 207 988 207 905 207 811 C 207 716 207 633 209 563 C 210 492 213 431 217 381 C 221 330 226 288 234 255 C 242 222 252 196 265 177 C 277 157 293 144 312 136 C 330 128 353 125 379 125 Z M 563 1704 L 434 1704 L 434 1903 L 563 1903 L 563 1704 Z M 322 1704 L 195 1704 L 195 1903 L 322 1903 L 322 1704 Z" unicode="Ö" />
<glyph horiz-adv-x="588" d="M 514 936 L 369 795 L 514 651 L 436 565 L 293 711 L 152 565 L 74 651 L 217 795 L 74 936 L 152 1024 L 293 881 L 436 1024 L 514 936 Z" unicode="×" />
<glyph horiz-adv-x="754" d="M 602 1554 C 619 1533 633 1510 645 1484 C 656 1458 665 1429 672 1397 C 678 1359 684 1317 689 1271 C 693 1224 697 1175 700 1124 C 702 1073 704 1022 705 970 C 706 918 707 869 707 823 C 707 721 705 619 701 516 C 697 413 685 312 666 213 C 659 180 648 150 634 122 C 619 94 600 70 576 50 C 552 30 524 14 491 3 C 458 -8 420 -14 377 -14 C 343 -14 314 -11 288 -5 C 262 0 238 8 217 20 C 213 6 210 -5 207 -16 C 204 -27 202 -37 200 -46 C 197 -56 195 -65 193 -74 L 113 -74 L 150 74 C 133 91 119 111 109 133 C 98 155 90 179 84 205 C 77 233 71 272 67 321 C 63 370 59 423 57 481 C 55 539 53 597 52 657 C 51 717 51 771 51 821 C 51 865 51 912 52 962 C 52 1012 54 1062 56 1113 C 58 1163 62 1213 66 1262 C 70 1310 76 1355 84 1397 C 90 1431 100 1464 115 1494 C 130 1524 150 1551 174 1573 C 198 1595 226 1613 260 1626 C 294 1638 333 1645 377 1645 C 409 1645 438 1642 465 1636 C 491 1630 515 1621 537 1610 L 549 1661 L 629 1661 L 602 1554 Z M 223 344 L 496 1448 C 483 1465 467 1478 448 1488 C 428 1498 405 1503 379 1503 C 355 1503 334 1499 318 1493 C 302 1487 288 1478 277 1466 C 266 1454 257 1439 250 1422 C 243 1405 237 1386 233 1366 C 230 1354 227 1335 225 1309 C 222 1283 220 1254 218 1221 C 216 1188 214 1153 212 1115 C 210 1077 208 1039 207 1002 C 205 965 204 930 204 897 C 203 864 203 836 203 813 C 203 787 203 754 204 715 C 205 675 207 634 209 591 C 211 547 213 504 215 460 C 217 416 220 378 223 344 Z M 383 127 C 419 128 448 138 471 156 C 494 174 510 204 520 246 C 533 310 542 390 547 486 C 552 582 555 693 555 819 C 555 881 554 934 554 976 C 553 1018 552 1056 551 1091 C 549 1125 547 1159 545 1193 C 543 1226 540 1265 537 1311 L 260 193 C 273 167 290 150 310 141 C 330 131 355 127 383 127 Z" unicode="Ø" />
<glyph horiz-adv-x="739" d="M 668 291 C 668 195 643 121 594 67 C 544 13 471 -14 373 -14 C 329 -14 289 -8 252 3 C 215 15 183 33 156 58 C 128 83 107 115 91 154 C 75 193 68 240 68 295 L 68 1634 L 217 1634 L 217 309 C 217 245 230 199 256 171 C 282 143 320 129 369 129 C 418 129 455 143 479 172 C 503 200 516 246 516 309 L 516 1634 L 668 1634 L 668 291 Z M 453 1704 L 322 1704 L 178 1952 L 326 1952 L 453 1704 Z" unicode="Ù" />
<glyph horiz-adv-x="739" d="M 668 291 C 668 195 643 121 594 67 C 544 13 471 -14 373 -14 C 329 -14 289 -8 252 3 C 215 15 183 33 156 58 C 128 83 107 115 91 154 C 75 193 68 240 68 295 L 68 1634 L 217 1634 L 217 309 C 217 245 230 199 256 171 C 282 143 320 129 369 129 C 418 129 455 143 479 172 C 503 200 516 246 516 309 L 516 1634 L 668 1634 L 668 291 Z M 283 1704 L 406 1952 L 555 1952 L 408 1704 L 283 1704 Z" unicode="Ú" />
<glyph horiz-adv-x="739" d="M 668 291 C 668 195 643 121 594 67 C 544 13 471 -14 373 -14 C 329 -14 289 -8 252 3 C 215 15 183 33 156 58 C 128 83 107 115 91 154 C 75 193 68 240 68 295 L 68 1634 L 217 1634 L 217 309 C 217 245 230 199 256 171 C 282 143 320 129 369 129 C 418 129 455 143 479 172 C 503 200 516 246 516 309 L 516 1634 L 668 1634 L 668 291 Z M 571 1706 L 451 1706 L 360 1864 L 272 1706 L 154 1706 L 285 1954 L 442 1954 L 571 1706 Z" unicode="Û" />
<glyph horiz-adv-x="739" d="M 668 291 C 668 195 643 121 594 67 C 544 13 471 -14 373 -14 C 329 -14 289 -8 252 3 C 215 15 183 33 156 58 C 128 83 107 115 91 154 C 75 193 68 240 68 295 L 68 1634 L 217 1634 L 217 309 C 217 245 230 199 256 171 C 282 143 320 129 369 129 C 418 129 455 143 479 172 C 503 200 516 246 516 309 L 516 1634 L 668 1634 L 668 291 Z M 557 1704 L 428 1704 L 428 1903 L 557 1903 L 557 1704 Z M 315 1704 L 188 1704 L 188 1903 L 315 1903 L 315 1704 Z" unicode="Ü" />
<glyph horiz-adv-x="729" d="M 729 1634 L 432 596 L 432 0 L 279 0 L 279 592 L 0 1634 L 158 1634 C 195 1489 228 1357 258 1239 C 270 1188 283 1138 295 1088 C 307 1038 317 993 327 952 C 337 911 345 876 351 848 C 357 819 360 801 360 793 C 360 801 363 820 369 848 C 375 876 383 911 393 952 C 403 993 414 1038 427 1088 C 439 1138 452 1188 466 1239 C 497 1357 533 1489 573 1634 L 729 1634 Z M 266 1704 L 389 1952 L 539 1952 L 391 1704 L 266 1704 Z" unicode="Ý" />
<glyph horiz-adv-x="707" d="M 236 1634 L 236 1329 L 391 1329 C 425 1329 456 1324 485 1316 C 513 1308 538 1295 560 1277 C 581 1259 598 1235 612 1207 C 626 1179 635 1144 641 1104 C 645 1088 649 1068 653 1046 C 656 1024 659 1000 661 976 C 663 952 665 928 666 904 C 667 880 668 860 668 842 C 668 822 667 801 666 777 C 665 753 663 728 661 704 C 658 680 655 656 651 634 C 647 612 643 593 639 578 C 627 503 601 448 559 412 C 517 376 463 357 399 356 L 233 356 L 233 0 L 80 0 L 80 1634 L 236 1634 Z M 512 838 C 512 844 511 853 511 865 C 511 876 510 888 510 901 C 510 914 509 927 509 940 C 509 952 508 963 508 971 C 506 1011 501 1045 495 1072 C 488 1098 479 1119 467 1135 C 455 1150 441 1161 425 1167 C 408 1173 389 1176 367 1176 L 233 1176 L 233 500 L 369 500 C 413 500 446 516 468 549 C 490 581 504 626 508 682 C 508 689 509 699 509 713 C 509 726 510 740 510 756 C 510 771 511 786 511 801 C 511 815 512 828 512 838 Z" unicode="Þ" />
<glyph horiz-adv-x="872" d="M 362 1513 C 320 1513 292 1500 276 1475 C 260 1449 252 1414 252 1368 L 252 0 L 109 0 L 109 995 L 10 995 L 10 1126 L 109 1126 L 109 1374 C 109 1466 132 1535 178 1579 C 224 1623 289 1645 371 1645 C 405 1645 437 1639 467 1628 C 496 1617 521 1601 543 1580 C 565 1559 582 1533 594 1503 C 606 1472 612 1437 612 1397 C 612 1365 608 1337 601 1311 C 593 1285 584 1260 573 1237 C 562 1213 550 1190 537 1168 C 524 1146 512 1122 501 1098 C 490 1074 481 1048 474 1020 C 466 992 463 962 463 928 C 463 894 466 866 472 843 C 478 820 486 800 496 783 C 506 765 519 750 533 736 C 547 722 562 708 578 694 C 590 682 605 668 625 653 C 644 638 663 624 682 612 C 710 593 734 573 754 551 C 774 529 791 505 805 479 C 819 452 829 422 836 389 C 842 355 846 318 846 276 C 846 230 841 190 831 155 C 821 119 806 89 785 64 C 764 39 737 20 705 7 C 672 -5 633 -12 588 -12 C 508 -12 447 3 404 34 C 360 65 336 116 332 188 C 331 198 330 210 330 224 C 330 238 329 252 329 267 C 328 281 327 296 327 310 C 327 324 326 338 326 350 L 469 350 L 469 201 C 472 165 484 140 504 124 C 524 108 552 100 588 100 C 608 100 625 102 640 108 C 654 113 666 122 676 135 C 686 147 693 164 698 185 C 702 206 705 232 705 264 C 705 294 703 320 699 344 C 695 368 688 389 680 409 C 671 428 660 445 646 461 C 632 476 616 490 598 504 C 582 515 566 528 548 543 C 530 557 514 572 498 588 C 474 602 452 619 432 638 C 412 656 394 679 378 705 C 362 731 350 761 341 796 C 332 831 328 872 328 920 C 328 954 331 985 338 1013 C 344 1041 353 1067 363 1092 C 373 1116 384 1139 396 1161 C 408 1183 419 1204 429 1226 C 439 1247 448 1269 455 1291 C 461 1313 465 1336 465 1362 C 465 1385 463 1406 460 1425 C 457 1443 452 1459 444 1472 C 436 1485 426 1495 413 1502 C 399 1509 382 1513 362 1513 Z" unicode="ß" />
<glyph horiz-adv-x="596" d="M 561 0 L 432 0 C 430 0 429 0 427 2 C 425 3 424 6 422 12 C 420 17 419 25 418 36 C 417 47 416 62 416 82 C 398 52 373 29 341 14 C 309 0 272 -8 231 -8 C 204 -8 179 -3 156 4 C 132 12 112 25 94 41 C 76 57 61 78 50 104 C 39 129 33 159 33 193 C 31 219 30 249 30 282 C 30 314 31 345 33 375 C 37 447 58 506 96 554 C 134 602 192 635 268 655 C 293 661 318 667 343 671 C 367 675 390 678 412 680 L 412 907 C 410 975 377 1010 313 1010 C 285 1010 261 1003 242 991 C 222 978 210 956 205 924 C 201 898 198 872 198 844 C 197 816 197 783 197 743 L 66 743 C 64 787 65 826 67 862 C 69 897 74 931 80 965 C 90 1018 114 1060 153 1092 C 192 1123 247 1139 317 1139 C 357 1139 391 1133 420 1123 C 448 1113 472 1098 491 1080 C 509 1062 523 1040 532 1014 C 541 988 546 959 547 928 C 547 900 547 866 547 828 C 547 789 546 749 546 709 C 546 669 545 630 545 592 C 545 554 545 522 545 496 C 544 468 543 437 543 404 C 543 371 543 339 543 307 C 543 275 543 245 543 217 C 543 189 543 167 543 150 C 543 134 543 119 544 104 C 545 88 547 74 549 60 C 551 46 553 33 555 23 C 557 12 559 4 561 0 Z M 414 561 C 400 559 387 557 373 557 C 359 556 346 554 332 551 C 306 545 283 538 261 529 C 239 520 224 511 215 502 C 203 490 193 472 185 447 C 177 422 172 393 170 360 C 169 352 169 342 169 328 C 169 314 169 299 169 284 C 169 268 170 254 170 240 C 170 226 171 215 172 207 C 175 171 186 147 205 134 C 223 121 247 115 276 115 C 302 115 326 121 349 134 C 371 147 389 173 401 211 C 405 221 407 235 409 252 C 410 269 411 288 411 308 C 411 328 411 350 411 372 C 411 394 411 415 412 436 C 412 443 413 452 413 464 C 413 476 414 488 414 500 C 414 512 414 524 414 535 C 414 546 414 555 414 561 Z M 408 1198 L 276 1198 L 133 1446 L 281 1446 L 408 1198 Z" unicode="à" />
<glyph horiz-adv-x="596" d="M 561 0 L 432 0 C 430 0 429 0 427 2 C 425 3 424 6 422 12 C 420 17 419 25 418 36 C 417 47 416 62 416 82 C 398 52 373 29 341 14 C 309 0 272 -8 231 -8 C 204 -8 179 -3 156 4 C 132 12 112 25 94 41 C 76 57 61 78 50 104 C 39 129 33 159 33 193 C 31 219 30 249 30 282 C 30 314 31 345 33 375 C 37 447 58 506 96 554 C 134 602 192 635 268 655 C 293 661 318 667 343 671 C 367 675 390 678 412 680 L 412 907 C 410 975 377 1010 313 1010 C 285 1010 261 1003 242 991 C 222 978 210 956 205 924 C 201 898 198 872 198 844 C 197 816 197 783 197 743 L 66 743 C 64 787 65 826 67 862 C 69 897 74 931 80 965 C 90 1018 114 1060 153 1092 C 192 1123 247 1139 317 1139 C 357 1139 391 1133 420 1123 C 448 1113 472 1098 491 1080 C 509 1062 523 1040 532 1014 C 541 988 546 959 547 928 C 547 900 547 866 547 828 C 547 789 546 749 546 709 C 546 669 545 630 545 592 C 545 554 545 522 545 496 C 544 468 543 437 543 404 C 543 371 543 339 543 307 C 543 275 543 245 543 217 C 543 189 543 167 543 150 C 543 134 543 119 544 104 C 545 88 547 74 549 60 C 551 46 553 33 555 23 C 557 12 559 4 561 0 Z M 414 561 C 400 559 387 557 373 557 C 359 556 346 554 332 551 C 306 545 283 538 261 529 C 239 520 224 511 215 502 C 203 490 193 472 185 447 C 177 422 172 393 170 360 C 169 352 169 342 169 328 C 169 314 169 299 169 284 C 169 268 170 254 170 240 C 170 226 171 215 172 207 C 175 171 186 147 205 134 C 223 121 247 115 276 115 C 302 115 326 121 349 134 C 371 147 389 173 401 211 C 405 221 407 235 409 252 C 410 269 411 288 411 308 C 411 328 411 350 411 372 C 411 394 411 415 412 436 C 412 443 413 452 413 464 C 413 476 414 488 414 500 C 414 512 414 524 414 535 C 414 546 414 555 414 561 Z M 217 1198 L 340 1446 L 489 1446 L 342 1198 L 217 1198 Z" unicode="á" />
<glyph horiz-adv-x="596" d="M 561 0 L 432 0 C 430 0 429 0 427 2 C 425 3 424 6 422 12 C 420 17 419 25 418 36 C 417 47 416 62 416 82 C 398 52 373 29 341 14 C 309 0 272 -8 231 -8 C 204 -8 179 -3 156 4 C 132 12 112 25 94 41 C 76 57 61 78 50 104 C 39 129 33 159 33 193 C 31 219 30 249 30 282 C 30 314 31 345 33 375 C 37 447 58 506 96 554 C 134 602 192 635 268 655 C 293 661 318 667 343 671 C 367 675 390 678 412 680 L 412 907 C 410 975 377 1010 313 1010 C 285 1010 261 1003 242 991 C 222 978 210 956 205 924 C 201 898 198 872 198 844 C 197 816 197 783 197 743 L 66 743 C 64 787 65 826 67 862 C 69 897 74 931 80 965 C 90 1018 114 1060 153 1092 C 192 1123 247 1139 317 1139 C 357 1139 391 1133 420 1123 C 448 1113 472 1098 491 1080 C 509 1062 523 1040 532 1014 C 541 988 546 959 547 928 C 547 900 547 866 547 828 C 547 789 546 749 546 709 C 546 669 545 630 545 592 C 545 554 545 522 545 496 C 544 468 543 437 543 404 C 543 371 543 339 543 307 C 543 275 543 245 543 217 C 543 189 543 167 543 150 C 543 134 543 119 544 104 C 545 88 547 74 549 60 C 551 46 553 33 555 23 C 557 12 559 4 561 0 Z M 414 561 C 400 559 387 557 373 557 C 359 556 346 554 332 551 C 306 545 283 538 261 529 C 239 520 224 511 215 502 C 203 490 193 472 185 447 C 177 422 172 393 170 360 C 169 352 169 342 169 328 C 169 314 169 299 169 284 C 169 268 170 254 170 240 C 170 226 171 215 172 207 C 175 171 186 147 205 134 C 223 121 247 115 276 115 C 302 115 326 121 349 134 C 371 147 389 173 401 211 C 405 221 407 235 409 252 C 410 269 411 288 411 308 C 411 328 411 350 411 372 C 411 394 411 415 412 436 C 412 443 413 452 413 464 C 413 476 414 488 414 500 C 414 512 414 524 414 535 C 414 546 414 555 414 561 Z M 516 1200 L 395 1200 L 305 1358 L 217 1200 L 98 1200 L 229 1448 L 387 1448 L 516 1200 Z" unicode="â" />
<glyph horiz-adv-x="596" d="M 561 0 L 432 0 C 430 0 429 0 427 2 C 425 3 424 6 422 12 C 420 17 419 25 418 36 C 417 47 416 62 416 82 C 398 52 373 29 341 14 C 309 0 272 -8 231 -8 C 204 -8 179 -3 156 4 C 132 12 112 25 94 41 C 76 57 61 78 50 104 C 39 129 33 159 33 193 C 31 219 30 249 30 282 C 30 314 31 345 33 375 C 37 447 58 506 96 554 C 134 602 192 635 268 655 C 293 661 318 667 343 671 C 367 675 390 678 412 680 L 412 907 C 410 975 377 1010 313 1010 C 285 1010 261 1003 242 991 C 222 978 210 956 205 924 C 201 898 198 872 198 844 C 197 816 197 783 197 743 L 66 743 C 64 787 65 826 67 862 C 69 897 74 931 80 965 C 90 1018 114 1060 153 1092 C 192 1123 247 1139 317 1139 C 357 1139 391 1133 420 1123 C 448 1113 472 1098 491 1080 C 509 1062 523 1040 532 1014 C 541 988 546 959 547 928 C 547 900 547 866 547 828 C 547 789 546 749 546 709 C 546 669 545 630 545 592 C 545 554 545 522 545 496 C 544 468 543 437 543 404 C 543 371 543 339 543 307 C 543 275 543 245 543 217 C 543 189 543 167 543 150 C 543 134 543 119 544 104 C 545 88 547 74 549 60 C 551 46 553 33 555 23 C 557 12 559 4 561 0 Z M 414 561 C 400 559 387 557 373 557 C 359 556 346 554 332 551 C 306 545 283 538 261 529 C 239 520 224 511 215 502 C 203 490 193 472 185 447 C 177 422 172 393 170 360 C 169 352 169 342 169 328 C 169 314 169 299 169 284 C 169 268 170 254 170 240 C 170 226 171 215 172 207 C 175 171 186 147 205 134 C 223 121 247 115 276 115 C 302 115 326 121 349 134 C 371 147 389 173 401 211 C 405 221 407 235 409 252 C 410 269 411 288 411 308 C 411 328 411 350 411 372 C 411 394 411 415 412 436 C 412 443 413 452 413 464 C 413 476 414 488 414 500 C 414 512 414 524 414 535 C 414 546 414 555 414 561 Z M 307 1239 C 293 1252 281 1264 270 1274 C 258 1284 247 1290 236 1290 C 221 1290 209 1283 200 1270 C 191 1257 186 1236 184 1206 L 84 1214 C 86 1242 90 1268 98 1292 C 105 1316 114 1336 126 1353 C 138 1370 152 1383 168 1393 C 184 1402 201 1407 221 1407 C 242 1407 262 1403 282 1397 C 302 1391 320 1377 338 1356 C 348 1343 356 1333 364 1327 C 372 1320 381 1317 393 1317 C 409 1317 421 1323 429 1336 C 437 1349 442 1371 446 1403 L 545 1393 C 541 1333 527 1285 503 1251 C 479 1217 446 1200 406 1200 C 386 1200 369 1202 354 1206 C 339 1210 323 1221 307 1239 Z" unicode="ã" />
<glyph horiz-adv-x="596" d="M 561 0 L 432 0 C 430 0 429 0 427 2 C 425 3 424 6 422 12 C 420 17 419 25 418 36 C 417 47 416 62 416 82 C 398 52 373 29 341 14 C 309 0 272 -8 231 -8 C 204 -8 179 -3 156 4 C 132 12 112 25 94 41 C 76 57 61 78 50 104 C 39 129 33 159 33 193 C 31 219 30 249 30 282 C 30 314 31 345 33 375 C 37 447 58 506 96 554 C 134 602 192 635 268 655 C 293 661 318 667 343 671 C 367 675 390 678 412 680 L 412 907 C 410 975 377 1010 313 1010 C 285 1010 261 1003 242 991 C 222 978 210 956 205 924 C 201 898 198 872 198 844 C 197 816 197 783 197 743 L 66 743 C 64 787 65 826 67 862 C 69 897 74 931 80 965 C 90 1018 114 1060 153 1092 C 192 1123 247 1139 317 1139 C 357 1139 391 1133 420 1123 C 448 1113 472 1098 491 1080 C 509 1062 523 1040 532 1014 C 541 988 546 959 547 928 C 547 900 547 866 547 828 C 547 789 546 749 546 709 C 546 669 545 630 545 592 C 545 554 545 522 545 496 C 544 468 543 437 543 404 C 543 371 543 339 543 307 C 543 275 543 245 543 217 C 543 189 543 167 543 150 C 543 134 543 119 544 104 C 545 88 547 74 549 60 C 551 46 553 33 555 23 C 557 12 559 4 561 0 Z M 414 561 C 400 559 387 557 373 557 C 359 556 346 554 332 551 C 306 545 283 538 261 529 C 239 520 224 511 215 502 C 203 490 193 472 185 447 C 177 422 172 393 170 360 C 169 352 169 342 169 328 C 169 314 169 299 169 284 C 169 268 170 254 170 240 C 170 226 171 215 172 207 C 175 171 186 147 205 134 C 223 121 247 115 276 115 C 302 115 326 121 349 134 C 371 147 389 173 401 211 C 405 221 407 235 409 252 C 410 269 411 288 411 308 C 411 328 411 350 411 372 C 411 394 411 415 412 436 C 412 443 413 452 413 464 C 413 476 414 488 414 500 C 414 512 414 524 414 535 C 414 546 414 555 414 561 Z M 496 1198 L 367 1198 L 367 1397 L 496 1397 L 496 1198 Z M 254 1198 L 127 1198 L 127 1397 L 254 1397 L 254 1198 Z" unicode="ä" />
<glyph horiz-adv-x="596" d="M 561 0 L 432 0 C 430 0 429 0 427 2 C 425 3 424 6 422 12 C 420 17 419 25 418 36 C 417 47 416 62 416 82 C 398 52 373 29 341 14 C 309 0 272 -8 231 -8 C 204 -8 179 -3 156 4 C 132 12 112 25 94 41 C 76 57 61 78 50 104 C 39 129 33 159 33 193 C 31 219 30 249 30 282 C 30 314 31 345 33 375 C 37 447 58 506 96 554 C 134 602 192 635 268 655 C 293 661 318 667 343 671 C 367 675 390 678 412 680 L 412 907 C 410 975 377 1010 313 1010 C 285 1010 261 1003 242 991 C 222 978 210 956 205 924 C 201 898 198 872 198 844 C 197 816 197 783 197 743 L 66 743 C 64 787 65 826 67 862 C 69 897 74 931 80 965 C 90 1018 114 1060 153 1092 C 192 1123 247 1139 317 1139 C 357 1139 391 1133 420 1123 C 448 1113 472 1098 491 1080 C 509 1062 523 1040 532 1014 C 541 988 546 959 547 928 C 547 900 547 866 547 828 C 547 789 546 749 546 709 C 546 669 545 630 545 592 C 545 554 545 522 545 496 C 544 468 543 437 543 404 C 543 371 543 339 543 307 C 543 275 543 245 543 217 C 543 189 543 167 543 150 C 543 134 543 119 544 104 C 545 88 547 74 549 60 C 551 46 553 33 555 23 C 557 12 559 4 561 0 Z M 414 561 C 400 559 387 557 373 557 C 359 556 346 554 332 551 C 306 545 283 538 261 529 C 239 520 224 511 215 502 C 203 490 193 472 185 447 C 177 422 172 393 170 360 C 169 352 169 342 169 328 C 169 314 169 299 169 284 C 169 268 170 254 170 240 C 170 226 171 215 172 207 C 175 171 186 147 205 134 C 223 121 247 115 276 115 C 302 115 326 121 349 134 C 371 147 389 173 401 211 C 405 221 407 235 409 252 C 410 269 411 288 411 308 C 411 328 411 350 411 372 C 411 394 411 415 412 436 C 412 443 413 452 413 464 C 413 476 414 488 414 500 C 414 512 414 524 414 535 C 414 546 414 555 414 561 Z M 317 1495 C 337 1495 355 1491 373 1483 C 391 1475 406 1465 420 1452 C 433 1438 443 1422 451 1404 C 459 1386 463 1366 463 1346 C 463 1325 459 1306 451 1288 C 443 1270 433 1254 420 1240 C 406 1226 391 1216 373 1208 C 355 1200 337 1196 317 1196 C 297 1196 279 1200 262 1208 C 245 1216 230 1226 217 1240 C 204 1254 194 1270 187 1288 C 179 1306 176 1325 176 1346 C 176 1366 179 1386 187 1404 C 194 1422 204 1438 217 1452 C 230 1465 245 1475 262 1483 C 279 1491 297 1495 317 1495 Z M 317 1415 C 299 1415 284 1408 272 1394 C 260 1380 254 1364 254 1346 C 254 1337 255 1328 259 1320 C 262 1312 266 1304 272 1298 C 278 1292 284 1287 292 1283 C 300 1279 308 1278 317 1278 C 335 1278 351 1285 364 1299 C 376 1313 383 1328 383 1346 C 383 1364 376 1380 364 1394 C 351 1408 335 1415 317 1415 Z" unicode="å" />
<glyph horiz-adv-x="954" d="M 676 1141 C 707 1141 734 1137 758 1131 C 782 1124 802 1115 820 1103 C 837 1091 852 1078 864 1062 C 876 1046 887 1030 895 1012 C 912 974 922 914 925 831 C 928 748 929 638 928 502 L 547 502 C 547 486 547 466 547 441 C 547 415 548 388 550 359 C 551 330 553 301 555 272 C 557 243 561 217 565 195 C 570 169 582 148 602 133 C 622 118 646 111 676 111 C 704 111 727 117 746 129 C 764 141 776 160 782 186 C 784 198 786 213 788 230 C 790 247 791 263 792 279 C 793 295 794 308 794 320 C 794 331 795 338 795 340 L 926 340 C 926 328 925 312 925 294 C 924 276 923 256 921 236 C 919 216 916 195 912 175 C 908 154 902 135 895 119 C 875 73 848 40 813 19 C 777 -1 731 -12 674 -12 C 617 -12 571 -2 537 17 C 502 37 475 65 457 102 C 445 78 431 59 415 45 C 399 31 382 20 364 12 C 346 4 327 -1 307 -4 C 287 -6 266 -8 246 -8 C 219 -8 193 -3 168 4 C 142 12 120 25 100 41 C 80 57 64 78 52 104 C 40 129 33 159 33 193 C 31 219 30 249 30 282 C 30 314 31 345 33 375 C 37 447 58 506 96 554 C 134 602 192 635 268 655 C 293 661 318 667 343 671 C 367 675 390 678 412 680 L 412 907 C 410 975 377 1010 313 1010 C 285 1010 261 1003 242 991 C 222 978 210 956 205 924 C 201 898 198 869 198 837 C 197 805 197 769 197 729 L 66 729 C 64 773 65 815 67 855 C 69 895 74 931 80 965 C 90 1018 114 1060 153 1092 C 192 1123 247 1139 317 1139 C 367 1139 407 1130 436 1113 C 464 1095 484 1075 496 1053 C 505 1081 526 1102 559 1118 C 591 1133 630 1141 676 1141 Z M 793 623 C 793 630 792 642 792 658 C 792 674 791 693 791 715 C 790 736 789 758 788 782 C 787 805 786 827 785 848 C 783 868 782 887 780 903 C 778 919 777 930 776 936 C 770 962 757 982 739 994 C 721 1006 698 1012 672 1012 C 646 1012 623 1005 603 991 C 582 977 569 958 563 936 C 557 915 553 889 551 857 C 549 825 547 793 547 761 C 546 729 546 700 546 674 C 546 648 547 631 547 623 L 793 623 Z M 414 561 C 400 559 387 557 373 557 C 359 556 346 554 332 551 C 306 545 283 538 261 529 C 239 520 224 511 215 502 C 203 490 193 472 185 447 C 177 422 172 393 170 360 C 169 352 169 342 169 328 C 169 314 169 299 169 284 C 169 268 170 254 170 240 C 170 226 171 215 172 207 C 175 171 186 147 205 134 C 223 121 247 115 276 115 C 302 115 326 121 349 134 C 371 147 389 173 401 211 C 405 221 407 235 409 252 C 410 269 411 288 411 308 C 411 328 411 350 411 372 C 411 394 411 415 412 436 C 412 443 413 452 413 464 C 413 476 414 488 414 500 C 414 512 414 524 414 535 C 414 546 414 555 414 561 Z" unicode="æ" />
<glyph horiz-adv-x="586" d="M 258 -10 C 226 -6 197 3 173 17 C 149 31 128 53 111 84 C 99 104 88 129 80 159 C 71 188 64 222 59 261 C 53 300 49 344 47 394 C 44 444 43 500 43 563 C 43 672 47 765 56 843 C 65 920 83 982 109 1030 C 129 1067 156 1095 188 1113 C 220 1131 261 1141 309 1141 C 353 1141 390 1133 420 1119 C 450 1105 475 1083 494 1054 C 513 1025 527 989 536 946 C 544 903 549 853 549 795 L 549 723 L 416 723 C 416 765 415 804 415 839 C 414 874 410 904 404 929 C 398 954 387 973 373 987 C 358 1001 337 1008 309 1008 C 280 1008 257 998 240 979 C 223 959 210 931 201 894 C 192 856 186 810 184 754 C 181 698 180 635 180 563 C 180 497 181 440 183 392 C 185 344 188 303 192 270 C 196 237 202 210 208 190 C 214 170 222 154 232 143 C 241 131 251 124 263 120 C 275 116 288 115 303 115 C 331 115 353 122 369 137 C 385 152 396 172 403 198 C 410 223 414 252 416 286 C 417 320 418 355 418 393 L 549 393 C 552 269 538 174 506 108 C 474 42 423 4 352 -8 L 352 -51 C 374 -51 395 -54 413 -62 C 431 -69 447 -79 460 -93 C 473 -107 483 -123 491 -142 C 498 -161 502 -182 502 -205 C 502 -230 496 -254 484 -276 C 472 -298 453 -316 428 -331 C 403 -346 372 -356 334 -362 C 296 -368 252 -367 201 -360 L 201 -272 C 233 -277 261 -279 285 -277 C 308 -275 327 -270 342 -262 C 356 -254 367 -244 374 -232 C 381 -219 385 -204 385 -188 C 385 -161 373 -143 351 -133 C 328 -123 297 -119 258 -119 L 258 -10 Z" unicode="ç" />
<glyph horiz-adv-x="596" d="M 555 340 C 555 277 549 223 539 179 C 529 135 513 98 493 70 C 473 42 447 21 416 8 C 385 -5 349 -12 309 -12 C 283 -12 260 -10 238 -7 C 216 -3 197 2 179 11 C 161 19 146 31 132 46 C 118 60 106 79 96 102 C 76 144 63 201 55 274 C 47 346 43 439 43 551 C 43 671 48 771 58 851 C 68 930 87 992 113 1038 C 133 1074 159 1100 190 1116 C 221 1132 259 1141 305 1141 C 355 1141 396 1132 429 1115 C 462 1098 488 1072 507 1038 C 526 1004 539 961 547 910 C 555 858 559 799 559 731 L 559 502 L 178 502 C 178 430 179 369 182 319 C 184 269 190 228 199 198 C 208 167 221 145 238 131 C 254 117 277 111 305 111 C 330 111 350 115 366 123 C 382 131 394 145 402 163 C 410 181 416 205 419 234 C 422 263 424 298 424 340 L 555 340 Z M 424 623 L 424 766 C 424 804 422 839 420 870 C 417 900 411 926 403 947 C 395 968 382 984 366 995 C 350 1006 328 1012 301 1012 C 278 1012 259 1007 243 999 C 227 991 215 973 205 946 C 195 919 188 880 184 829 C 180 777 178 709 178 623 L 424 623 Z M 393 1198 L 262 1198 L 119 1446 L 266 1446 L 393 1198 Z" unicode="è" />
<glyph horiz-adv-x="596" d="M 555 340 C 555 277 549 223 539 179 C 529 135 513 98 493 70 C 473 42 447 21 416 8 C 385 -5 349 -12 309 -12 C 283 -12 260 -10 238 -7 C 216 -3 197 2 179 11 C 161 19 146 31 132 46 C 118 60 106 79 96 102 C 76 144 63 201 55 274 C 47 346 43 439 43 551 C 43 671 48 771 58 851 C 68 930 87 992 113 1038 C 133 1074 159 1100 190 1116 C 221 1132 259 1141 305 1141 C 355 1141 396 1132 429 1115 C 462 1098 488 1072 507 1038 C 526 1004 539 961 547 910 C 555 858 559 799 559 731 L 559 502 L 178 502 C 178 430 179 369 182 319 C 184 269 190 228 199 198 C 208 167 221 145 238 131 C 254 117 277 111 305 111 C 330 111 350 115 366 123 C 382 131 394 145 402 163 C 410 181 416 205 419 234 C 422 263 424 298 424 340 L 555 340 Z M 424 623 L 424 766 C 424 804 422 839 420 870 C 417 900 411 926 403 947 C 395 968 382 984 366 995 C 350 1006 328 1012 301 1012 C 278 1012 259 1007 243 999 C 227 991 215 973 205 946 C 195 919 188 880 184 829 C 180 777 178 709 178 623 L 424 623 Z M 219 1198 L 342 1446 L 492 1446 L 344 1198 L 219 1198 Z" unicode="é" />
<glyph horiz-adv-x="596" d="M 555 340 C 555 277 549 223 539 179 C 529 135 513 98 493 70 C 473 42 447 21 416 8 C 385 -5 349 -12 309 -12 C 283 -12 260 -10 238 -7 C 216 -3 197 2 179 11 C 161 19 146 31 132 46 C 118 60 106 79 96 102 C 76 144 63 201 55 274 C 47 346 43 439 43 551 C 43 671 48 771 58 851 C 68 930 87 992 113 1038 C 133 1074 159 1100 190 1116 C 221 1132 259 1141 305 1141 C 355 1141 396 1132 429 1115 C 462 1098 488 1072 507 1038 C 526 1004 539 961 547 910 C 555 858 559 799 559 731 L 559 502 L 178 502 C 178 430 179 369 182 319 C 184 269 190 228 199 198 C 208 167 221 145 238 131 C 254 117 277 111 305 111 C 330 111 350 115 366 123 C 382 131 394 145 402 163 C 410 181 416 205 419 234 C 422 263 424 298 424 340 L 555 340 Z M 424 623 L 424 766 C 424 804 422 839 420 870 C 417 900 411 926 403 947 C 395 968 382 984 366 995 C 350 1006 328 1012 301 1012 C 278 1012 259 1007 243 999 C 227 991 215 973 205 946 C 195 919 188 880 184 829 C 180 777 178 709 178 623 L 424 623 Z M 516 1200 L 395 1200 L 305 1358 L 217 1200 L 98 1200 L 229 1448 L 387 1448 L 516 1200 Z" unicode="ê" />
<glyph horiz-adv-x="596" d="M 555 340 C 555 277 549 223 539 179 C 529 135 513 98 493 70 C 473 42 447 21 416 8 C 385 -5 349 -12 309 -12 C 283 -12 260 -10 238 -7 C 216 -3 197 2 179 11 C 161 19 146 31 132 46 C 118 60 106 79 96 102 C 76 144 63 201 55 274 C 47 346 43 439 43 551 C 43 671 48 771 58 851 C 68 930 87 992 113 1038 C 133 1074 159 1100 190 1116 C 221 1132 259 1141 305 1141 C 355 1141 396 1132 429 1115 C 462 1098 488 1072 507 1038 C 526 1004 539 961 547 910 C 555 858 559 799 559 731 L 559 502 L 178 502 C 178 430 179 369 182 319 C 184 269 190 228 199 198 C 208 167 221 145 238 131 C 254 117 277 111 305 111 C 330 111 350 115 366 123 C 382 131 394 145 402 163 C 410 181 416 205 419 234 C 422 263 424 298 424 340 L 555 340 Z M 424 623 L 424 766 C 424 804 422 839 420 870 C 417 900 411 926 403 947 C 395 968 382 984 366 995 C 350 1006 328 1012 301 1012 C 278 1012 259 1007 243 999 C 227 991 215 973 205 946 C 195 919 188 880 184 829 C 180 777 178 709 178 623 L 424 623 Z M 492 1198 L 362 1198 L 362 1397 L 492 1397 L 492 1198 Z M 250 1198 L 123 1198 L 123 1397 L 250 1397 L 250 1198 Z" unicode="ë" />
<glyph horiz-adv-x="272" d="M 217 0 L 76 0 C 74 0 72 8 70 25 C 67 42 66 61 66 82 L 66 1126 L 207 1126 L 207 94 C 207 82 207 71 208 60 C 209 49 210 39 211 31 C 212 22 213 15 214 9 C 215 3 216 0 217 0 Z M 215 1198 L 84 1198 L -59 1446 L 88 1446 L 215 1198 Z" unicode="ì" />
<glyph horiz-adv-x="272" d="M 217 0 L 76 0 C 74 0 72 8 70 25 C 67 42 66 61 66 82 L 66 1126 L 207 1126 L 207 94 C 207 82 207 71 208 60 C 209 49 210 39 211 31 C 212 22 213 15 214 9 C 215 3 216 0 217 0 Z M 57 1198 L 180 1446 L 330 1446 L 182 1198 L 57 1198 Z" unicode="í" />
<glyph horiz-adv-x="272" d="M 217 0 L 76 0 C 74 0 72 8 70 25 C 67 42 66 61 66 82 L 66 1126 L 207 1126 L 207 94 C 207 82 207 71 208 60 C 209 49 210 39 211 31 C 212 22 213 15 214 9 C 215 3 216 0 217 0 Z M 346 1200 L 225 1200 L 135 1358 L 47 1200 L -72 1200 L 59 1448 L 217 1448 L 346 1200 Z" unicode="î" />
<glyph horiz-adv-x="272" d="M 217 0 L 76 0 C 74 0 72 8 70 25 C 67 42 66 61 66 82 L 66 1126 L 207 1126 L 207 94 C 207 82 207 71 208 60 C 209 49 210 39 211 31 C 212 22 213 15 214 9 C 215 3 216 0 217 0 Z M 322 1198 L 193 1198 L 193 1397 L 322 1397 L 322 1198 Z M 80 1198 L -47 1198 L -47 1397 L 80 1397 L 80 1198 Z" unicode="ï" />
<glyph horiz-adv-x="635" d="M 438 1204 C 428 1198 419 1195 410 1193 C 401 1191 392 1190 383 1190 C 349 1190 321 1201 297 1224 C 273 1247 257 1279 248 1321 L 313 1346 C 323 1292 346 1266 381 1266 C 401 1266 419 1273 434 1288 C 432 1306 431 1323 431 1338 C 430 1353 430 1364 430 1372 C 427 1396 423 1417 418 1436 C 413 1454 406 1470 397 1483 C 387 1495 376 1505 362 1512 C 348 1518 331 1522 311 1522 C 274 1522 248 1514 233 1500 C 218 1486 209 1464 205 1434 L 205 1391 L 66 1391 C 66 1396 66 1406 66 1421 C 66 1436 68 1450 70 1464 C 72 1488 79 1511 91 1533 C 102 1555 118 1574 138 1591 C 158 1608 182 1622 211 1632 C 239 1642 273 1647 311 1647 C 349 1647 383 1641 412 1629 C 441 1617 466 1601 486 1581 C 506 1560 521 1535 533 1507 C 544 1478 552 1447 557 1413 C 558 1403 559 1393 561 1384 C 562 1374 563 1364 565 1352 C 576 1359 586 1363 595 1365 C 603 1367 614 1368 627 1368 C 645 1368 661 1364 675 1358 C 689 1351 701 1342 712 1331 C 722 1319 731 1306 739 1290 C 747 1274 753 1257 758 1239 L 694 1210 C 688 1232 681 1252 671 1268 C 661 1284 645 1292 625 1292 C 612 1292 602 1289 596 1285 C 589 1281 581 1276 573 1270 C 575 1245 577 1218 579 1189 C 581 1159 584 1129 586 1099 C 588 1068 589 1037 590 1007 C 591 977 592 948 592 922 C 592 896 592 865 592 828 C 592 790 591 750 591 707 C 590 664 589 619 588 573 C 587 527 586 482 584 440 C 582 398 580 359 578 323 C 575 287 572 258 569 236 C 563 196 554 160 542 129 C 530 98 515 72 495 51 C 475 30 450 14 421 4 C 391 -6 356 -12 315 -12 C 242 -12 186 3 146 34 C 106 64 77 114 61 184 C 56 205 52 234 49 272 C 46 310 44 352 43 398 C 41 444 41 493 41 544 C 41 594 42 643 44 691 C 45 738 47 781 50 821 C 53 861 57 893 61 918 C 67 940 76 960 88 980 C 100 1000 115 1017 133 1031 C 151 1045 171 1057 195 1066 C 219 1074 246 1079 276 1079 C 319 1079 354 1071 380 1056 C 406 1040 428 1017 446 985 C 446 993 445 1005 445 1021 C 445 1037 444 1055 444 1075 C 443 1095 442 1116 441 1138 C 440 1160 439 1182 438 1204 Z M 195 246 C 198 220 203 199 209 183 C 215 167 223 154 233 144 C 243 134 254 128 268 124 C 281 120 297 119 315 119 C 335 119 352 121 367 126 C 381 130 394 138 404 149 C 414 160 421 175 427 193 C 433 211 437 233 440 260 C 440 269 441 287 442 313 C 442 339 443 369 444 405 C 444 440 445 478 446 518 C 446 558 447 596 447 634 C 447 671 448 705 448 735 C 448 765 449 789 449 805 C 446 821 442 837 436 855 C 430 872 422 888 412 902 C 402 916 389 928 373 938 C 357 947 338 952 315 952 C 297 952 281 949 267 943 C 253 937 242 930 233 921 C 223 911 216 901 211 889 C 205 877 201 864 199 852 C 196 841 194 820 192 789 C 190 758 189 722 188 680 C 187 638 187 594 187 548 C 187 502 187 458 188 417 C 188 375 189 339 190 308 C 191 277 193 256 195 246 Z" unicode="ð" />
<glyph horiz-adv-x="608" d="M 555 0 L 418 0 C 417 0 416 1 416 5 C 416 8 415 18 415 36 C 415 53 414 80 414 117 C 414 154 414 206 414 273 C 414 340 414 425 414 528 C 414 630 414 756 414 905 C 414 940 406 966 392 983 C 377 999 353 1008 319 1008 C 302 1008 286 1005 272 999 C 258 993 245 983 235 969 C 224 955 216 938 210 917 C 204 895 201 870 201 840 L 201 0 L 63 0 L 63 1126 L 195 1126 L 195 1016 C 200 1038 209 1057 221 1073 C 233 1089 248 1101 264 1111 C 280 1121 297 1128 316 1132 C 334 1136 353 1139 373 1139 C 405 1139 432 1134 455 1124 C 477 1114 496 1101 510 1083 C 524 1065 535 1043 541 1018 C 547 992 551 964 551 934 C 551 780 551 650 551 544 C 551 438 551 350 551 281 C 551 211 551 158 551 120 C 551 82 552 55 552 37 C 552 19 553 8 553 5 C 553 1 554 0 555 0 Z M 299 1239 C 285 1252 273 1264 261 1274 C 249 1284 238 1290 227 1290 C 213 1290 201 1283 192 1270 C 183 1257 178 1236 176 1206 L 76 1214 C 78 1242 82 1268 90 1292 C 97 1316 106 1336 118 1353 C 130 1370 144 1383 160 1393 C 176 1402 193 1407 213 1407 C 234 1407 254 1403 274 1397 C 294 1391 312 1377 330 1356 C 340 1343 348 1333 356 1327 C 364 1320 373 1317 385 1317 C 401 1317 413 1323 421 1336 C 429 1349 434 1371 438 1403 L 537 1393 C 532 1333 518 1285 494 1251 C 470 1217 438 1200 397 1200 C 377 1200 360 1202 346 1206 C 331 1210 315 1221 299 1239 Z" unicode="ñ" />
<glyph horiz-adv-x="616" d="M 575 563 C 575 451 570 357 562 281 C 553 205 536 144 512 98 C 491 60 464 32 432 14 C 400 -3 359 -12 309 -12 C 259 -12 218 -3 186 14 C 153 32 126 59 106 96 C 81 142 64 203 56 280 C 47 356 43 451 43 563 C 43 679 48 777 58 856 C 68 934 87 996 115 1042 C 135 1076 162 1101 194 1117 C 226 1133 265 1141 311 1141 C 359 1141 400 1133 432 1118 C 464 1102 490 1078 510 1044 C 535 998 552 936 561 858 C 570 780 575 681 575 563 Z M 438 561 C 438 653 437 728 435 786 C 433 844 427 889 419 923 C 410 956 397 979 380 991 C 362 1003 339 1010 309 1010 C 283 1010 262 1004 246 993 C 229 981 216 959 206 927 C 196 894 190 848 186 790 C 182 731 180 655 180 561 C 180 477 181 407 183 351 C 185 294 190 248 199 213 C 207 178 220 153 238 138 C 255 122 279 115 309 115 C 338 115 361 122 378 138 C 395 154 408 179 417 214 C 426 249 432 295 434 352 C 436 408 438 478 438 561 Z M 393 1198 L 262 1198 L 119 1446 L 266 1446 L 393 1198 Z" unicode="ò" />
<glyph horiz-adv-x="616" d="M 575 563 C 575 451 570 357 562 281 C 553 205 536 144 512 98 C 491 60 464 32 432 14 C 400 -3 359 -12 309 -12 C 259 -12 218 -3 186 14 C 153 32 126 59 106 96 C 81 142 64 203 56 280 C 47 356 43 451 43 563 C 43 679 48 777 58 856 C 68 934 87 996 115 1042 C 135 1076 162 1101 194 1117 C 226 1133 265 1141 311 1141 C 359 1141 400 1133 432 1118 C 464 1102 490 1078 510 1044 C 535 998 552 936 561 858 C 570 780 575 681 575 563 Z M 438 561 C 438 653 437 728 435 786 C 433 844 427 889 419 923 C 410 956 397 979 380 991 C 362 1003 339 1010 309 1010 C 283 1010 262 1004 246 993 C 229 981 216 959 206 927 C 196 894 190 848 186 790 C 182 731 180 655 180 561 C 180 477 181 407 183 351 C 185 294 190 248 199 213 C 207 178 220 153 238 138 C 255 122 279 115 309 115 C 338 115 361 122 378 138 C 395 154 408 179 417 214 C 426 249 432 295 434 352 C 436 408 438 478 438 561 Z M 223 1198 L 346 1446 L 496 1446 L 348 1198 L 223 1198 Z" unicode="ó" />
<glyph horiz-adv-x="616" d="M 575 563 C 575 451 570 357 562 281 C 553 205 536 144 512 98 C 491 60 464 32 432 14 C 400 -3 359 -12 309 -12 C 259 -12 218 -3 186 14 C 153 32 126 59 106 96 C 81 142 64 203 56 280 C 47 356 43 451 43 563 C 43 679 48 777 58 856 C 68 934 87 996 115 1042 C 135 1076 162 1101 194 1117 C 226 1133 265 1141 311 1141 C 359 1141 400 1133 432 1118 C 464 1102 490 1078 510 1044 C 535 998 552 936 561 858 C 570 780 575 681 575 563 Z M 438 561 C 438 653 437 728 435 786 C 433 844 427 889 419 923 C 410 956 397 979 380 991 C 362 1003 339 1010 309 1010 C 283 1010 262 1004 246 993 C 229 981 216 959 206 927 C 196 894 190 848 186 790 C 182 731 180 655 180 561 C 180 477 181 407 183 351 C 185 294 190 248 199 213 C 207 178 220 153 238 138 C 255 122 279 115 309 115 C 338 115 361 122 378 138 C 395 154 408 179 417 214 C 426 249 432 295 434 352 C 436 408 438 478 438 561 Z M 520 1200 L 399 1200 L 309 1358 L 221 1200 L 102 1200 L 233 1448 L 391 1448 L 520 1200 Z" unicode="ô" />
<glyph horiz-adv-x="616" d="M 575 563 C 575 451 570 357 562 281 C 553 205 536 144 512 98 C 491 60 464 32 432 14 C 400 -3 359 -12 309 -12 C 259 -12 218 -3 186 14 C 153 32 126 59 106 96 C 81 142 64 203 56 280 C 47 356 43 451 43 563 C 43 679 48 777 58 856 C 68 934 87 996 115 1042 C 135 1076 162 1101 194 1117 C 226 1133 265 1141 311 1141 C 359 1141 400 1133 432 1118 C 464 1102 490 1078 510 1044 C 535 998 552 936 561 858 C 570 780 575 681 575 563 Z M 438 561 C 438 653 437 728 435 786 C 433 844 427 889 419 923 C 410 956 397 979 380 991 C 362 1003 339 1010 309 1010 C 283 1010 262 1004 246 993 C 229 981 216 959 206 927 C 196 894 190 848 186 790 C 182 731 180 655 180 561 C 180 477 181 407 183 351 C 185 294 190 248 199 213 C 207 178 220 153 238 138 C 255 122 279 115 309 115 C 338 115 361 122 378 138 C 395 154 408 179 417 214 C 426 249 432 295 434 352 C 436 408 438 478 438 561 Z M 309 1239 C 295 1252 283 1264 272 1274 C 260 1284 249 1290 238 1290 C 223 1290 211 1283 202 1270 C 193 1257 188 1236 186 1206 L 86 1214 C 88 1242 92 1268 100 1292 C 107 1316 116 1336 128 1353 C 140 1370 154 1383 170 1393 C 186 1402 203 1407 223 1407 C 244 1407 264 1403 284 1397 C 304 1391 322 1377 340 1356 C 350 1343 358 1333 366 1327 C 374 1320 383 1317 395 1317 C 411 1317 424 1323 432 1336 C 440 1349 445 1371 449 1403 L 547 1393 C 543 1333 529 1285 505 1251 C 481 1217 448 1200 408 1200 C 388 1200 371 1202 356 1206 C 341 1210 325 1221 309 1239 Z" unicode="õ" />
<glyph horiz-adv-x="616" d="M 575 563 C 575 451 570 357 562 281 C 553 205 536 144 512 98 C 491 60 464 32 432 14 C 400 -3 359 -12 309 -12 C 259 -12 218 -3 186 14 C 153 32 126 59 106 96 C 81 142 64 203 56 280 C 47 356 43 451 43 563 C 43 679 48 777 58 856 C 68 934 87 996 115 1042 C 135 1076 162 1101 194 1117 C 226 1133 265 1141 311 1141 C 359 1141 400 1133 432 1118 C 464 1102 490 1078 510 1044 C 535 998 552 936 561 858 C 570 780 575 681 575 563 Z M 438 561 C 438 653 437 728 435 786 C 433 844 427 889 419 923 C 410 956 397 979 380 991 C 362 1003 339 1010 309 1010 C 283 1010 262 1004 246 993 C 229 981 216 959 206 927 C 196 894 190 848 186 790 C 182 731 180 655 180 561 C 180 477 181 407 183 351 C 185 294 190 248 199 213 C 207 178 220 153 238 138 C 255 122 279 115 309 115 C 338 115 361 122 378 138 C 395 154 408 179 417 214 C 426 249 432 295 434 352 C 436 408 438 478 438 561 Z M 500 1198 L 371 1198 L 371 1397 L 500 1397 L 500 1198 Z M 258 1198 L 131 1198 L 131 1397 L 258 1397 L 258 1198 Z" unicode="ö" />
<glyph horiz-adv-x="1536" d="M 208 684 L 208 896 L 1328 896 L 1328 684 L 208 684 Z M 768 228 C 725 228 688 244 656 276 C 624 308 608 345 608 388 C 608 430 622 468 650 500 C 678 532 717 548 768 548 C 816 548 854 532 884 500 C 913 468 928 430 928 388 C 928 345 912 308 880 276 C 848 244 810 228 768 228 Z M 768 1028 C 725 1028 688 1044 656 1076 C 624 1108 608 1145 608 1188 C 608 1230 622 1268 650 1300 C 678 1332 717 1348 768 1348 C 816 1348 854 1332 884 1300 C 913 1268 928 1230 928 1188 C 928 1145 912 1108 880 1076 C 848 1044 810 1028 768 1028 Z" unicode="÷" />
<glyph horiz-adv-x="616" d="M 137 51 C 111 77 92 112 80 154 C 74 175 68 202 64 234 C 59 266 55 300 52 337 C 49 374 47 412 45 451 C 43 490 43 527 43 563 C 43 636 45 706 51 774 C 56 842 64 902 76 954 C 82 981 91 1006 104 1029 C 116 1052 132 1072 152 1088 C 171 1104 194 1117 220 1127 C 246 1136 277 1141 311 1141 C 355 1141 394 1133 428 1118 L 442 1174 L 510 1174 L 483 1079 C 514 1051 535 1010 545 958 C 555 910 562 852 567 783 C 572 713 575 640 575 563 C 575 527 574 491 573 453 C 572 415 570 378 567 342 C 564 306 560 271 556 239 C 551 207 545 178 539 154 C 522 97 493 55 453 28 C 413 1 365 -12 309 -12 C 263 -12 225 -4 193 12 L 174 -51 L 109 -51 L 137 51 Z M 190 252 L 391 983 C 371 1003 343 1014 309 1014 C 249 1014 213 980 199 913 C 195 895 191 872 188 843 C 185 814 183 783 181 750 C 179 717 177 684 177 650 C 176 616 176 587 176 561 C 176 538 176 513 177 486 C 177 459 178 432 180 404 C 181 376 182 349 184 323 C 186 296 188 272 190 252 Z M 428 874 L 227 143 C 247 121 275 111 309 111 C 337 111 361 118 381 133 C 401 148 414 171 420 203 C 422 219 425 242 428 272 C 430 301 433 332 435 366 C 437 400 438 434 440 468 C 441 502 442 533 442 561 C 442 583 441 607 441 635 C 440 663 439 691 438 719 C 436 747 435 775 433 802 C 431 829 430 853 428 874 Z" unicode="ø" />
<glyph horiz-adv-x="612" d="M 555 0 L 420 0 L 416 70 C 407 54 397 42 385 32 C 373 22 359 14 345 8 C 331 2 316 -2 300 -4 C 284 -6 267 -8 250 -8 C 222 -8 196 -3 172 4 C 148 12 128 25 112 43 C 95 60 82 82 73 110 C 63 138 59 171 59 211 L 59 1126 L 199 1126 L 199 225 C 199 150 231 113 297 113 C 333 113 361 125 381 150 C 401 175 412 212 412 260 L 412 1126 L 551 1126 L 551 139 C 551 101 551 70 552 46 C 552 22 553 7 555 0 Z M 408 1198 L 276 1198 L 133 1446 L 281 1446 L 408 1198 Z" unicode="ù" />
<glyph horiz-adv-x="612" d="M 555 0 L 420 0 L 416 70 C 407 54 397 42 385 32 C 373 22 359 14 345 8 C 331 2 316 -2 300 -4 C 284 -6 267 -8 250 -8 C 222 -8 196 -3 172 4 C 148 12 128 25 112 43 C 95 60 82 82 73 110 C 63 138 59 171 59 211 L 59 1126 L 199 1126 L 199 225 C 199 150 231 113 297 113 C 333 113 361 125 381 150 C 401 175 412 212 412 260 L 412 1126 L 551 1126 L 551 139 C 551 101 551 70 552 46 C 552 22 553 7 555 0 Z M 217 1198 L 340 1446 L 489 1446 L 342 1198 L 217 1198 Z" unicode="ú" />
<glyph horiz-adv-x="612" d="M 555 0 L 420 0 L 416 70 C 407 54 397 42 385 32 C 373 22 359 14 345 8 C 331 2 316 -2 300 -4 C 284 -6 267 -8 250 -8 C 222 -8 196 -3 172 4 C 148 12 128 25 112 43 C 95 60 82 82 73 110 C 63 138 59 171 59 211 L 59 1126 L 199 1126 L 199 225 C 199 150 231 113 297 113 C 333 113 361 125 381 150 C 401 175 412 212 412 260 L 412 1126 L 551 1126 L 551 139 C 551 101 551 70 552 46 C 552 22 553 7 555 0 Z M 514 1200 L 393 1200 L 303 1358 L 215 1200 L 96 1200 L 227 1448 L 385 1448 L 514 1200 Z" unicode="û" />
<glyph horiz-adv-x="612" d="M 555 0 L 420 0 L 416 70 C 407 54 397 42 385 32 C 373 22 359 14 345 8 C 331 2 316 -2 300 -4 C 284 -6 267 -8 250 -8 C 222 -8 196 -3 172 4 C 148 12 128 25 112 43 C 95 60 82 82 73 110 C 63 138 59 171 59 211 L 59 1126 L 199 1126 L 199 225 C 199 150 231 113 297 113 C 333 113 361 125 381 150 C 401 175 412 212 412 260 L 412 1126 L 551 1126 L 551 139 C 551 101 551 70 552 46 C 552 22 553 7 555 0 Z M 489 1198 L 360 1198 L 360 1397 L 489 1397 L 489 1198 Z M 248 1198 L 121 1198 L 121 1397 L 248 1397 L 248 1198 Z" unicode="ü" />
<glyph horiz-adv-x="588" d="M 584 1126 L 283 -334 L 141 -334 L 223 55 L 4 1126 L 145 1126 C 145 1124 147 1112 151 1088 C 155 1064 161 1032 168 994 C 175 955 183 911 192 863 C 200 815 209 765 219 715 C 228 664 237 614 246 566 C 254 517 262 473 269 435 C 276 397 282 366 286 342 C 290 318 293 306 293 305 C 293 306 295 318 300 342 C 304 366 310 397 317 435 C 324 473 332 517 341 566 C 350 614 359 664 369 715 C 379 765 388 815 397 863 C 406 911 414 955 421 994 C 428 1032 434 1064 439 1088 C 443 1112 446 1124 446 1126 L 584 1126 Z M 195 1198 L 317 1446 L 467 1446 L 319 1198 L 195 1198 Z" unicode="ý" />
<glyph horiz-adv-x="625" d="M 584 584 C 584 539 583 495 582 451 C 580 407 578 365 576 327 C 574 289 571 254 567 224 C 563 194 558 170 553 154 C 541 102 519 62 486 36 C 452 9 413 -4 367 -4 C 325 -4 289 2 261 14 C 233 26 212 43 199 63 L 199 -334 L 63 -334 L 63 1636 L 197 1636 L 197 1034 C 208 1069 229 1095 261 1113 C 293 1130 329 1139 371 1139 C 419 1139 458 1128 488 1106 C 518 1084 539 1046 553 993 C 563 949 570 892 576 820 C 581 748 584 669 584 584 Z M 446 578 C 446 608 445 641 445 675 C 444 709 443 741 442 773 C 440 805 438 834 436 862 C 433 889 430 912 426 930 C 420 953 409 971 393 985 C 377 999 354 1006 324 1006 C 292 1006 268 996 252 978 C 235 960 224 936 219 907 C 214 880 210 854 208 828 C 205 802 203 776 201 750 C 199 724 198 696 198 668 C 197 640 197 610 197 578 C 197 516 197 465 198 425 C 198 384 199 349 201 321 C 203 293 205 269 208 250 C 210 231 213 213 217 195 C 223 175 234 158 251 144 C 267 130 292 123 324 123 C 352 123 375 129 393 143 C 410 156 422 179 428 213 C 430 229 433 252 435 280 C 437 308 439 339 441 373 C 443 406 444 440 445 476 C 445 512 446 546 446 578 Z" unicode="þ" />
<glyph horiz-adv-x="588" d="M 584 1126 L 283 -334 L 141 -334 L 223 55 L 4 1126 L 145 1126 C 145 1124 147 1112 151 1088 C 155 1064 161 1032 168 994 C 175 955 183 911 192 863 C 200 815 209 765 219 715 C 228 664 237 614 246 566 C 254 517 262 473 269 435 C 276 397 282 366 286 342 C 290 318 293 306 293 305 C 293 306 295 318 300 342 C 304 366 310 397 317 435 C 324 473 332 517 341 566 C 350 614 359 664 369 715 C 379 765 388 815 397 863 C 406 911 414 955 421 994 C 428 1032 434 1064 439 1088 C 443 1112 446 1124 446 1126 L 584 1126 Z M 481 1198 L 352 1198 L 352 1397 L 481 1397 L 481 1198 Z M 240 1198 L 113 1198 L 113 1397 L 240 1397 L 240 1198 Z" unicode="ÿ" />
<glyph horiz-adv-x="737" d="M 246 999 L 246 0 L 106 0 L 106 999 L 10 999 L 10 1126 L 106 1126 L 106 1430 C 106 1461 109 1490 116 1516 C 122 1542 133 1565 148 1584 C 163 1603 182 1618 206 1629 C 229 1639 257 1645 291 1645 C 316 1645 336 1644 351 1642 C 365 1640 379 1638 391 1636 L 391 1509 C 383 1509 371 1509 357 1511 C 342 1512 329 1513 319 1513 C 291 1513 271 1504 260 1488 C 249 1471 244 1451 244 1427 L 244 1126 L 459 1126 L 459 1425 C 459 1456 462 1485 469 1512 C 475 1538 486 1561 501 1581 C 515 1601 534 1616 557 1628 C 580 1639 608 1645 641 1645 C 666 1645 686 1644 701 1642 C 715 1640 729 1638 741 1636 L 741 1509 C 731 1509 720 1509 707 1511 C 694 1512 682 1513 670 1513 C 644 1513 625 1505 613 1490 C 601 1474 596 1455 596 1432 L 596 1126 L 729 1126 L 729 999 L 596 999 L 596 0 L 459 0 L 459 999 L 246 999 Z" unicode="ﬀ" />
<glyph horiz-adv-x="700" d="M 473 1001 L 250 1001 L 250 0 L 109 0 L 109 999 L 10 999 L 10 1126 L 109 1126 L 109 1432 C 109 1462 112 1491 119 1517 C 126 1543 137 1566 153 1585 C 169 1603 189 1618 213 1629 C 237 1639 267 1645 301 1645 C 327 1645 348 1644 362 1642 C 376 1640 389 1638 401 1636 L 401 1509 C 391 1509 380 1509 367 1511 C 354 1512 342 1513 330 1513 C 300 1513 279 1504 267 1488 C 254 1471 248 1449 248 1421 L 248 1126 L 614 1126 L 614 94 C 614 83 614 72 615 61 C 616 50 617 40 619 31 C 620 22 621 15 622 9 C 623 3 624 0 625 0 L 485 0 C 483 0 482 3 481 8 C 479 13 478 19 477 27 C 476 35 475 43 474 53 C 473 62 473 72 473 82 L 473 1001 Z" unicode="ﬁ" />
<glyph horiz-adv-x="705" d="M 10 999 L 10 1126 L 106 1126 L 106 1430 C 106 1461 109 1490 116 1516 C 123 1542 134 1565 149 1584 C 164 1603 183 1618 207 1629 C 231 1639 259 1645 293 1645 C 318 1645 338 1644 352 1642 C 366 1640 379 1638 391 1636 L 391 1509 C 383 1510 372 1511 358 1512 C 344 1512 331 1513 319 1513 C 292 1513 273 1505 262 1490 C 251 1474 246 1455 246 1432 L 246 1126 L 399 1126 L 399 999 L 248 999 L 248 0 L 106 0 L 106 999 L 10 999 Z M 621 0 L 485 0 C 481 3 479 11 477 24 C 475 36 475 50 475 66 L 475 1540 C 475 1548 474 1558 474 1568 C 474 1578 473 1588 473 1597 C 473 1606 472 1614 472 1621 C 472 1628 471 1633 471 1636 L 610 1636 C 611 1634 612 1627 613 1613 C 613 1599 614 1584 614 1569 L 614 88 C 614 36 616 7 621 0 Z" unicode="ﬂ" />
<glyph horiz-adv-x="643" d="M 324 520 C 294 520 265 526 239 538 C 213 550 190 567 170 588 C 150 608 135 632 123 660 C 111 688 106 717 106 748 C 106 778 111 807 123 835 C 135 862 150 886 170 906 C 190 926 213 941 239 953 C 265 965 294 971 324 971 C 353 971 381 965 407 953 C 433 941 456 926 476 906 C 496 886 511 862 523 835 C 535 807 541 778 541 748 C 541 717 535 688 523 660 C 511 632 496 608 476 588 C 456 567 433 550 407 538 C 381 526 353 520 324 520 Z" unicode="•" />
<glyph horiz-adv-x="586" d="M 487 1225 L 96 1225 L 96 1333 L 487 1333 L 487 1225 Z" unicode="̄" />
<glyph horiz-adv-x="586" d="M 502 1401 C 502 1370 497 1342 488 1317 C 478 1291 465 1269 447 1251 C 429 1233 408 1219 382 1209 C 356 1199 326 1194 293 1194 C 226 1194 174 1212 137 1250 C 100 1288 82 1338 82 1401 L 197 1401 C 197 1371 204 1346 220 1327 C 235 1307 259 1298 291 1298 C 325 1298 350 1307 366 1326 C 381 1344 389 1369 389 1401 L 502 1401 Z" unicode="˘" />
<glyph horiz-adv-x="586" d="M 360 1200 L 225 1200 L 225 1397 L 360 1397 L 360 1200 Z" unicode="˙" />
<glyph horiz-adv-x="586" d="M 291 1495 C 311 1495 329 1491 347 1483 C 365 1475 380 1465 393 1452 C 406 1438 416 1422 424 1404 C 432 1386 436 1366 436 1346 C 436 1325 432 1306 424 1288 C 416 1270 406 1254 393 1240 C 380 1226 365 1216 347 1208 C 329 1200 311 1196 291 1196 C 271 1196 253 1200 236 1208 C 218 1216 203 1226 191 1240 C 178 1254 168 1270 161 1288 C 153 1306 150 1325 150 1346 C 150 1366 153 1386 161 1404 C 168 1422 178 1438 191 1452 C 203 1465 218 1475 236 1483 C 253 1491 271 1495 291 1495 Z M 291 1415 C 273 1415 258 1408 246 1394 C 233 1380 227 1364 227 1346 C 227 1328 233 1313 246 1299 C 258 1285 273 1278 291 1278 C 309 1278 325 1285 337 1299 C 349 1313 356 1328 356 1346 C 356 1364 349 1380 337 1394 C 325 1408 309 1415 291 1415 Z" unicode="˚" />
<glyph horiz-adv-x="1509" d="M 479 1090 C 479 1047 474 1009 465 975 C 455 941 441 912 423 888 C 404 864 381 846 353 834 C 325 821 292 815 256 815 C 217 815 184 821 157 835 C 129 848 107 867 89 891 C 71 915 59 943 51 977 C 43 1011 39 1048 39 1090 L 39 1378 C 39 1418 43 1454 52 1488 C 60 1521 73 1550 91 1574 C 109 1598 131 1617 159 1631 C 187 1644 220 1651 258 1651 C 299 1651 334 1643 362 1629 C 390 1614 413 1594 431 1570 C 448 1545 460 1516 468 1483 C 475 1449 479 1414 479 1378 L 479 1090 Z M 821 1569 L 268 0 L 178 0 L 731 1569 L 821 1569 Z M 1479 260 C 1479 172 1460 105 1424 57 C 1387 9 1330 -14 1253 -14 C 1215 -14 1182 -7 1154 5 C 1126 18 1104 37 1087 61 C 1069 85 1056 113 1048 147 C 1040 181 1036 218 1036 260 L 1036 547 C 1036 586 1040 622 1049 656 C 1057 690 1071 719 1089 743 C 1107 767 1130 786 1158 800 C 1186 814 1219 821 1257 821 C 1297 821 1332 813 1360 798 C 1388 783 1411 763 1429 738 C 1447 713 1459 684 1467 651 C 1475 617 1479 583 1479 547 L 1479 260 Z M 985 260 C 985 172 967 105 931 57 C 895 9 838 -14 760 -14 C 721 -14 688 -7 661 5 C 633 18 611 37 593 61 C 575 85 563 113 555 147 C 547 181 543 218 543 260 L 543 547 C 543 586 547 622 556 656 C 564 690 578 719 596 743 C 614 767 637 786 665 800 C 693 814 726 821 764 821 C 804 821 839 813 867 798 C 895 783 918 763 936 738 C 953 713 965 684 973 651 C 981 617 985 583 985 547 L 985 260 Z M 367 1090 L 367 1397 C 367 1438 357 1470 337 1494 C 317 1518 291 1530 258 1530 C 187 1530 152 1485 152 1397 L 152 1094 C 152 1039 161 999 179 973 C 197 947 224 934 258 934 C 330 934 367 986 367 1090 Z M 1364 262 L 1364 565 C 1364 606 1354 639 1336 663 C 1317 687 1291 700 1257 700 C 1221 700 1194 688 1176 665 C 1158 641 1149 608 1149 565 L 1149 262 C 1149 210 1158 170 1177 144 C 1195 117 1222 104 1257 104 C 1295 104 1322 116 1339 142 C 1355 168 1364 208 1364 262 Z M 872 262 L 872 565 C 872 606 862 639 843 663 C 824 687 798 700 764 700 C 728 700 700 688 682 665 C 664 641 655 608 655 565 L 655 262 C 655 210 664 170 683 144 C 701 117 728 104 764 104 C 802 104 829 116 846 142 C 863 168 872 208 872 262 Z" unicode="‰" />
<glyph horiz-adv-x="1014" d="M 872 1063 L 872 1458 C 872 1476 868 1493 860 1509 C 852 1524 836 1532 813 1532 C 801 1532 790 1528 781 1522 C 772 1516 765 1508 759 1498 C 753 1488 748 1477 745 1465 C 742 1453 741 1442 741 1432 L 741 1063 L 633 1063 L 633 1462 C 633 1483 628 1500 620 1513 C 611 1525 596 1532 575 1532 C 551 1532 533 1520 520 1497 C 506 1474 500 1447 500 1415 L 500 1063 L 389 1063 L 389 1636 L 498 1636 L 498 1548 C 504 1580 518 1604 540 1621 C 562 1638 589 1647 621 1647 C 653 1647 677 1637 694 1619 C 711 1600 723 1577 729 1550 C 733 1567 739 1582 748 1594 C 756 1606 766 1616 778 1624 C 789 1632 801 1637 815 1641 C 828 1645 842 1647 856 1647 C 880 1647 900 1642 916 1634 C 932 1625 944 1614 954 1600 C 964 1586 971 1570 975 1552 C 979 1534 981 1515 981 1497 L 981 1063 L 872 1063 Z M 344 1528 L 217 1528 C 217 1492 216 1461 216 1436 C 216 1410 216 1387 216 1366 C 216 1344 216 1324 216 1304 C 216 1284 216 1261 217 1237 C 217 1211 223 1193 235 1182 C 247 1170 261 1165 279 1165 C 286 1165 295 1165 307 1165 C 318 1165 326 1165 330 1167 L 330 1065 C 324 1063 317 1062 309 1062 C 301 1062 292 1061 284 1061 C 275 1061 266 1061 258 1061 C 250 1061 242 1061 236 1061 C 200 1061 169 1071 145 1093 C 121 1115 109 1150 109 1198 L 109 1528 L 6 1528 L 6 1636 L 344 1636 L 344 1528 Z" unicode="™" />
<glyph horiz-adv-x="612" d="M 281 -170 C 281 -192 289 -214 305 -235 C 321 -256 349 -271 387 -281 L 387 -365 C 348 -355 315 -344 288 -330 C 261 -316 239 -301 222 -284 C 204 -267 192 -249 184 -230 C 176 -210 172 -190 172 -170 C 172 -130 186 -95 215 -65 C 243 -35 286 -13 342 0 L 381 -43 C 345 -58 320 -77 304 -99 C 288 -121 281 -145 281 -170 Z" unicode="˛" />
<glyph horiz-adv-x="1664" d="M 832 1376 C 706 1376 599 1328 510 1234 C 420 1139 376 1006 376 836 C 376 673 405 538 464 432 C 522 325 609 241 724 180 L 724 0 L 88 0 L 88 196 L 536 196 C 456 225 378 295 304 406 C 229 516 192 664 192 848 C 192 1024 247 1184 358 1330 C 468 1475 626 1548 832 1548 C 1037 1548 1195 1478 1306 1338 C 1416 1198 1472 1034 1472 848 C 1472 664 1434 516 1360 406 C 1285 295 1208 225 1128 196 L 1576 196 L 1576 0 L 940 0 L 940 180 C 1054 241 1141 325 1200 432 C 1258 538 1288 673 1288 836 C 1288 974 1246 1099 1162 1210 C 1078 1320 968 1376 832 1376 Z" unicode="Ω" />
<glyph horiz-adv-x="586" d="M 287 1239 C 273 1252 261 1264 249 1274 C 237 1284 226 1290 215 1290 C 200 1290 188 1283 180 1270 C 171 1257 166 1236 164 1206 L 63 1214 C 65 1242 69 1268 77 1292 C 84 1316 94 1336 106 1353 C 118 1370 132 1383 148 1393 C 164 1402 181 1407 201 1407 C 222 1407 242 1403 262 1397 C 281 1391 299 1377 317 1356 C 327 1343 336 1333 344 1327 C 352 1320 361 1317 373 1317 C 389 1317 401 1323 409 1336 C 417 1349 422 1371 426 1403 L 524 1393 C 520 1333 506 1285 482 1251 C 458 1217 426 1200 385 1200 C 365 1200 348 1202 333 1206 C 318 1210 303 1221 287 1239 Z" unicode="˜" />
<glyph horiz-adv-x="586" d="M 303 1198 L 385 1446 L 516 1446 L 412 1198 L 303 1198 Z M 123 1198 L 207 1446 L 338 1446 L 236 1198 L 123 1198 Z" unicode="˝" />
<glyph horiz-adv-x="272" d="M 217 0 L 76 0 C 74 0 72 8 70 25 C 67 42 66 61 66 82 L 66 1126 L 207 1126 L 207 94 C 207 82 207 71 208 60 C 209 49 210 39 211 31 C 212 22 213 15 214 9 C 215 3 216 0 217 0 Z" unicode="ı" />
<glyph horiz-adv-x="616" d="M 233 616 L 233 150 L 600 150 L 600 0 L 80 0 L 80 555 L 23 526 L 23 631 L 80 659 L 80 1634 L 233 1634 L 233 723 L 434 815 L 434 709 L 233 616 Z" unicode="Ł" />
<glyph horiz-adv-x="274" d="M 207 602 L 207 88 C 207 61 207 41 208 27 C 208 13 209 4 211 0 L 76 0 C 72 3 70 10 69 22 C 68 34 68 48 68 66 L 68 543 L 10 514 L 10 623 L 68 649 L 68 1540 C 68 1548 67 1558 67 1568 C 67 1578 66 1587 66 1596 C 66 1605 65 1613 65 1620 C 64 1627 63 1632 63 1636 L 203 1636 C 203 1634 203 1627 205 1613 C 206 1599 207 1584 207 1569 L 207 711 C 207 711 209 713 215 716 C 220 718 226 721 234 725 L 262 737 L 262 629 L 207 602 Z" unicode="ł" />
<glyph horiz-adv-x="586" d="M 502 1200 L 381 1200 L 291 1358 L 203 1200 L 84 1200 L 215 1448 L 373 1448 L 502 1200 Z" unicode="ˆ" />
<glyph horiz-adv-x="1063" d="M 567 1634 L 1049 1634 L 1049 1491 L 672 1491 L 672 897 L 1014 897 L 1014 754 L 672 754 L 672 143 L 1049 143 L 1049 0 L 565 0 L 565 68 C 557 58 547 48 535 38 C 523 28 509 20 493 12 C 477 4 458 -1 438 -6 C 418 -11 396 -14 373 -14 C 287 -14 220 8 171 53 C 122 97 91 167 78 262 C 75 272 72 289 70 313 C 67 337 65 365 63 397 C 61 429 59 464 58 502 C 56 540 55 578 54 616 C 53 654 52 690 52 726 C 51 762 51 793 51 821 C 51 849 51 880 51 915 C 51 950 52 986 53 1023 C 54 1060 55 1097 57 1134 C 58 1170 60 1204 62 1235 C 64 1266 66 1293 69 1316 C 71 1338 74 1354 78 1364 C 90 1454 120 1523 168 1572 C 215 1620 283 1645 371 1645 C 412 1645 450 1639 486 1627 C 521 1615 548 1597 567 1575 L 567 1634 Z M 381 131 C 403 131 423 134 439 140 C 455 146 469 155 481 165 C 492 175 501 188 507 202 C 513 216 518 232 520 248 C 520 257 521 274 522 299 C 522 324 523 354 523 388 C 523 422 524 460 524 500 C 524 540 524 580 524 620 C 524 659 524 696 524 732 C 524 767 524 797 524 821 C 524 841 524 867 524 899 C 524 931 524 965 524 1002 C 524 1039 524 1077 524 1115 C 524 1153 523 1189 523 1223 C 523 1256 522 1285 522 1309 C 522 1333 522 1350 522 1360 C 514 1404 500 1437 479 1460 C 458 1483 425 1495 379 1495 C 354 1495 333 1491 316 1484 C 298 1477 284 1467 272 1455 C 260 1442 251 1427 244 1409 C 236 1391 231 1370 227 1348 C 224 1336 222 1317 220 1292 C 218 1267 217 1239 215 1207 C 213 1175 212 1140 211 1104 C 210 1067 209 1031 209 995 C 208 959 207 926 207 894 C 207 862 207 835 207 813 C 207 790 207 763 207 731 C 207 699 208 665 209 629 C 209 593 210 556 211 519 C 211 481 212 446 214 414 C 216 381 218 352 220 326 C 222 300 224 282 227 270 C 236 226 252 192 276 168 C 300 143 335 131 381 131 Z" unicode="Œ" />
<glyph horiz-adv-x="981" d="M 700 1141 C 731 1141 758 1137 782 1131 C 806 1124 826 1115 844 1103 C 862 1091 877 1078 889 1062 C 901 1046 912 1030 920 1012 C 928 993 935 969 939 939 C 943 909 947 873 949 831 C 951 789 952 740 952 686 C 952 631 952 570 952 502 L 571 502 C 571 486 571 466 571 441 C 571 415 572 388 574 359 C 575 330 577 301 580 272 C 582 243 586 217 590 195 C 595 169 607 148 627 133 C 647 118 671 111 700 111 C 728 111 751 117 770 129 C 789 141 801 160 807 186 C 809 198 811 213 813 230 C 814 247 815 263 816 279 C 817 295 818 308 818 320 C 818 331 819 338 819 340 L 950 340 C 950 328 949 312 949 294 C 948 276 947 256 945 236 C 943 216 940 195 936 175 C 932 154 926 135 920 119 C 900 73 873 40 838 19 C 802 -1 756 -12 698 -12 C 670 -12 645 -9 624 -4 C 602 1 584 8 568 18 C 552 27 538 38 528 50 C 518 62 510 76 504 90 C 495 74 485 59 474 47 C 463 35 450 24 435 15 C 419 6 401 0 381 -5 C 361 -9 337 -12 309 -12 C 251 -12 203 2 163 30 C 123 58 95 99 80 154 C 74 175 68 202 64 234 C 59 266 55 300 52 337 C 49 374 47 412 45 451 C 43 490 43 527 43 563 C 43 636 45 706 51 774 C 56 842 64 902 76 954 C 82 981 91 1006 104 1029 C 116 1052 132 1072 152 1088 C 171 1104 194 1117 220 1127 C 246 1136 277 1141 311 1141 C 343 1141 370 1138 392 1133 C 414 1128 432 1121 447 1113 C 462 1104 474 1094 484 1084 C 493 1073 502 1062 510 1051 C 514 1061 521 1071 531 1082 C 541 1092 553 1102 569 1111 C 585 1119 603 1126 625 1132 C 647 1138 672 1141 700 1141 Z M 817 623 C 817 630 816 642 816 658 C 816 674 815 693 815 715 C 814 736 813 758 812 782 C 811 805 810 827 809 848 C 808 868 807 887 805 903 C 803 919 802 930 801 936 C 794 962 782 982 764 994 C 746 1006 723 1012 696 1012 C 670 1012 647 1005 627 991 C 607 977 594 958 588 936 C 582 915 577 889 575 857 C 573 825 571 793 571 761 C 570 729 570 700 570 674 C 570 648 571 631 571 623 L 817 623 Z M 438 561 C 438 587 437 618 437 652 C 436 686 435 719 434 753 C 433 787 431 818 429 846 C 427 874 424 897 422 913 C 408 977 370 1010 309 1010 C 249 1010 213 976 199 909 C 195 891 191 868 189 840 C 186 811 184 780 183 748 C 181 716 180 683 180 650 C 180 616 180 587 180 561 C 180 533 180 503 181 469 C 181 435 182 401 184 368 C 185 334 187 303 189 275 C 191 246 195 223 199 207 C 205 175 217 152 237 137 C 257 122 281 115 309 115 C 337 115 361 122 381 137 C 401 152 414 175 420 207 C 422 223 425 246 427 275 C 429 304 431 335 433 369 C 435 402 436 435 437 469 C 437 503 438 533 438 561 Z" unicode="œ" />
<glyph horiz-adv-x="332" d="M 311 274 L 23 666 L 23 774 L 311 1165 L 311 963 L 133 719 L 311 479 L 311 274 Z" unicode="‹" />
<glyph horiz-adv-x="332" d="M 20 274 L 20 479 L 199 719 L 20 963 L 20 1165 L 309 774 L 309 666 L 20 274 Z" unicode="›" />
<glyph horiz-adv-x="680" d="M 643 334 C 643 216 615 128 561 71 C 507 14 430 -14 332 -14 C 286 -14 246 -8 211 3 C 176 15 146 31 122 52 C 97 72 78 97 64 126 C 50 155 41 187 39 221 C 37 241 36 263 35 287 C 34 311 33 333 33 355 C 33 376 33 394 33 410 C 33 425 33 434 33 438 L 178 438 C 178 432 178 423 178 410 C 178 397 178 382 178 365 C 178 347 179 329 180 309 C 181 289 182 270 184 252 C 188 204 204 171 231 151 C 258 131 294 121 338 121 C 388 121 426 136 452 167 C 478 197 492 248 492 319 C 492 381 485 436 473 484 C 460 532 443 575 423 614 C 402 652 378 688 352 720 C 325 752 298 783 270 813 C 240 845 211 877 182 910 C 153 943 127 980 105 1020 C 82 1060 64 1105 50 1155 C 36 1205 29 1263 29 1329 C 29 1427 54 1505 105 1561 C 156 1617 232 1645 334 1645 C 382 1645 424 1637 460 1622 C 495 1606 525 1586 549 1560 C 573 1534 591 1503 604 1469 C 616 1434 624 1398 627 1360 C 627 1344 628 1327 629 1308 C 630 1288 631 1270 631 1252 C 631 1234 632 1218 632 1205 C 632 1192 633 1185 633 1184 L 483 1184 C 483 1184 483 1190 483 1202 C 483 1214 482 1228 482 1244 C 482 1260 481 1277 481 1295 C 480 1313 479 1330 479 1346 C 477 1369 474 1390 468 1410 C 462 1429 454 1445 443 1459 C 431 1473 417 1483 399 1491 C 381 1499 360 1503 334 1503 C 279 1503 240 1488 217 1459 C 193 1429 182 1383 182 1321 C 182 1276 187 1236 197 1200 C 207 1164 221 1130 239 1099 C 257 1068 277 1039 300 1011 C 323 983 347 956 373 930 C 405 895 437 859 469 822 C 501 784 529 742 555 696 C 581 650 602 597 618 539 C 634 480 643 412 643 334 Z M 129 1958 L 252 1958 L 338 1802 L 426 1958 L 549 1958 L 420 1708 L 258 1708 L 129 1958 Z" unicode="Š" />
<glyph horiz-adv-x="559" d="M 528 291 C 528 188 506 112 462 62 C 418 12 358 -12 281 -12 C 199 -12 138 6 97 44 C 55 81 33 137 29 213 C 27 234 27 254 27 274 C 27 293 27 314 27 338 L 158 338 C 158 334 158 328 158 320 C 158 312 158 302 158 290 C 158 278 158 266 158 252 C 158 238 159 225 160 213 C 162 179 172 153 192 134 C 211 115 239 106 276 106 C 316 106 345 119 365 147 C 385 174 395 217 395 276 C 395 308 391 337 383 361 C 375 385 365 407 353 425 C 340 443 325 460 308 474 C 290 488 272 502 254 516 C 228 534 202 553 176 572 C 150 591 126 614 105 642 C 83 669 66 702 53 741 C 39 780 33 829 33 887 C 33 923 38 956 48 987 C 58 1017 73 1044 93 1067 C 113 1090 138 1108 168 1121 C 198 1134 234 1141 276 1141 C 312 1141 344 1136 370 1127 C 396 1118 419 1106 437 1090 C 455 1074 470 1055 481 1033 C 491 1011 499 987 504 961 C 505 953 506 940 507 922 C 508 904 509 885 509 866 C 509 847 510 829 510 813 C 510 797 510 786 510 780 L 379 780 C 379 782 379 790 379 804 C 379 818 379 833 379 849 C 379 865 378 880 378 894 C 378 908 377 916 377 920 C 375 931 373 942 369 954 C 365 965 358 975 350 985 C 342 994 331 1001 318 1007 C 304 1013 288 1016 270 1016 C 232 1016 205 1003 189 979 C 173 955 166 922 166 881 C 166 844 170 813 180 787 C 189 761 201 739 217 720 C 233 700 250 683 270 668 C 290 653 310 639 332 625 C 350 612 370 597 393 580 C 415 562 437 541 457 515 C 477 489 493 457 507 421 C 521 384 528 341 528 291 Z M 68 1452 L 190 1452 L 276 1296 L 365 1452 L 487 1452 L 358 1202 L 197 1202 L 68 1452 Z" unicode="š" />
<glyph horiz-adv-x="1152" d="M -8 -392 L 56 -260 C 72 -265 88 -270 104 -274 C 120 -278 140 -280 164 -280 C 196 -280 222 -268 242 -246 C 262 -223 277 -178 288 -112 L 516 1224 C 534 1330 574 1410 636 1464 C 697 1517 778 1544 880 1544 C 941 1544 995 1536 1042 1522 C 1088 1507 1125 1492 1152 1476 L 1088 1304 C 1058 1322 1025 1340 988 1356 C 950 1372 910 1380 868 1380 C 806 1380 760 1360 730 1322 C 699 1283 680 1238 672 1188 L 448 -224 C 434 -296 402 -348 350 -382 C 298 -415 240 -432 176 -432 C 136 -432 99 -428 66 -420 C 32 -412 8 -402 -8 -392 Z" unicode="∫" />
<glyph horiz-adv-x="586" d="M 82 1452 L 205 1452 L 291 1296 L 379 1452 L 502 1452 L 373 1202 L 211 1202 L 82 1452 Z" unicode="ˇ" />
<glyph horiz-adv-x="729" d="M 729 1634 L 432 596 L 432 0 L 279 0 L 279 592 L 0 1634 L 158 1634 C 195 1489 228 1357 258 1239 C 270 1188 283 1138 295 1088 C 307 1038 317 993 327 952 C 337 911 345 876 351 848 C 357 819 360 801 360 793 C 360 801 363 820 369 848 C 375 876 383 911 393 952 C 403 993 414 1038 427 1088 C 439 1138 452 1188 466 1239 C 497 1357 533 1489 573 1634 L 729 1634 Z M 553 1704 L 424 1704 L 424 1903 L 553 1903 L 553 1704 Z M 311 1704 L 184 1704 L 184 1903 L 311 1903 L 311 1704 Z" unicode="Ÿ" />
<glyph horiz-adv-x="1112" d="M 1018 0 L 834 0 L 834 268 L 1018 268 L 1018 0 Z M 647 0 L 463 0 L 463 268 L 647 268 L 647 0 Z M 276 0 L 92 0 L 92 268 L 276 268 L 276 0 Z" unicode="…" />
<glyph horiz-adv-x="621" d="M 610 0 L 18 0 L 18 131 L 436 1491 L 43 1491 L 43 1634 L 598 1634 L 598 1513 L 174 141 L 610 141 L 610 0 Z M 100 1958 L 223 1958 L 309 1802 L 397 1958 L 520 1958 L 391 1708 L 229 1708 L 100 1958 Z" unicode="Ž" />
<glyph horiz-adv-x="508" d="M 489 0 L 20 0 L 20 131 L 342 999 L 27 999 L 27 1126 L 483 1126 L 483 989 L 158 127 L 489 127 L 489 0 Z M 43 1452 L 166 1452 L 252 1296 L 340 1452 L 463 1452 L 334 1202 L 172 1202 L 43 1452 Z" unicode="ž" />
<glyph horiz-adv-x="1536" d="M 212 236 L 212 452 L 1112 792 L 212 1128 L 212 1344 L 1352 872 L 1352 708 L 212 236 Z M 212 24 L 212 216 L 1348 216 L 1348 24 L 212 24 Z" unicode="≥" />
<glyph horiz-adv-x="1047" d="M 821 1001 L 596 1001 L 596 0 L 459 0 L 459 1001 L 246 1001 L 246 0 L 106 0 L 106 999 L 10 999 L 10 1126 L 106 1126 L 106 1430 C 106 1461 109 1490 116 1516 C 122 1542 133 1565 148 1584 C 163 1603 182 1618 206 1629 C 229 1639 257 1645 291 1645 C 316 1645 336 1644 351 1642 C 365 1640 379 1638 391 1636 L 391 1509 C 383 1509 371 1509 357 1511 C 342 1512 329 1513 319 1513 C 291 1513 271 1504 260 1488 C 249 1471 244 1451 244 1427 L 244 1126 L 459 1126 L 459 1425 C 459 1456 462 1485 469 1512 C 475 1538 486 1561 501 1581 C 515 1601 534 1616 557 1628 C 580 1639 608 1645 641 1645 C 666 1645 686 1644 701 1642 C 715 1640 729 1638 741 1636 L 741 1509 C 731 1509 720 1509 707 1511 C 694 1512 682 1513 670 1513 C 644 1513 625 1505 613 1490 C 601 1474 596 1455 596 1432 L 596 1126 L 961 1126 L 961 94 C 961 83 961 72 962 61 C 963 50 964 40 966 31 C 967 22 968 15 970 9 C 971 3 972 0 973 0 L 834 0 C 832 0 830 2 829 7 C 827 12 826 18 825 26 C 823 34 822 42 822 52 C 821 62 821 72 821 82 L 821 1001 Z" unicode="ﬃ" />
<glyph horiz-adv-x="543" d="M 242 -74 C 235 -140 216 -192 184 -230 C 152 -268 105 -287 45 -287 C 31 -287 19 -286 9 -286 C -1 -286 -9 -285 -17 -285 C -24 -284 -30 -283 -36 -283 C -42 -282 -47 -281 -53 -281 L -53 -152 C -41 -152 -29 -152 -17 -153 C -4 -153 8 -154 20 -154 C 44 -154 62 -145 76 -128 C 90 -110 98 -90 100 -68 C 100 -68 101 -58 103 -38 C 105 -18 107 8 110 42 C 113 76 117 115 121 161 C 125 206 130 254 135 305 C 139 355 144 407 149 461 C 154 515 159 567 164 618 C 168 669 173 717 177 763 C 181 809 185 849 188 883 C 191 917 194 945 196 966 C 198 986 199 997 199 999 L 102 999 L 102 1130 L 211 1130 L 238 1436 C 240 1467 246 1496 256 1522 C 265 1548 278 1570 295 1588 C 312 1606 333 1621 358 1631 C 383 1641 412 1647 446 1647 C 460 1647 473 1646 483 1646 C 493 1645 501 1644 509 1643 C 516 1641 522 1640 528 1639 C 534 1637 540 1636 547 1636 L 545 1511 C 534 1511 521 1511 507 1513 C 493 1515 480 1516 469 1516 C 440 1514 418 1505 404 1489 C 389 1473 381 1453 379 1430 L 352 1128 L 485 1128 L 485 999 L 340 999 C 340 997 338 981 336 950 C 333 919 329 878 325 828 C 320 778 315 721 309 657 C 303 593 297 527 291 461 C 285 394 279 329 273 265 C 267 201 261 144 257 94 C 252 44 248 3 246 -27 C 243 -57 242 -73 242 -74 Z" unicode="ƒ" />
<glyph horiz-adv-x="1536" d="M 76 0 L 652 1536 L 884 1536 L 1456 0 L 76 0 Z M 352 148 L 1164 148 L 752 1256 L 352 148 Z" unicode="Δ" />
<glyph horiz-adv-x="219" d="M 385 1634 C 355 1527 325 1423 297 1321 C 285 1277 272 1232 259 1186 C 245 1139 232 1093 219 1047 C 206 1001 193 958 181 916 C 169 874 157 835 147 801 C 137 769 126 732 114 692 C 102 652 91 610 79 567 C 67 523 54 479 42 434 C 30 389 18 346 7 304 C -19 205 -46 104 -74 0 L -170 0 C -139 112 -109 221 -79 327 C -66 372 -53 419 -39 468 C -25 516 -12 564 1 611 C 15 658 28 703 41 747 C 53 791 65 830 76 866 C 85 897 95 932 107 971 C 118 1009 130 1049 142 1091 C 154 1133 165 1175 177 1219 C 189 1262 200 1304 212 1344 C 238 1438 264 1535 291 1634 L 385 1634 Z" unicode="⁄" />
<glyph horiz-adv-x="1664" d="M 832 1376 C 706 1376 599 1328 510 1234 C 420 1139 376 1006 376 836 C 376 673 405 538 464 432 C 522 325 609 241 724 180 L 724 0 L 88 0 L 88 196 L 536 196 C 456 225 378 295 304 406 C 229 516 192 664 192 848 C 192 1024 247 1184 358 1330 C 468 1475 626 1548 832 1548 C 1037 1548 1195 1478 1306 1338 C 1416 1198 1472 1034 1472 848 C 1472 664 1434 516 1360 406 C 1285 295 1208 225 1128 196 L 1576 196 L 1576 0 L 940 0 L 940 180 C 1054 241 1141 325 1200 432 C 1258 538 1288 673 1288 836 C 1288 974 1246 1099 1162 1210 C 1078 1320 968 1376 832 1376 Z" unicode="Ω" />
<glyph horiz-adv-x="1536" d="M 236 400 C 230 429 228 456 228 480 C 228 546 248 604 288 652 C 328 700 390 724 476 724 C 542 724 600 714 650 696 C 699 677 745 659 788 642 C 830 624 872 610 912 598 C 952 586 988 580 1020 580 C 1070 580 1106 590 1128 610 C 1149 630 1160 654 1160 684 C 1160 694 1158 705 1156 716 L 1300 716 C 1305 686 1308 660 1308 636 C 1308 569 1288 512 1248 464 C 1208 416 1145 392 1060 392 C 993 392 935 400 886 418 C 836 435 790 452 748 470 C 705 487 664 501 624 512 C 584 522 548 528 516 528 C 465 528 429 518 408 500 C 386 481 376 458 376 432 C 376 421 377 410 380 400 L 236 400 Z M 236 860 C 230 889 228 916 228 940 C 228 1006 248 1064 288 1112 C 328 1160 390 1184 476 1184 C 542 1184 600 1174 650 1156 C 699 1137 745 1119 788 1102 C 830 1084 872 1070 912 1058 C 952 1046 988 1040 1020 1040 C 1070 1040 1106 1050 1128 1070 C 1149 1090 1160 1114 1160 1144 C 1160 1154 1158 1165 1156 1176 L 1300 1176 C 1305 1146 1308 1120 1308 1096 C 1308 1029 1288 972 1248 924 C 1208 876 1145 852 1060 852 C 993 852 935 860 886 878 C 836 895 790 912 748 930 C 705 947 664 961 624 972 C 584 982 548 988 516 988 C 465 988 429 978 408 960 C 386 941 376 918 376 892 C 376 881 377 870 380 860 L 236 860 Z" unicode="≈" />
<glyph horiz-adv-x="1408" d="M 252 -424 C 214 -424 186 -413 168 -392 C 149 -370 140 -333 140 -280 C 140 -226 141 -168 144 -106 C 146 -43 150 25 156 100 C 161 166 165 218 168 256 C 170 293 172 317 172 328 C 174 341 176 350 176 356 L 176 1176 L 368 1176 L 368 320 C 368 258 395 210 450 176 C 504 141 564 124 628 124 C 716 124 792 146 858 190 C 923 234 973 297 1008 380 L 1008 1176 L 1200 1176 L 1200 308 L 1220 0 L 1056 0 L 1020 176 C 974 104 913 50 836 14 C 758 -22 670 -40 572 -40 C 537 -40 494 -31 444 -14 C 393 3 353 28 324 60 C 324 1 333 -56 352 -112 C 370 -168 380 -218 380 -264 C 380 -370 337 -424 252 -424 Z" unicode="μ" />
<glyph horiz-adv-x="1408" d="M 296 0 L 296 1028 L 12 1028 L 12 1176 L 1316 1176 L 1316 1028 L 996 1028 L 996 344 C 996 266 1011 213 1042 184 C 1072 154 1109 140 1152 140 C 1184 140 1210 140 1232 142 C 1253 143 1274 148 1296 156 L 1296 28 C 1264 12 1234 0 1206 -6 C 1178 -12 1138 -16 1088 -16 C 1002 -16 935 10 886 64 C 836 117 812 208 812 336 L 812 1028 L 484 1028 L 484 0 L 296 0 Z" unicode="π" />
<glyph horiz-adv-x="1536" d="M 212 976 L 212 1176 L 900 1176 L 996 1356 L 1168 1356 L 1072 1176 L 1328 1176 L 1328 976 L 964 976 L 768 604 L 1328 604 L 1328 404 L 660 404 L 548 188 L 372 188 L 488 404 L 212 404 L 212 604 L 592 604 L 792 976 L 212 976 Z" unicode="≠" />
<glyph horiz-adv-x="1152" d="M 472 -48 L 68 756 L 472 1560 L 656 1560 L 1084 756 L 656 -48 L 472 -48 Z M 556 152 L 876 768 L 572 1356 L 252 740 L 556 152 Z" unicode="◊" />
<glyph horiz-adv-x="1536" d="M 1348 236 L 208 708 L 208 872 L 1348 1344 L 1348 1128 L 448 792 L 1348 452 L 1348 236 Z M 212 24 L 212 216 L 1348 216 L 1348 24 L 212 24 Z" unicode="≤" />
<glyph horiz-adv-x="420" d="M 393 958 L 281 958 L 281 -16 L 211 -190 L 141 -16 L 141 958 L 27 958 L 27 1083 L 141 1083 C 139 1095 138 1113 138 1135 C 138 1157 137 1181 137 1209 C 137 1237 137 1266 137 1298 C 137 1329 137 1360 137 1391 C 137 1463 137 1540 139 1624 L 283 1624 C 283 1540 284 1463 285 1391 C 285 1360 285 1329 285 1298 C 285 1266 284 1237 284 1209 C 284 1181 283 1157 283 1135 C 282 1113 281 1095 281 1083 L 393 1083 L 393 958 Z" unicode="†" />
<glyph horiz-adv-x="1053" d="M 246 999 L 246 0 L 106 0 L 106 999 L 10 999 L 10 1126 L 106 1126 L 106 1430 C 106 1461 109 1490 116 1516 C 122 1542 133 1565 148 1584 C 163 1603 182 1618 206 1629 C 229 1639 257 1645 291 1645 C 316 1645 336 1644 351 1642 C 365 1640 379 1638 391 1636 L 391 1509 C 383 1509 371 1509 357 1511 C 342 1512 329 1513 319 1513 C 291 1513 271 1504 260 1488 C 249 1471 244 1451 244 1427 L 244 1126 L 459 1126 L 459 1425 C 459 1456 462 1485 469 1512 C 475 1538 486 1561 501 1581 C 515 1601 534 1616 557 1628 C 580 1639 608 1645 641 1645 C 666 1645 686 1644 701 1642 C 716 1640 729 1638 741 1636 L 741 1509 C 733 1510 722 1511 708 1512 C 694 1512 682 1513 670 1513 C 644 1513 625 1505 613 1490 C 601 1474 596 1455 596 1432 L 596 1126 L 758 1126 L 758 999 L 596 999 L 596 0 L 459 0 L 459 999 L 246 999 Z M 971 0 L 834 0 C 831 3 828 11 826 24 C 824 36 823 50 823 66 L 823 1540 C 823 1548 822 1558 822 1568 C 822 1578 821 1588 821 1597 C 821 1606 820 1614 820 1621 C 820 1628 819 1633 819 1636 L 961 1636 C 961 1634 961 1627 962 1613 C 962 1599 963 1584 963 1569 L 963 88 C 963 36 965 7 971 0 Z" unicode="ﬄ" />
<glyph horiz-adv-x="711" d="M 322 1051 L 322 1499 L 10 1499 L 10 1628 L 700 1628 L 700 1499 L 383 1499 L 383 1051 C 411 1046 437 1037 461 1023 C 485 1009 506 993 524 973 C 542 953 556 930 566 904 C 576 878 582 851 582 823 C 582 794 576 767 566 741 C 556 715 542 693 524 673 C 506 653 484 636 460 623 C 435 609 409 601 381 598 L 381 152 L 700 152 L 700 10 L 10 10 L 10 152 L 319 152 L 319 598 C 291 602 266 610 242 624 C 218 637 197 654 179 674 C 161 694 148 716 138 742 C 128 767 123 794 123 823 C 123 851 128 878 138 904 C 148 930 163 953 181 973 C 199 993 220 1009 244 1023 C 268 1037 294 1046 322 1051 Z M 199 737 C 211 740 225 744 242 749 C 258 753 273 758 287 762 C 278 751 269 740 259 728 C 249 716 240 704 233 694 C 244 684 257 675 272 667 C 287 659 303 654 319 651 L 319 748 L 350 815 L 381 748 L 381 651 C 413 657 443 671 469 694 C 461 704 452 716 442 728 C 431 740 422 752 414 764 C 428 760 443 755 460 751 C 477 746 492 742 506 739 C 520 765 528 793 528 823 C 528 855 520 885 504 911 C 491 907 476 903 459 899 C 441 895 426 891 412 887 C 420 898 429 910 439 922 C 449 934 459 946 467 956 C 455 966 442 975 428 982 C 413 988 398 993 383 997 L 383 901 L 350 831 L 322 901 L 322 997 C 305 993 289 988 275 981 C 261 973 248 964 236 954 C 243 944 252 932 262 920 C 272 907 281 895 291 883 C 275 888 259 892 242 896 C 225 900 210 903 197 905 C 190 893 185 880 181 866 C 177 852 176 837 176 823 C 176 793 183 764 199 737 Z" unicode="" />
</font>
</defs>
</svg>
