<svg xmlns="http://www.w3.org/2000/svg" viewBox="0 0 1406.53 186.11"><defs><style>.cls-1{fill:#939;}</style></defs><title>Asset 1</title><g id="Layer_2" data-name="Layer 2"><g id="Layer_1-2" data-name="Layer 1"><path class="cls-1" d="M160.25,130.56c0,45.82-44.8,55.55-66.3,55.55H68.61C21.25,186.11.51,163.33,0,115.45V73.73C0,27.39,25.34,0,70.4,0H85c15.1,0,40.7,3.07,70.14,8.45V67.33h-42l-5.38-23a268,268,0,0,0-32.26-1.54c-15.36,0-25.34,11.26-25.34,27.9v49.92c.26,14.08,9,22,23.81,22H95.74c10.5,0,18.43-5.12,18.43-15.36v-3.84L76,118.78V85.5h84.22Z"/><path class="cls-1" d="M242.43,186.11c-50.69,0-68.1-17.92-68.35-67.33V111.1C174.08,60.16,191,42,242.43,42h9c49.66,0,66,18.43,66,69.12v7.42c-.26,49.66-16.9,67.58-65.79,67.58Zm7.94-34.56c13.06,0,18.94-5.38,18.94-17.92V95.49c0-13.31-5.63-18.94-18.94-18.94h-9.47c-13.06,0-18.69,5.63-18.69,18.94v38.14c0,12.54,5.63,17.92,18.69,17.92Z"/><path class="cls-1" d="M486.14,78.85A138.16,138.16,0,0,1,468,82.18L428.28,182.53H377.34L339.2,81.92c-5.12-.77-10.24-1.79-15.87-3.07V45.06h76V78.85c-4.35.51-7.68,1.28-11.26,1.54l18.69,62.46H407l23.81-61.44c-4.1-.77-8.7-1.54-13.31-2.56V45.06h68.61Z"/><path class="cls-1" d="M643.83,62.46H612.6L607,43.26h-44.8V72.45h38.4v41.47h-38.4v28.67h45.57l5.63-19.2H644.6v59.14H494.84V146.69L512,143.87V42c-5.89-.77-11.26-1.54-18.18-2.82V3.33h150Z"/><path class="cls-1" d="M794.62,145.66a141.65,141.65,0,0,1,17.66,3.07v33.79H734.2V148.73c2.82-.51,5.63-.77,8.19-1l-14.85-20.22h-.26L713.72,147.2l10.75,1.54v33.79H655.35V148.73c4.61-1,9.22-1.79,13.31-2.56l29.18-31.74L672.5,81.92c-5.63-.77-11.26-1.79-17.15-3.07V45.06h78.08V78.85c-3.07.51-5.89,1-8.45,1.28l14.34,20.22h.26L753.4,80.64c-3.07-.51-6.66-1-10.24-1.79V45.06h69.12V78.85c-5.12,1-10,1.79-14.59,2.56L770.3,114.94Z"/><path class="cls-1" d="M880.86,182.53V155.09c5.29-1,9.6-1.76,13.13-2.16v-78c-4.9-.59-9.6-1.37-13.92-2.16V45.33h71.54V72.77a129.19,129.19,0,0,1-19.21,2.74V152h33.32L970,133.72h25.48v48.8Z"/><path class="cls-1" d="M1137.62,152.54c5.68.59,11.17,1.57,16.27,2.55v27.44h-71.54V155.09a124.81,124.81,0,0,1,12.35-2l-3.33-11h-35.48l-2.16,10.78c4.12.59,5.68,1.37,10,2.16v27.44H1001.6V155.09c5.1-1,10.19-2,15.48-2.55l24.11-77.81c-3.53-.39-7.45-1.18-12.15-2V45.33h73.7Zm-64.48-75.26-10.58,35.08h22l-11-35.08Z"/><path class="cls-1" d="M1279.13,87.07c0,12.94-5.49,21-14.5,25.68,10.19,3.72,16.66,12.74,16.66,27.64v3.92c0,31-13.13,38-48,38.22h-74.48V155.09c5.1-1,9.6-1.76,13.33-2.35V75.12c-4.12-.59-8.62-1.37-14.11-2.35V45.33h73.5c35.28,0,47.63,11,47.63,40.57ZM1227.39,101c9.8,0,14.11-2,14.11-9.6V88.05c0-8-2-11.37-12.35-11.37h-18.62V101Zm14.7,34.69c0-7.64-4.9-9.6-14.7-9.6h-16.86v25.09h16.86c10,0,14.7-3.72,14.7-12.15Z"/><path class="cls-1" d="M1330.09,153.91c5.88,1.76,10.78,2.16,19,2.16h3.33c12.54,0,15.48-2,15.68-10v-2.55c0-6.47-2.35-8.62-14.9-12l-34.1-8.62c-20.58-6.08-26.85-13.52-26.85-37.63V83.55c0-28.62,15.48-40.77,51.74-40.77h7.25c18.42,0,32.93,2.16,51.35,6.86V90h-30.38l-4.31-15.68c-4.51-2.16-9.8-2.35-15.29-2.35h-7.84c-9.21,0-12.54,2.35-12.54,9.6V83c0,5.1,2.16,7.84,8.23,9.41l38.61,9.41c20.58,5.1,27.44,13.92,27.44,34.1v8.43c0,28.42-15.68,40.77-51.74,40.77h-10.19c-19.21,0-28-2.35-50.76-8.82V139H1326Z"/></g></g></svg>