<?xml version="1.0" encoding="UTF-8"?>
<svg id="Layer_1" data-name="Layer 1" xmlns="http://www.w3.org/2000/svg" version="1.1" viewBox="0 0 792 159.5">
  <defs>
    <style>
      .cls-1 {
        fill: #fff;
        stroke-width: 0px;
      }
    </style>
  </defs>
  <path class="cls-1" d="M124.3,116.8c-16.1,8-28.9,11.2-43.7,11.2-27,0-44.1-16.5-44.1-46.2s17.9-46.6,44.9-46.6,26.3,2.5,39,8.1l-6,17.9c-11.4-3.1-20.2-5-30.7-5s-22.7,10.3-22.7,25.7,7.8,24.9,20.8,24.9,13.9-.4,21.8-3.4v-9h-23v-18.9h43.8v41.3Z"/>
  <path class="cls-1" d="M205.6,91.4c0,23.3-13.7,36.6-37.2,36.6s-37-13.3-37-36.6,13.7-37.3,37-37.3,37.2,13.4,37.2,37.3ZM182.5,91.4c0-13.7-5-18.6-14-18.6s-13.9,4.9-13.9,18.6,4.9,17.9,13.9,17.9,14-4.7,14-17.9Z"/>
  <path class="cls-1" d="M231,126.7l-27.7-71.3h23.5l13.4,36.4c1.3,3.5,2.2,7.4,3.2,11.1,1.2-3.7,2.1-7.7,3.4-11.1l14.9-36.4h23.5l-29.2,71.3h-24.9Z"/>
  <path class="cls-1" d="M290.7,126.7V36.7h66.4v21.8h-42.3v13.6h36.1v20.7h-36.1v12.5h43.5v21.4h-67.6Z"/>
  <path class="cls-1" d="M402.3,109.3c-.7-1.2-1.5-2.4-2.2-3.7-.9,1.3-1.6,2.5-2.2,3.7l-12,17.4h-24.5l22.6-35.7-22.4-35.6h25.1l11.2,17.3c.6,1.2,1.3,2.4,2.2,3.7.7-1.3,1.5-2.5,2.2-3.7l11.1-17.3h25.1l-22.4,35.6,22.7,35.7h-24.6l-11.8-17.4Z"/>
  <path class="cls-1" d="M471.9,126.7V36.7h24.1v68.2h40.1v21.8h-64.2Z"/>
  <path class="cls-1" d="M547.6,59.4c16.5-4.3,23.8-5.3,31.1-5.3,20.8,0,29.2,8.7,29.2,29.4v43.2h-23v-8.4c-5.8,5.9-12.2,9.7-20.8,9.7-15,0-23.5-5.6-23.5-22.4s10-22.1,30.1-22.1h14.2c0-8-2.2-11.2-10.6-11.2s-13,.9-23.2,3.1l-3.5-15.9ZM573.8,96c-7.5,0-11.7.7-11.7,6.8s3.7,8.4,9.6,8.4,9.6-2.5,13.1-6.2v-9h-11.1Z"/>
  <path class="cls-1" d="M641.1,64.9c7.1-7.4,14-10.8,22.7-10.8,17.4,0,26.7,10.8,26.7,36.3s-13.3,37.6-28.3,37.6-15.2-3.5-21.1-9.3v8h-23.6V31.5h23.6v33.3ZM641.1,101c3.7,5,7.1,7.7,13.6,7.7s12.7-5.3,12.7-18.3-4.4-16.7-12.1-16.7-10.2,2.8-14.2,8.1v19.2Z"/>
  <path class="cls-1" d="M748.4,75.8c-10.5-2.8-20.1-4.3-24.8-4.3s-5,1.3-5,4c0,4.4,6.2,5,17.7,8.3,13.9,3.8,19.2,8.4,19.2,20.7s-10.3,23.6-29.8,23.6-22.7-3.8-31.9-8.4l5.6-15.8c9.1,3.4,20.1,6.6,26.6,6.6s5.9-1.2,5.9-3.5c0-3.7-5.2-4.3-15.9-7.7-13.3-4.1-19.5-10.9-19.5-21,0-15,9.1-24.3,25.5-24.3s19.2,1.3,32.2,5.6l-5.8,16.2Z"/>
</svg>